<mxfile host="app.diagrams.net" agent="Mozilla/5.0 (Windows NT 10.0; Win64; x64) AppleWebKit/537.36 (KHTML, like Gecko) Chrome/138.0.0.0 Safari/537.36 OPR/122.0.0.0" version="28.2.7">
  <diagram name="PÃ¡gina-1" id="zXVT_NKezON9qsfG8xmf">
    <mxGraphModel dx="1381" dy="790" grid="1" gridSize="10" guides="1" tooltips="1" connect="1" arrows="1" fold="1" page="1" pageScale="1" pageWidth="827" pageHeight="1169" math="0" shadow="0">
      <root>
        <mxCell id="0" />
        <mxCell id="1" parent="0" />
        <mxCell id="JBRv_ieE-0AgOXMLGzSt-1" value="" style="shape=image;verticalLabelPosition=bottom;labelBackgroundColor=default;verticalAlign=top;aspect=fixed;imageAspect=0;image=data:image/png,iVBORw0KGgoAAAANSUhEUgAABGwAAAOvCAYAAACZK1LIAAAAAXNSR0IArs4c6QAAIABJREFUeF7svQd4XNd5rvtNQe8g2DvF3iQWsTdRVKEsiVJsxXKT43JznCvHPvE5To7tFDs3Tmwrto/LcWTHNU5kuUqibVGVkihSVCHF3sTeCwiiEESdcs+3hgvYGM6gbgB7ht/Og2eAmb1XedceOvvV///LF41Go9AhAiIgAiIgAiIgAiIgAiIgAiIgAiIgAiLgGQI+CRvPrIUGIgIiIAIiIAIiIAIiIAIiIAJpQ0CxAWmzlCk9EZ/Pl7Ljl7BJ2aXTwEVABERABERABERABERABETAewQkary3JhpRK4FUEjgSNrpzRUAEREAEREAEREAEREAEREAEOk0gkZCJf48PxRI3nUaqE/uAQLJ7Ml7geEnoSNj0wY2hLkRABERABERABERABERABEQgVQnEixf+7XyoTfQ55xr/4CuBk6p3QGqOu737z/lZ/L3sJYEjYZOa955GLQIiIAIiIAIiIAIiIAIiIAK9RiCZXOno/XiZ4xyghE2vLZcaTkCgM5Eyyc7p6vu9tQASNr1FVu2KgAiIgAiIgAiIgAiIgAiIQAoScIqVZNEzdlodfZ6C09eQ05xAIhnTmagantMZCeQmPgkbN2mqLREQAREQAREQAREQAREQARFIQQLxksZZ76O9zzhV+3k06px4mz9UzyYF74l0GPK1gqV1xyjn5lH2PHvfJxI4nRE9bjOTsHGbqNoTAREQAREQAREQAREQAREQgRQhkKyAsE1t4mt7UTStsobnxSbNB2FF3qTIDZDmw0wkXpz3aXwtm0TCxkbW2O9EX4obCZs0v0E1PREQAREQAREQAREQAREQARGIJ9DRTk9OEWOvdcqb2ENvW5kjSaP7zMsErGhJJF5inzHlyUrHtulPzggcO8e+EDcSNl6+ozQ2ERABERABERABERABERABEegFAvGRM4kiatqmOkURiURaRmKvtxEJiSNyWrf2dqafGNXTNn+qF2aoJq9HAtfuDNUqYCgYeSSPqvEbYdNWzrSVOPb6ZLLG7Ro3EjbX412sOYuACIiACIiACIiACIiACFyXBJyRM/F1auKjamwUTSTCB91YNE18PZtkkTgWrjP9RKLmurzl+mXSrdE0Vtg4xU3y3/1+f5zU8cHvvzb6Jl7cxKdSuSVuJGz65fZRpyIgAiIgAiIgAiIgAiIgAiLQdwQ6qkPjlDE2ksaZ9sTfo9G2ETYUOc4UkvjZ2KibvpulehKBzhNoGxUWi6yJyZlWodO6M9S14iZe7iSrf9P5EV17poRNT+jpWhEQAREQAREQAREQAREQARHwMIGORA2H3rZwMFOfGEkTkzNtRY6NsmkVN3xojf+JPfgyvST28OtWtIGHMWtoHidg73HKSPvD98LhsLnH+dp6n8bq11DeOO/h1jo3rWKnVejEAFiJE4+ju98BCRuP31gangiIgAiIgAiIgAiIgAiIgAh0l0B7KUttiwi31qix7zsfcq284QNpIBC4+kAbkzWJaoLY8Xb3QbW789V1IpCMQLyYtOfZ+53Sxil0nLImXkBaUWPPcYoa+5kzwqy73wMJG93PIiACIiACIiACIiACIiACIpCGBBLJGk7TWTzY/s7Xa6NpYu/ZiBkbSWOFDV91iEC6EOB3wEqb2GtrRJlT0DgjyOIjcOIjbsimJ5FmEjbpcndpHiIgAiIgAiIgAiIgAiIgAiJwlUB8cWC+HR9hEBM0sfcjkVhqiD3P1qfhwybFTDAYREZGhviKQNoTsN+D5uYQwuEQQqFQmznbaJtWidO6u1R85I1T2NhGuhJtI2GT9rebJigCIiACIiACIiACIiACInC9EUi0o5OVMc6Up/gIG/s3HyopaPgTn/Z0vbHUfK9PArboNqNtmpubjbjh98NKTCtjYt+PWGpg/Lbg8emCiQROe3QlbK7Pe0+zFgEREAEREAEREAEREAERSEMC7dWscaY9OaVN25o1jKjxm4gaRtZI1qThTaIpdZqAs44TxQ2lDV+teLHpUUDbQsXO1Kj2ajx1NBAJm44I6XMREAEREAEREAEREAEREAERSBECySJrkska+759AA0EmPoUkzVdSd1IETwapgh0mwC/W1bYxKJtYtvaO1Ok4tOl2Fn89t/2u9aZgUjYdIaSzhEBERABERABERABERABERABjxNIFl0Tq1HTWlTYSh2nrOFDpa1Tk6hwqsenruGJQJ8QsN+xpqYmR7RNbJtvK2uurXHTdntwO9DOCFEJmz5ZVnUiAiIgAiIgAiIgAiIgAiIgAr1LING2xfH1apyyxtarYZ0amwIlWdO7a6TWU5+A/Q6FQkyRitW2YUqUlTbtCRt+Zndek7BJ/XtBMxABERABERABERABERABERCBdgk4RQ0fAq2Iia9TYyNqnJE18bJGqEVABDpHgClR3EWKBYmddW1ahY3/atRNbGtv54+VNuypPXGjCJvOrYXOEgEREAEREAEREAEREAEREAFPEojfwru1UCq37Y6lQlHSOIWN3ekmKyurR4WF6xubcKWxEVcamnCloRENzc1oag4jHAkjwl3Co6zzEUsXyQwGkJURRE5mJvKys1CQk4XszAwEAwFPctWgRKAjAvxuUdYwRepaadNW2DgLePM70ZlIGwmbjlZAn4uACIiACIiACIiACIiACIiARwkkq1vTWrMGiETCLdLGRt0wsiYzM9MUF+7KYeQPi6+GI+YB9XRFFY6cK8eR8xdxsvwSLlTXoLK2DnWNrPERQRRR+H0+I2aK83JRVpiPwSWFGDu4DJOGD8HQ0iIU5uYgGIg93PJcHSKQagQYZWO3/uYW386aNvZvZ4SNnZ+NrkkWZSNhk2p3gsYrAiIgAiIgAiIgAiIgAiIgAlcJxAub9tKgbJQNRQ1r1vCnM3U0nLBD4TBOlF/CnuNnsOfEGZypqEJ1XT3CkQiK8nJQlJuD/Gxn5EwU4UhM8FxpaEB1XQNq6xuM0MnNysSg4kJMGDYYs28YhTGDBxh5o0MEUo0Av3dW2oTDEbN7lJWhRkT6/dekRXGOEjapttIarwiIgAiIgAiIgAiIgAiIgAh0goAzFcrWreFlzhSo+N2hTGrS1cgau91wJ7oy6U4Xqi5j9/HTeOf0eZyuqER9U7ORNAML81FWlI/S/Hzk52QjNzsLuSbVyW+a5hiMsGlsRE1dA2rq6nGxphbnLlUbgUPZM6ioADcMG2jkzeQRQ0zKVMAfu76zB9NSLl++bIrA5uXlIT8/v+VSvtfQ0IBLly6huLjYfNbZ+fO6K1eumIiigoIC5OS4I5UaGxtRX19vxsUxZWdnt5lqdXU1Ll68iOHDh1/zWWeZ6Ly+I2C3/ea6OtOd4oVNfGqUU9zEj1YRNn23fupJBERABERABERABERABERABFwjEB9d01EalN26m8KmM5E1Nv2JKU5Hz5Vj57HT2HrwGGobGjGgIB/jhw3ChBFDMWLwIBQVFiIUje2Ukx/0oSgDqA8DGX4g4AOaIkDQB9SHgMvNYTQ3NeH0hXIcP3ceB06dxYkLl4ygGTWoFIunjMfE4YMxoDDfROF09qiqqsKRI0dQV1dnJMfo0aNbohoocs6dO4fDhw9jwoQJGDlypBFXnTkqKytx/vx5I1Z43YABAzpzWYfn1NbWglKGr8OGDTPjYZQGZRPX5+jRo9izZw8WL16MkpKSDtvTCf1PgN8ZikOuI3+P3+rbSsLOShsJm/5fU41ABERABERABERABERABERABLpMIH4b79Ytu9sWG2ZkSKzIcBA5ObEojs4IG9aqaWoO4aVd+/H8tr3YdfQURg0agCVTx2Px1PEYNqAEVc1+nKoHTtZHcbIugrIsP6YXBzCz2I8jtRGUZPpQkOHDufooCjOAw5cjOFzL83wYkwuUZEQRCTVi++GTpo93zpyD3+fHfQtvwsLJN5iIm84eZ86cwebNm1FRUYFp06Zhzpw5YFFlzvXkyZPYtWsXjh07htmzZ2Pq1KkoLCzsVNOMcjl16pSJshk/fjwGD+78mNrrgA/1jMawkobRP+Xl5ZgyZYpJV9u/fz+2bNmCO++8E2VlZZ0aq07qXwL2O0i5Z4sQWznDFClnapT9HraXFiVh07/rqd5FQAREQAREQAREQAREQAREoMsE7IOhvdCZ+tS6G5TdHSqMjIxMZDJNKRjsVF9NoRDKqy7j+e178fahE2gMhUyR4DkTRmNA6QA0BHNxqjGA8/VRVDVH0RAGsgPAwrIghub4cKkpaiTNlCI/8oI+rD3VjFsGB8EsqeO1Ebx9KYysgM+ImxE5wJBAI2qqK3Ho9Fm8tu8wuPvUhOGDjRhaNGU8WIq4I8l0+vRpvPbaa2Z+AwcOxNixYzFixAhz3YEDB/D222+bh+jp06djyJAhJhLixIkTJi2JUS18j5E5PBhVc+jQIXMO06nIOzc3F5MmTTKRMPyM17FtpjPxfRZy5gM5H9Yphvg+pRDfoyzimIYOHWqu2bdvn5FJTM2qqakx51A4cQ4cM8fOMVDYUODYNDe2ecMNN7RJ9+rUguqkPiMQS40Ko7k5du8kS4myu6fZgSVK0ZOw6bNlU0ciIAIiIAIiIAIiIAIiIAIi0HMCibbxbo2ucW7fHRM2TFOiZKBQ6Eh6cHSUNcfOV+C1fYfw2t7DyM3OxIwxIzBnwlgECkpxIRTE0doITl6JoqY5inAUyAsC88uCmFLoN++9WRE2KVCLBgaREwS+906T+Z0Ch+8/dyaEU3Wx4qyDs/0Yl+/HqNwoAo21OHHqpJE21VfqMbi4EHfMmYYpI4eiICfHnJ/soOx4/fXXjRjhvFkThlE2FCtMlaJkIaeJEydi0KBB5mGaaVKMcqGYYSrVggULzPkUOfycgosChp+xfg1lCttge5QxvI6RE0xpooxhfRtG4jA6hsxtbZoXXnjBpFNRtnAdduzYYSQRP2cED9Oszp49a9qdMWOGOffChQt44403jAziXDguSpyFCxea8Xd1h6+e33lqobMETN2mUMjcWzycqVHO3/mZ3T3Ktu38jkrYdJa4zhMBERABERABERABERABERABDxBItDOUM6omGm2VNjyX0qEzW3jHpA9wqqISr+w6gD++tRMFOdm4bfZ0zJ08Af7sPGwuD+NATQQVTdEWEjkBYFiuD+8emYnq5ii2XQpjy6Uwbsj3m6gaRt58+0ATijN9WDwwgBnFARyrjeC18hBO1XOb8FidG8qeqcUBTMwH9h89ho27D2DviTMYWVaC9y6bZ+rasBhxe8LmzTffNEKGaVGULEuXLjWRK6xvw4dnphxRmlCwUJzwoZrsmPK0ceNGrFmzxogSihNeW1paav6m7KEgoThhlA6jYph2RTnDvihubrrpJiNg2A/bowyy0oapWqxDw34pdZj+xLb4OdufOXOmeT148CDuuusuE32zd+9ebNq0CUuWLDECh/2sX7/ejIviKL5IsQduTQ3BQYD3Fu8Lm5JoI2pi23zHtv5OJGskbHQbiYAIiIAIiIAIiIAIiIAIiECKEnBu3W2n0CpsYrLGmSLFVB7Kho6ia1izpjkUwq83bsXLOw+YSJv3r5iPiaNHohK52FAeRnlDFHVhmKgae4zL92F2aQDTigPYcD5s0p0uh6LXCBvu+TSh0I8bS2LS5unTzdhdFTHn8sj0w6RIUdzcXBLFqbNn8MrOA3hh+17cdfMMLJ8+EbNuGN2hsGF9GhYZplRhgWFKEEoS1p5hEV8WIy4qKjKfs7YNBQvlDgXLfffdZ6QOI2zuvvtuI0UYAcPzGOFC9iwSzHMZYcO/yZZi58YbbzTChg/ojMphtA/bZaoV++B1/IxpUKxJQ2HE85IJG6ZNvfXWW7j99ttNRA0jcChwKIaYusUIHR3eJWC/h7H7JhZlQ0mTKEXKzuIagRN1xtN5d64amQiIgAiIgAiIgAiIgAiIgAhc9wQSFRomlEgklv7E6Bpb74TvUyYwWqMzW1gzBWnTvkN4cfs+I2uWTZ+EGyeMw9loLnZXw6RBcbcnh6sxqVBzBwSwoCyIk1cieONiGMeuRMw58RE2HE9+EBiT78e9IzLM+e/URHDgcgQ1TVFEENtVqjTTh5klAYzMaET9pfN4avM2VF6pw6wbRuGeeTdiaGlRwi2/mRLFCBsKG0YVMX2IUobRNYxQGTNmjPmcv/NgFA3fs1Eu27Ztw7333msiWY4fP45ly5YZAUOhwh2bjFTKzDSShVLHpirZ9ylmKHgsf8oVShYKM6Y5UfpwjGxj/vz5RqBRBllhw52o3nnnHSOKeA7r7lDYrF692ggeXstIHbZFYePctvy6/2J4EECyAsRWnrZG3MTy/JyypqUQsYSNB1dWQxIBERABERABERABERABERCBBATihQ1PsYLA/hd9yhuKG0oayprORNfUNTbh8NkL+OkLr6G+qQkzx47A3fNno86fgx3VURy6HJM18cewHD9mlfoxvsCPl86FcPRKBJebYylOI3P9WDgwgEy/Dz870tRyKXeOWjk4iKJMn6l3c/ByxMigK6FYPRy/LxZpw0gcSptDx0/i15u2IDMYNFE2d86ZjqzMDPjjCtow6oXShSlRFC0UNtu3bzfCxO7uxCK+TEtipAsjb0aNGmU+57lMQWI0C4UMU5pYs4afMUqGn1OQsNYMd3ViBA7TkihWKIcYscMf51bhO3fuNJKGqTErVqwwv1P8cL2Y1sRXjpnShpKJooi1byiCKGgocjimlStXmggeyh+On6lYlEMcmw5vE7DbfPMe4D1nv4v21bnNt5U2bV4lbLy9wBqdCIiACIiACIiACIiACIiACFgCybby5sNgq7iJCRuKBKYCdZQKxetOV1Rh096D+PHzm7BixiQjRSaPGYldlWGca4ii3pkD5ViO8fl+DM/1I8MHbL4YMulSjK5h+hOly6TCAIJ+4KXzoZarmPo0NDuASYU+FAWjqGuOYGeND+WNUTSwoM3VY+jVYsTDcnx49OmX8PbhE6aGzeceuAulhXlG4DgPCg9GpTBqhoKDKUiMqKFYsXKFaUZMLyIbyhIKFPKxomXevHlGhDCChrtKsQYJGVIAUdYwOofChjKG55A7a9Nw5ymmXDnryrB9SheOY9asWSbSh1E0vJ6Chteylg3f565QTOOisGG7kydPNmPi79yGnOlXFDscP2vwcCyUcTq8T4Ai1W7fbtOhnIWHbWSNImy8v5YaoQiIgAiIgAiIgAiIgAiIgAgkJWCFDR8CecTvDsX3KQL4QMgaKZ15qGdEziu7D+C3m7aitqER71s2H0umTUBOVgbqw0BzBGB9m0QHt+amgGFSR20oVkCYB/8O+n3ICsR+v9zcej0DYzIoSZrqEblUgaZLl4DxkxDJyGrTTwav98fSpA6cOodntu7G5gNHsGb+TWar7zGDB7QZEqMYGB1jo17IgkWByYHv8YGYn1PW8HeKEwoZM96r0TqsC0N2bIuRNeTLz3gNoyLYDt9jXRK73Tc/o6ix23rbQbF9/nAclEBcF/7N663YsZEXXCdb+4bv8XP2y99tDSL+zn55LvvsTJqbvkr9T8BG2VDacE3jU6KsvJGw6f+10ghEQAREQAREQAREQAREQAREoFsErJyxosa+xlKhWMMm3FJwmA+FVlR01Nnpi5X441u7jLRZddNUzJo0AYGCAXjncjjppflBH8bm+zEgy4dz9VHsr2l7rg8+E2EzocBvImw2XAgZccM0qTG5QAmaUP3yy7iyezfCtbUYcPfdyJowEZXZhdhbFUZNiIWNoybtidJmWn4Yew8dwtNv7TQFXB9cfjMWTBqHYCDQ0fT0uQj0OwErB21alJU0znTFhJE2Sonq97XTAERABERABERABERABERABESgXQLOvWKcu0TF0qCsrImlQvGhkFEYFDZ8IOzo4I5Q3ImpvKYWn7nvNlzJLMLuywG8dSm5sBma48PtQ4PIC/qwsyqMjRfanss6NPFFh3nNrCJgeuAK8g/tRcXvfovaXbsQZVrRrbeicOUqVI2ZhC3N+dhXE0F1UxRslduGPzAqA77ai3hr7wGsfWMH3r98Hm6fPQ0Diwo6mp4+F4F+J8DoKLvNt3OXKGe0jVPY2AH7JGz6fe00ABEQAREQAREQAREQAREQARHogbCJbeMdDtsdosImjcam/nSE9tF1r2Dn0VMYWVaCT69ZhQ0XfWa3p4tNidOgGCkzrsCPD43NMLs8bbkUNq/Oo42wCQLfPdCEu4YHMTO7GQUnD+HUN76B+iNHEKmri13m86Hs/vtRfPsdwMzZePJksyl0XHU1lWrZoAAm5oXRUHEWX3xsrUmJWj1nOuZOGNPR9PS5CPQ7AX4/bUobhY2z6LBztyht693vS6UBiIAIiIAIiIAIiIAIiIAIiEDXCMRH2Dhr2LTuDhVLjeIRq6nStihvfI/NoTBq6urxjSefx5WGRtxy01TMnToFz5+PYmdlGI6yM20uLcgAphUFcP/IDDx3thnbLoVxqXUTKHOuU9gMy/Vhc3kYM/NCyHpzI2qffxaXt25F+MoV7kfe0nbGwIHInzMHpX/6IKqHjcX2+ky8bdqOYniuD/MH+DEK1fj22hdNqtSiKTfggSVzzfXctWnr1q145ZVXzN/clWnVqlVgTRpbn6a6utrsssTzWMCXhXsfeughFFZVoeHwYUSamlC0dCkyBw7s2uL0wdl/+MMfsGHDBlNz5/777zdbe7OwMg8WR2ZxZRYsTnRwtysWXZ47d67ZQYt/e/n4wQ9+YLY3Z6FnznX06NHIamxEw7FjqN25E4Xz5yN30iT4OhE95pV58vvLyDfWVPL7A/D7fea+dBYh5ljte3bcirDxygpqHCIgAiIgAiIgAiIgAiIgAiKQhIBzdyieYneEit/SO1Yk14/s7Fhh2vaOmroGHDh9Dj95fiMGFRfi3csW4kpmMTZXRHCkNsEe3lcbozy5qSSAhWVB/O5kM3ZVhU1hYufRImyGBDEx34fy2iZkvLUJV158Hpe3bEGoupqTuGZ4GYMHo3DBAhTf9S5cGDwGeyIFeKsijAiimFsawOy8BrywZTt2HDmJCcMH4y/uWoHMYMDsxvTyyy/j+9//vmFz55134j3veY/ZMcqmhXFb7McffxxvvPGGeXieMmUK/vxjH0PW22+j+tVXEQ2FMOwTn0DuxInwdcCur29USozf/e53Zrehhx9+GEuWLDFbe/NYv349nnnmGbz11lvmb86XIoAcbAFjyinuLnXPPfeYbcO9LG0+97nPGak2cOBAfPKTnzQ7agVPnkTl+vVG9A28/34ULVuGjKvCqq/Xorv98Z5j0WhKVQobZ5SNc3tv565uEjbdpa3rREAEREAEREAEREAEREAERKCPCMQXHHbuDuWUNvzdFhvuaBeh81U1WL9jH17csR83jR2J96xcig0Xo9hfHTFbbCc7JhX6Mac0YAoIP3GyGe9cvlbuBHzAtGI/lpYFMCHYgMZTp3D2Jz9B7dtvI1RZmZwaow5ycjDwPe9B3qLFqBw9GS9WZeD4lQjG5ftxc1EIFedO4XebtqA4PxefuncVSvJzEQ6F8Prrr+ORRx4xD8XcCvtd73oXFi5caHZ2YhTSsWPH8J3vfMdEbwwbNgwrV67EbcuXo+nFF1H50ktmTKM+9SnkTZ0Kf2am+ZsP2ZQedncnPmRThJExDz5cO/nblBZbVDbRZ866QjZVxu44ZXf3spEXFlRnhQ3nSpHDbcDtblbcOpxbhnMujChi9BG3EedhIz/sblZ2R6z4+TkFoR2bvcbuoMX2OB++z76sPLK7Z8VvL2/bZNQQf7e7cFHYMGrIKWxw4AAu/vGPqNu/HwPXrEHx8uXIHj68ZQ7sl+3w1RbctvOz62QlFs9hf/b7YXdxsnO3otOuPV85h57uzMV2KNz4Gh9dE58WZdddwqaP/oFVNyIgAiIgAiIgAiIgAiIgAiLQXQKJhA3/S33sfVvDJvYgyIfL+C2mE/V77EIFfr5+M8qrL5v0oltunovHjjXjXH0EdcnrDWNOqR+zSwMIR3144VwzTly5Vu5wZ6d7hgcxNTeMnKMHcObf/g11Bw8iXFOTMLKmzfiuSpuS225D8X33IzxxKtaeDJktwyfmRzEqWIcfrHsZdQ2N+NCtizB11FBkBYPYvXs3fvjDH+LIkSPmYf+WW27BAw88YNLDuJ333r178bWvfQ3nz5/HvHnz8KEPfQjjxo1D4/nzqD171gxhwOTJyC4ubnmYZwoLzz937pwRN0VFRSgrKzPCx4oAvs/zKAwoAVjw2aZiUV6wb0okigSOhZ/Zg58xOohSheey9tDQoUORn59vRJM9OiNstm3bZmTNn/3Zn2H+/Pnm3mAa2JNPPomXXnrJ9EGBxSgbvvLg2KuqqsDoI25jzvEx1YpjsBEgVsLU1tYaIcL5cXynT582AqKkpMSkL3Hu5MC2ampqTP8URxyTrankXGfOl30ynY3jYBtMf/r85z9/jbAJRqO4fPYsGk+cQOH48cgfMQIZWVmmObt9+/Hjxw1r9jl48GAzfo6P47Brwj65Flwruz06r+G1/M5wbW3kErmUl5cb2cX2yIXz6O7BcXI8nKsVe/G1bOK39paw6S5tXScCIiACIiACIiACIiACIiACfUQgmbCJRQvEhI2ta5OTk9NSG6O94b1z+jy+9dQLKMzNwZLpEzBt8lT86FAzakJRI0eSHYsHBjCrNIAzdRFsvhjG2fq2Jw/K8mFqkR/zi6PI3LoZV155CdUbNiDMAsNXIy/Ydva4ccgZNw7BkhJcevZZhC9fbpU5Ph8yhwxB/s03o+zB9+Fs8VCci2ajKRLF/BLgu79/HtyO/O55N2LptAnIy84yD/7PPvusSRGiCKCU+fSnP20ECYULI3D+4z/+wzw0M7rmz//8z03UxLrf/x6bN2400/3ARz6CyVOmmN+PHj1qauIcOnTItGejlygERo0ahdWrV5uHez7Ys09G7pD9zJkzjSyicKHUYN0c/lBIzJo1y3z7X9SnAAAgAElEQVTGKItdu3Zh8+bNpn1nlAmlANOWGCV04403mrF0VthQJHFeixcvNuOloFi3bh2ee+45I6xY++a+++7D0qVLUVFRgRdffBEHDhxAZWWlGRMFAudAccFIHKZRUeKQBdmSA9OrKDvIm3NatmwZxo8fj+3bt5taOpwz++VBCUL+N910k5k7z+NBqUPBxPlTKvHepQwj140bN5r1GjRoUEtK1IH9+/HsunWoKS/H4hUrMHv+fIwcOdIIGq4r+Z48edLMwSmdTp06ZdZh2rRpZs0p85g6xjkzXY7jJAf+UJZQVFHiUULt2bOnRSaxTdYA4j3Fz7tz2CggG03VKmsCVyNuYnVtbCSS+V27RHUHta4RAREQAREQAREQAREQAREQgb4jkDzCplXW8IGQD3lW2MSnoMSPds+JM/jSY2sxffRwLJ4+GcNGjcOPDzWhIXn5GtPEysFBI2xYu4ZFgS860qcGZ/swtdCHm/LCKNi3LVZg+K230Fxe3tK9LyPDyJiS229H/owZ8Ofm4uITT5j6JM0XLrQOk9FCgwejeMUKFNx6G2qGjUFtVj6YkvXoH18y9XcWTB6He+fdhILcbPPgTynx4x//2KQ/8SH9r/7qr4xUOXz4sKnzQrFC4cAaN+9973vNAz/r3qxdu9b0+3d/93fmwZyRIr/+9a+NDKBMYYQFJQWjbRhpwggTXn/zzTebh/7HHnvMyArKHAqM97///UYcUMawX/5QQNx666148MEHQZHwwgsvmB/KAooCtk8hQllB8cJz3/3ud5v1/NGPftRhDRsKkHhhQ4HBgsXsn5LCChvKIBYx5vscC8dKLpwbf3gd50HJQWlDucQxMOKEc2Q0DaNo+BlTzyhuGMVDXhRi5MVzGJ3C+fE8Ci7+8F7mOlAW7dy5s0XqcAz8jJFAXBeum61hs2nTJvzkJz8xn61Zs8YUlGYBZV5PIUVhw/FwDhQhbIftcbwcG2v+cE3s+Rwn2ydzW1uG1/MarhOFDcdOGcf7inNizaPbbrvN9N+dwwo0ttU2dc5/VbBK2HSHq64RAREQAREQAREQAREQAREQgX4lEC9sbB0O56sVNozQ6Kh+DSez4+hJ/PWPf4OVN07GoulTUDh4BH59vBmN7aRDGWEzNIgbSwJ482IYe6rDqKKw8QFBHzC7JICbchoxovYCzv7oR0bChCoqWmVNMIjggAEoWrIEAykjxo9HtKkJtdu348Kvf23Oj9TWtpE2yMjA0A9/GHmLliBzwgRkZ2XgZy++hl3HTmP8sEF4//J5KMrLNakmlAOsY7Njxw6TXvORj3zEiBtGS1DAcCelOXPm4I477jBRJkyPiRc2jAY5c+YM/v7v/948rDPahSlETLPiAz/FBx/kFy1aZNqhwOiKsPnTP/1TE1lCaUHJwusZuUGxwOgUig9KIkbJfOITnzAC4ac//WmHwoZ1XyghPvCBDxiRZGvYUEbZlKgFCxaYlChGl3DejAqi4GDkC4UEo1T4HkUT2+JYGRFkhQ1FGM+nsGLkzPTp0w0HjpuRK4y6oaxhNA2jlxjRwiLPlFrs96Mf/aj5/d///d9NkWiOkREr3MWKv7NvShbOn/KpPWHDOjyUOK+99ppJK2OEDsfDfhnBYyOXKMPihQ358zz2zfuEY+I9wr45P9sWhQ5lH+fH9ymx/uZv/qZb/xbw+0k5RBnFw9YCYpHw2O8SNt0Cq4tEQAREQAREQAREQAREQAREoD8JdFXYOFMrko172+ET+PQPfoH7FszCkplTUTpoGLZWhBBqJx2Kbc0oDmBUnh/7qmPpUPXhqJE1fG9MThSZe7ah6re/MRImVFXVZuvurNGjzbbMgz/4QWSUlYHRNtwtitKGu0ex+G8Fo13idpAKlpaieOVKDHzgAeSMGYMn39hhhFNJQT4+vHKhKUBMRoxQYYQNIzL4EHz77bebKBEKHEaIMGqCEoKihQ/qiYTN5MmTTYTOP//zP5tIG0alsA0KDUZHUA4wKoVigjKIR1eFDUUN5QSFEKUBd0JiJM2+ffvwjW98w4yT0oXCieP8+c9/3qGwYZQJBQNThSh/KAgYkUKJZevPMLqHc2EEyVNPPWXE0/Dhw01fjE6htHj11VdN+hOFDOXPXXfd1UbYUFxxBy6O2dbyYd+sA8OD73NOlBOUOJQz5MzoGkYl8TzueMW+KKsYBTVhwgTDltwpYfjanrBh9BHHzYgoCjSO6d577zXzYJsUR48++qhZJ841XthQIpEr50YevHe+/e1vmwghCk9G8PAaiineO7/61a/MuvO9f/zHf+zWPwW2wDNZtCds+Jn9/iolqluodZEIiIAIiIAIiIAIiIAIiIAI9B0BPuzxsOImPsKGD8f2HD5kdpQOxbYobD71/V/g3Ytm45abpmH0sKG42MiaOO3PqzTLh/ygD5VNMVkTjsaiawoDUUS2voHa9S+ieuPG2Nbdjpo1WRQJlAUrVyJn0iT4ArHaHfZovnQJdQcOmHo23GY7zOvt4fOB13PLb0bmnIwGsLe8Emcrq1sibHgqH/qZakPhQDFAecCH8oMHD5otvVnPhDVe+JDOB/NEwoZ1Yxhh8+Uvf9nIDm6BzSgNPvjzGvKlrGEkDqUBpUhXhM373vc+0y4jQDgupuLwYOQF06EYzcIIE8oHFhBmJElnhA3lCHkyrcemBdn0G0aMUEQxnYcRQ/yc/TOFjNLG2T/nzkgbCqQPfvCDJuXJRthQgDAa57Of/axhwnMY2cRxU5yQeWzr6oiRRGyLEor3J4UN6+ew1s3zzz9vBAjFzqc+9SkjT2zxZnJnJJNzl6j4lChGulBKUZ6wvg6Fz2c+8xlTA4djYoQN6xVZiRUvbJi+xlpDd999t4kg4sHILKaJUVQxfYqpcfydc2c0EqNsGPX0T//0T9364ttdsciHv3OtYnVsYhE2/CrYyDgJm24h1kUiIAIiIAIiIAIiIAIiIAIi0PcEOhY2rGUTNg98doeijkZpImy+/wvcv2g2Vtw4FSOHDsWJuogRMO0dQ3P8KMn0oaIxCv5ffsCHQjSh6fBhVPzhD6jetAlNZ85c00TR0qUou+8+kw4F84DaKmuc0qZ2xw6c+d730HDiRBvhg0AAWUOGYMCaNciaPQcX8otwtOoylk2faIoO8+BDPyNXnnjiCRMpwqgRRtnwAZ4pOIw+YVoOU4N4JBI2tobNL37xCyM1KBYoHyhRKGwoEig9KAEoQRjVk0zYUMjYor+2hg2FDQUHIzeYxkQ5wnHzYGoO6+TwlalbXRE2Vk4wvYgywx4UGBwz04UomfgZ50MpsnXrVhONQmljU3Y4n4sXLxrxw520nMKGLNgO08XsblccK9tg1BDb5Nzs1tUURpQ2bJvChlEwTEdiMWf2w+ilj3/840b+2INRM5wLd2VKlhJFccK1+MpXvmL6ppj70pe+ZFKZWOiYqU2M4mE/vM/ihQ3lFteZMo+pcTz+9V//1ZxPIcd7hEKH7Ci1vve975l1krDp6F8VfS4CIiACIiACIiACIiACIiAC1xmBzgobPpx2NsJm+5GT+B///kvcOXcG5k+fguwBw/Ar1rDpoOjwqiFBs633loowgn5gXFYIN9SX4+wPf3hNgWHnMg168EFTaDhv6lRQvsQLGxOBwC2XT5/GiUceQd3+/YhwZynnwS2/WRj2fe9Dwarb4B8xArnZWS2RCbZuC2ULI2ooDig+KAcoDvhwTgFB4WLPTVR0mKlFjHxh6gzFCqM4KAHstswcEh/ouW04o2yssGE0DqM/mEpE4cGoExb9Zb0aRuUwlYfpRKwrQznAz7leHA+L6LLf3//+92bXJkb6dEXY2Bo2jA7hnHlYgUfxYHmTCVOOvvrVrxoJQcFBycOUL0oYRtGw5k0iYcNoItan+eu//uuWLa4pe/7zP//TFF2mbKJoochi1AujhphORG6JhA3lj1PYUOz8wz/8gxFJHQkbcmPaGoUNx/63f/u3RtAxioprxX654xSjWBIJG0YwUdjwMy8IG1vDhmNRhM119g+8pisCIiACIiACIiACIiACIpC6BDoSNs5tvfnQ3Zmiwyza+7c/fwLzJozBohlTUDZ8DH52uKlDYbN8UBALBgZwqTGKgVk+BPftQP1zz6BqwwaEKisRvRotEk+bdWiYDlV6xx3ImzEDvmCwzSnh+npc2bULF/7rv1C7e3dsm+9IAnt0dctvU9Pm/R9A5oBS+K+2ZVPGGNXym9/8xjzMMxLDbhv90EMPGZnBiJNkwoYpPxQmNpWHtVSYssP3mM5DgbN7926TIvWxj33MiBv2RTlAycEoDIoWShJKFMocnm93frr//vvxzW9+00SkUC5QILENCh2Olyk3lEWMAOmKsGF7jFShAGGRZHvY7aOtsKFg4XgYUcJIG0YbsVYOBQj7ZwQMI5QSCRsyoLBhShS58mDUzRe/+EUjtSh+KKS4KxTnz35YG4bCjMLmT/7kT8x7XB/KIo7385//vEn7otShEPqXf/kXE9XCz5JF2DCNiby+8IUvmKLA7Jf1cTgXRtlQSH3nO98xn/FvrwgbuyOVlWmxVKi2RYclbFL332mNXAREQAREQAREQAREQARE4DokkLjoMGvatN3Wm2jsLlEd1bHZf+osvvqbZzBiQAmWTJ+E8eMn4YeHmnAlxESn5MeCsgAWlgXh9wGDsn2I7t+Dyuefx8W1a2OSpZ0je9w4FMyda1KjskaMQCA3Viw42txsonOqN2xA5YsvIsR2HPVv4pvMGDjQROsM/ehHEWDNnkCgzSmM9nj66afNDkJMN+KOQJQIf/mXf2nkAGVCMmHDHZQoLliUlwcLC1OeUHywngmjPyhHGAFCYUOB8dxzzxkJwSLFFD6sjcKHcUbQMLqGNWtYX4URNqzjwlQetkUpwgLIjKbh+UwpYnQQI1O6WsMmflvvZMtA6ULp9LWvfc30Q8nB1CdG2nBuZEfR1Flhw6iaz33uc0bAcI6cH1lTOrGtP/7xjyadjKlplCoURr/85S8NQ66DPZ/rRMHCrc4pgToqOsy+vvWtb5mx8lpGKXEtOG5GUzEFjkWdmYrmBWGjXaKuw3+4NWUREAEREAEREAEREAEREIH0J5BM2MSKD7dKG5LgAysFRUfC5si5cvz7s6+isbkZS6ZOwIJZN+Gnh5tMbZqmdtKiZhb7Ma8saGRNdsCHYEU5wgf24vx//RfqDx1qX9r4fAiWlaFszRoUL1+O7NGjzU5RTIPi9Sw23HzxYvIF9fuN5MmfPdsIm5JVq64pXsyLWfyWKUdWfrBuy+zZs/EXf/EXJm2GbJIJG6byUNgwVYrigNtbs0YKI2pYn4VtU06w/sq73/1uk45D+cK0IEaZUHzwPbZPYWBr4FAEUdgwyoRts04LP2cqFAUHpQZr5rANihRKHKY3Mb2IUTqsycIolIcfftgICI6LB4XQM888YwQIJQeLKjPKJ9nBqBpub/71r3/d1KphdAq3Fec9w74ZncKaP4z+Yb0dRgBRPHGXrUQRNmyD0Tpsk1KLXJgmRjHD+ZAX58ZUMe5SVVZWht/+9rcm7YrXMlKG4+a15EomnD/fb29bb4oxzp0/jMihLCMTtsPrbRFjrwgb3g/kwB8erZFP2tY7/f8F1wxFQAREQAREQAREQAREQATSlkC8sIntOMOfmLCxWwYTAOugUBp0JGzOVFRh7Rs78NbBo5g/aRzuX7EEvz8dwtHaCKqaksfY3FDgNzVsphT6cb4hioKgDyP8DbjMGiaPPYbabduu2Zb7moUJBDDkwx9Gya23IvP/pr5cfOIJXFq3zgif9g5/Tg5yJ03C4IceMjtGIch5xmp+OA8+sFOIMJKFD/KUMJQlTMvhts88kgkbygte/+STTxqpwGgN50GxYdOhKIEYaUORwmgPRqgwmoYHxRllAcUDI2dsShS3FefYGJHDwsj2oEji+bboL1OCON4VK1aYlCu3hA37o5ChgKHkYRqSPSiJeO9wfDwY/cIxUDolEzbkS2nCnZ8oruxBEUQ27IvyhiKH7TEljVKIUUmMvrEFl5mSxaLQnD/FEP9uT9hQilF+sB1n30wJZMob+VE0MYqHgovyietA7iw63Nc1bPhdbWpqRijUbO49RlRZaRNLjfK1/JCh+TtqkyHT9p82TUwEREAEREAEREAEREAEREAEUptAImFjtwm2ssaek5GRiczMjA7r2FTWXsHbh0/gV69uwZhBA/CeFYtwMpyHLZfCOFmXXNiUZfkwsziA24cF8cr5EKhKphcCA5trceWN1016FCNlOtofPHPYMBQuXIiye+5BIC8PF596ytTBaeTuUAmOYEkJ8qZPx+APfAAZY8Yg+H+3dfb7Wbz4WmHDh2Nbh4a7GLEYMKMvKE8oJHhYbkzD4ZbNPJj+RMnAg9EfjLShsKHUYP0RyjDKGooFpuSwXbbH/hgdwnYYhcM+2RfrpzBShRKHAodj4LWXL182xX0Z0UIZwjQ2CgYKGwoQ7l7F63g+f3gufzgGyidGqVBE8GBKEqUI58t2GK3Dz9s7KJh4DSNgWKCX4oPjpWShROBnPCiZ2D/nc+TIEXMe58+oH4orHhwT+2Ykjd1xilwYZcNzKWvYHwUM26NM4d8cN68hM64Fx8woJDt/ts+5UrBxLciK/bNdjol9UKzxM64PI3O4DnarccowCjQKHG7jTllk5831oCAjc46HByOEuBbsl9uNMyqLLJjaxd2+KJI4RtYb6s7BsXG8dget1m29fea76tzSm+1L2HSHsq4RAREQAREQAREQAREQAREQgT4m4BQ27DoWWWMjbGKv9r1AIIisrEzzsNneUd/UjHOV1fg/f1iPgN+P1fNmYfiIUXjxfAR7qyNJ69hkB4DJhX48MDoTr5WHcKEhgrIsP5YOCiKj/Cwuv/46Lj33HOr27r12lyfngHw+kxLF1KiSO+5A09mzpo6NqWETV7w4UFiI/BtvRMltt6F4xQpUNoXAIjoDCvJNi4miiWyBV3IiC4oVZ6qYjV3gQ7xNU+HDvvMcygM+sPOHfClRKAD4sB+fdsbP+VDPcxk1QllDScOD7fOBnNdQ+vDgwzvFDWUHz+P5lBo8l2PnwfPZJ4UJ3+eYbcqbfcDnZ/xhn3zPRli1t/Z27uybY+C1lCt2hzEKI9u/jdbieHkdx8QxxDO3rJhyRY4UHnwlXysp2BZ/OE6Omf1QnrBd9k2unCfHw/Y5F64d/2Y7PI882AbbpJShsOG57I8yh31SQrFODoUUJRFrCrFQsWVp6xrZ8XCuHEt8v2yX/XDuXF/O3RZb7uo/AbF2GhGJhM14raRxRtc4i4VL2HSVsM4XAREQAREQAREQAREQAREQgX4gkEzYJIqysQ/tNgIi2XBNhEkkiv/95PM4dqECM8eOxHuXzcfz5TBRNldCySc6Os+HB0Zl4EJjFAcvR1DVGMF7hkRRHG1EqLwc9YcPo/zxx80rt+pOevj9yCgtjW3TPW+eETyMtLm8ZQtCly4hGonAT0lCWbNqldllKtLUhJN1jfBnZWPskPYjSfphqdRlHxGgHONuWyw6TMnDqBgWh6awYTQSixdTsrAQMdPQGBVkZVkfDbFNN6FQ2EghIGqEjTMdyooaK2/shUqJ6o+VUp8iIAIiIAIiIAIiIAIiIAIi0AUCzkoWVtLwchtZ44y44fs2UqS9LmybrGPz8s4DaA6H8ffvuwfHmrOwtTJqomySHdzOe9HAAMbk+00kzpX6JoypPIXwwQNgNEzBnDmoYlHZp56K1bRp72A6SH4+Bj/4IIqXLTPXn3n0UdRy95+aGmSPGoVhDz9sXpvLy1GzdSvyFyw0tWyCwfajiLqAWKemGAFG6LAWzdq1a420sREwlCGxejFNRtIwsmbNmjUmuqajuk69hYDfNUbvUDIxjc/vj9Wraa+GDcciYdNbK6J2RUAEREAEREAEREAEREAERMAlAvHCxhlZkyjKJj61p71hHDh9Dn98cye2HDyOD61cgOHDR+BKsAAHapILm9wgMDLXDxYgzmqsR92pU2h44tdoOnYMrE3DtKWs4cNRu327qWdT8/rrHUqbnAkTULRgAUrvugtNFy4YYdN0/ryROFmjRplonar169F46hQKFy1C8fIVyJ85wyXCaibVCFDKsHaN3VmLdXcYwcLvAyNpWG+GUTesi8N6Q0aAxBWn7qs5c6wUTEytssImJmtYu6a12LAtPGzHJWHTVyukfkRABERABERABERABERABESgmwSssHG+2jQpZ3SNjbixdT46qmPD4dQ1NuL5bXvx+zd2YFBxIe6adyPGjRyJynAATeEoIlEmcbQ9Aj4gJ+DDkBwfchvr0HT0CE5985tml6dAQQHypk1D2b33mt/rjx7Fxd/9Dg3Hj7df08bvR/aYMShdvRrFS5ciXFuL0OXLyJ082exAVfXKK6h57TVEmptNetSAu+9G0cKFLQOLL75sP3DWCukmfl3WTQK2/gsFSnspehQtvHdZH6irB2vbsG4OixgzgsXW+WE9HBaQtnWEutqum+czusbWIeJ3MlH9GqesadkxSrtEubkMaksEREAEREAEREAEREAEREAEeo+AlTTx4oYPxjbShr/z4dhZULWjEe0+fhrPbN2N9Tv244Elc3Hb7KkYVFKM8oYoakNRhJIE2+RnAMX+CHJqLuHcT39qImkaz5yBz+83xYQpVRgdw2LC3Lq7/sgRRJuakg7Hx3EPGIARn/kM8mbOBP+uf+cdnPnBD1B/4ACioRCCrHnzwAMoXrUK2SNHtrTFFBg+uPPBmA//NpqCD+yMOOrP+iUd8U/Hz3k/MqKEIoU7MbUnY7hTFNdv7Nix6YjCzI0/kQi3825bcNhZt+aarb0lbNLyftCkREAEREAEREAEREAEREAE0pCAs/iwU944hY19n9LGbv3cEYorDY3Ye/IsvvHEcyjKzcGKmZNx94I52FsTwbZLYZyoS2xsSjP9mFcWwKKSKJrLL6L8F4+ZtCWmMvm5U9Dy5SheuRKF8+ah4umncenZZ3Flx46kw/Hn5pqdo0Z+5jMmtYqy5vSjj5o0KBYvzuQ21w89ZGrkZI4YAf/VLbrZIMUAt3Hmg7GtD8L3uXMQt6u22zd3xEKfu0OA9yG39OZ22RMnTjQ7QCU73njjDbNb1apVq9zp3GOtMIKIItGmQFlJYyPg7K5RVjK2vErYeGwlNRwREAEREAEREAEREAEREAERSEIgUUqUs4aNswhxbAvpbAQC/g55hiMRlFdfxrotu7Hl4DEU5GTj9rkzMHzoCBxqyMDOqjDO1McnRgHc4vumkgCWDgygNBhB8+6duPzSS6h6ab3Z5Slj0CDkz5yJAffeawQOCxBXb9iA2l27gKtbV9vBBfLykDNpEgbcdRfyZsyI1ax56SVUb9xodobKGTsWRYzaWb3atBvIzW0zrzNnzuD11183YoZbPNtUmIKCArNlNCOOWPOEKTRkY9/ng7TdMppbcnPbZl5vC8Jyu2pG7vAaptzw4Oc8jw/ejCJhuxRFTEUr5Bbk+fnmfbZNmUYZwXXiNRQX8bVK2CY/5/lsK1brxG/aYXtsg+OgAOH7fI8/HGN1dbW5jgf74fucK+fEaxjZwrlS3rFtK/d4LufBebE/nstrea7d/tpuac7xkivbsLVjnHKBW4LbLc3ZL+dpx3348GFTR4brwfbYj50br+PvmzZtMmNfvXp1y5oyjYhzY1u2YLDlz3nzh1t6c+z83W6LzuvYFq9lVBXnw3n2x2HT9BobuVV76Joiw84tveNTojhe1bDpj1VTnyIgAiIgAiIgAiIgAiIgAiLQDQLJatlYUeOs48IHwIyMTGRmZnSq2GpjcwjnKqvx5OZt2HviTKyezc0zkVcyCCdDWdhZGUZFYxSNccE2I3J9mFkcwNwBAWSEQ2jatwf1LzyLms2b0XzhgqljU7hggUmPYkRM3YEDuPjkk2g8fTq25bfPB19mphE7RYsXm/o0V/bsQeX69TFZU1eH7HHjTPHh0jvvNHVufIFrd4diWs2bb75pCs0OGjTIPOjzoCigRKioqDA/FBZ8UKaoYAoOH/grKyuNcOBngwcPxrBhw8znZHjy5ElQOrAeihUwbHP8+PEtguXChQumL57PfikorDSgoLAyhsKDBXApM+JruvA8jo+RQnbHIwobRgdxfOXl5aY/tsV2OJ6hQ4eaCBZeyzFxDmzXjp2RHZQdPJdj2rFjR4tY4rkUO3YcPJftUihx/twam9IjthU1jBBhIV9KkG3btpn+OD6+cs6USTyfB8/h2Pi6Z88eTJo0yTBnYWCOlVKFIoWsKW1shI1T2HB877zzDoYMGWLO4fVc49h9nWH6oaQjE46BY6OYIXf2wz7suDkfjtVun92Nr163LuFaUdaEQrF1s7VrYpE2bQsO2/unzasibLrFXReJgAiIgAiIgAiIgAiIgAiIQJ8TiE+J4gDid4yidIgVIob5L/p8CGfdjM4eO46exLNv78GG3e9g1rhRRtqMGTESR+uATeVhnGuIojnSWog46AMGZvvwvjEZ8MOHQCSE4vpqlD/6PdS++abZ8YmDYZQNCwqz7syldetw6ZlnTCFi+P1mR6nBDz2E/NmzTWTOqW99y6RDRRobEcjJwZCPf9zIHEbZJDv4MM8IGz60UwbYmjV8WGckxsGDB81DO4UEIz2OHDmCefPmGYHBB/9z585h2rRpRuI4o2C2bNmCjRs3mi2iKRgoHA4cOIB7773XXHPixAkjLCiJKFUob+bMmWPOozjg3zNmzDBROpQflA9si5KB68SD63T8+HHs27fPCBS2ZSNfRo8ejb179xqZw/FRZHC8fOC/9dZb8eKLL5r5cJ5sm21QQvE6iiGOgefeeeedePLJJ818KVPIaefOnUZScc5kQ4aMyFm0aBGeffZZM0YKE55z7NgxjBw50vw8/vjjJtVswoQJRpRQrLBPXsvzKW/IivN65plnsHLlStM+x4wQexQAACAASURBVE2BxLmQBdufNWuWEUnxETZs45VXXjFijJKLkobjtdKFfClrOA/KJFvYmOtB2TRz5kwzHyvhmJbV13WMuL62ELIz7clG1rRXv8aIGwmbzv6zpfNEQAREQAREQAREQAREQAREoP8JJKtjk2h7b46WD8U24qIzo79c34A9x0/jxR37sO/kOYwZXIaFUydg7uQJONvow76aKPZXR1DZFDW7R1EF5QSB2aUBzCkNIMcPnLvchJHnDqHuD0+h5tVX0VxRgQymKi1fbtKaKGgqn3sOl7dsQaiqCoM++EHkTppkInLKf/MbXNm1y+wQlTl4sEmRYh2crJEjjbzpSNjYVCeKAR4UDBQFjJJZsGCBebinDKCA4AM8IzH4UM8HagoISg8bwcH3GE3C2jh33HGHkQMUIG+99ZaRJWyTMmjp0qUtIoKSwKZT2eLHbJeCgdEzjEKZOnWqiZqxESMUMRQ7FB9Lliwx4oMP87aQMgUE/6b44VgZVUPpwflQJlHKURJx3K9xJ61IBPPnzzfrzrFT6FAwUdgw2obt8FzKHr4uXLjQnMsIJUoQtkvRYuUR762jR4+a6CXO5amnnsLcuXNN5Az5Pf/880YQ8TPLlPyZgrVu3TojbMiV7Dh/yhlGPXFOnO+uXbu6JGw4Ll7P6CeuJ2UVBRIFGlmxX0opK3XIk3OyUVed+R709ByuAdlwDZ3RNTHh5DOpitds481oM8fW4xI2PV0FXS8CIiACIiACIiACIiACIiACfUjApkWxS7ult/N3Z1qUTa3pyo5RbKuy9goOnDqHV/ccxLELFcjLysKsG0Zh4qgRCOQVoyKSgTN1UZyrj6CiKYqGMFCS6cPSQQGMyQsgFIkiM9SEjL3bEXl9Iy499xzCFDBMTZk1y6RHIRIxIofCpmDePLMLVPXmzah+5RWEmQbF1KFFi1B2zz3IHD68XVnDMVN+MLWGD+6MkLEFl/lAz+gaypDbb7/dPODzgZ4CwsoaChY+1FNIMBLEeTD6gz/33XefiVihJKAUWb58uYm0YVv33HOPkTSMsGGEB6NN7E5dlAQ33HCDibDhGPkze/Zs8yDPa/mAzrQnCiS2x7ZiUVF+I08om/hDEcLruL7bt2837TAShvVfKEMoPngwKoUHx8eDQodSieOnsCGfm2++2Xz29NNPm3Ypn+y1jAih3OBnlF9MpeJB0cLIH0qrtWvXGknFSCHKIAocSicrgiw/jpHCxgotyhTyJ3dKM4objnP37t0Jhc2GDRsMO0o33sOct60/xLHZlChb04ZsOB5G75CplZs2hc1KvN7+urJfK2ustGuNqgkwC9Csr5UzzlQtCZveXh21LwIiIAIiIAIiIAIiIAIiIAK9RCC+jg27seImUQFifs4HVT7wdqWGR2NzMw6evoCXdu3HjqOnUN/YhMVTxmPm2BEYXDYATYFsnGkK4mwDcLEhgoYIcEOBH9OLAhib78fZ+iiKoo3IOXkEFx5/3BQcbi4vNzVtWKem5I47zI5QFDcsMFz+29+aiJtwbS0ymbKzYgVK77gDeVOndook5QAjXxi9YmuW2AuZJsSf6dOnG2FA+UDx4qxL056wYSrOmjVrWoTN5s2bsWzZMpPGRElDUWGL+jKKxkoJW9OG0oHRHhQWHCcjWniO82DUDH/YFqURJQSjafjgz34obyhF+B4FFGUHJQ2lBtuywoZ/8+D4OhI2lCm8N6yw4bWUTTYliuNg5Iytc2OL91LQLF682Agbiqj169eb1CiKFQoqjpGv5Mw+KIDYLtPQmKrE+5QSicIqmbCheGHEj62dw3GyHg7HRHHEIshsn+0w2oiv5ExOvJbyjfc773tbeNjuytSpG6oHJ/H7aLfytqlQ8WlQTmHDruJ3iDLvKSWqB6ugS0VABERABERABERABERABESgjwm0J2yc8sa5YxQfVPng2p0IA+4e9ebBo/jtprdxqvwSBhYV4OaJY7F8+kTcMHSgSbm6Eori5JWoibYpzvBhalEAAUYR+ABfqNlImBOPPILLb7yB0NXCtIPe+14ULVuGjNJSnPjKV1B38KApMOxn3ZSPfMQUGc6ZMKHTdBltwQd8ChtGkVDA2IOpMoxesfVmyMZuI81oDKYn8Xxby8XZKWUNU3aYUsQHf4oeK2x4LWWKLUrMh3Qe3J6aKU78nOKC8sAKG47TpmY5+6H4OXTokJE2zqLEFCNsnz8coy0kTCnFNCimNXFcPI9HImFDoUHhRNHC62yEDWUKI2yYsmSv5RwoUThHzoHyheNhChL5kC0jbNgfU6J4PhmQLzkyuokShzKHQoy1cCiA+B5ZMvKFv/M6zodiiSKG68E6O/bgPMmD86bssSlWHAPb5XuM0rHMeR0jkLjW7IdSh+tM/pwza+H0VQ0bK2vYv02PiwmatoWGE+0WpgibTn/ldaIIiIAIiIAIiIAIiIAIiIAIeJNA/Bbf8bLGRttEIqw0EzVREnzo7WqUAXePYorU6YtV2HbkBA6cPo+KmlrkZGVgaEkRRpSVYsiAEpQUFaEgLw+leTkYmJdpatuYUsfRCCLNIVzZvt0UG656dQPCNTUmzSlr2DATcVP79tsI8T2m3CxfjtK77jIpUYG49KT2VoJChIKBD/MUAc5dmPhwz6gLPuAzYoUPz2TBArl8uKaMsJEYtn6N7Yuyg5EgjDThNZQNlAKUAGTMv3kOfydbCgIW3GVqEfuy7fJ3u0U4+42XZxwDpYXdeptjtMWMeR1lCM/hwWgeRp4w4oURO+yDbfKgEOLB8fHgWDl/pjYx7cq2yc8osDhmShh7LSUDr+U4bHoRP7PbnbNvtsP+2L8trGtTnMiB46G44RwZVcRzGflCKWV3ebIRJrYvfs7iwvawW5nzGrsVO9u2BaX5O5lw/WyaFMfDuTLahrxthBNTxvpilyibjsgx2bpIzsgaG+Fmo24410SRNZaBImy8+W+vRiUCIiACIiACIiACIiACIiAC7RJIJGxszY5YdE0UUcoS83uk5UGZD9FdSY3iIGLtAscuXMQ7p8/j4JnzOFNRhdqGRtNuXlYmSvLzUJSbjbycbORkMv0qpmyikSiaw2GUZQUx+MxJ5O/egeoNG0xRYR+jDjIzEeG21KNHo+Dmm42syRk/vsOaNfFwbPoQH97j0014rk1ToRjg54wM4qvl07rlctsdtWydG3LjXNkP27Ac+Tcf0Pke5Ydtl+87i81yDHYHLzvG+DlwLGyH7bEvtmUFG99n1An/Zt9W+NhzrWiyESf2c7sVOP/mZ5ynlVnx1zrP5diszOK4KWqcffB3p/yzNVt4DcfNzzkH/u28jvLFzovz5WeWVaIIMM7ZuRW7c7cluxW7rUFk71WOhdfxXLbJ/nr7sILUyhq79ol2h+qodo2ETW+vltoXAREQAREQAREQAREQAREQgV4mEJ8e1VrDJiYoGFnDV/tAzAdFpoU4d0Hq6hDDTCeqb8DR8xex9/gZHDp7AWcvVRt50xQKGUHD0JoAd8PxmQAbNIdDmDZ6OFZNHodZWT5c+NnPULd7N5ovXTLdB4uLY7tB3XIL8m+8satD0vki0O8ErGyzUVDxqVAxcRPbBSo+qsaZBuWciCJs+n1ZNQAREAEREAEREAEREAEREAER6B6B+B2j2IqNsnFG2ziLEVtp05Wtvp2jM21Fo2gOhY2gYcpUfVMTzldeRnl1Daqu1KGuscm8z2SsoN+PrMwMDCoqwLjBZRien4PA+XM4+8Mf4vLWrSZtasC73mWKEOdOnGhq2OgQgVQiwO+ErVvDcTujahL9bs+xc5SwSaXV1lhFQAREQAREQAREQAREQAREoBMEulKA2EobNmt3z7FpK53oKukpVuBQ0tQ3NYO7S4VCYTASh8LG7/MjEPAjKyNoUqdyMoLwh0K4/OabqNu/32zrXbp6NbLHjkWwoKAnQ9G1ItCnBOz3z6bE2b+d6XU2Pc9G1thXntte/RojdbRLVJ+upzoTAREQAREQAREQAREQAREQAVcJOKNsbFQNO3BG1cRv+x2TNqyFEqtD0tWaNm5MgDVsQhUVRtjkTpkCf1aWG82qDRHoMwL8XrFeDmv/xFIQYzLUKWmc9ZSc37OOZI2ETZ8tozoSAREQAREQAREQAREQAREQgd4lEC9r2kobCpxY8WFnpI0tyupGpE3vzk6ti4C3CFhZw5o1NlomUYFhp7BJVL+mvVkpwsZba67RiIAIiIAIiIAIiIAIiIAIiEC3CCTaNYoNte4YFdve2ylt7FbUrGdDadMfkTbdmqwuEoF+JGB3JLORNclq1sTvViZh04+Lpq5FQAREQAREQAREQAREQAREoL8IJNoximNpLT7MrbmvlTY8hw+WTI2iuLG72/TXPNSvCHiVAL8/dlt3585rzvo0VtK0J2s4v2SFhp1zV4SNV+8EjUsEREAEREAEREAEREAEREAEukggkbRxvhfhltuOKBs2byNu+DuFDX+cdTi6OASdLgJpSYCCxkbWsG6NFZ3xNWpstI1TynR2G+94cBI2aXkraVIiIAIiIAIiIAIiIAIiIALXIwFnAWLO37nFd/zfzs+caVJ2B6nMzEylSF2PN5HmfA0BG1VjU6ASFRWO3wWqvfSnzkTXGOGjXaJ0N4qACIiACIiACIiACIiACIhAehFItHNUfI0bp7BpTZuK7XTDQ2lS6XVPaDZdI2DTnxhNwx/ndyq+Zo2VM7YGlDOiJl7OdFbWSNh0bb10tgiIgAiIgAiIgAiIgAiIgAikDIH2atpwEs6tvvm3cxtwe619MLVbf9v6Nl156EwZYBrodU/Afgf43WBUjX117gLllDWAD36/r0VwOr8X3U2Dci6CImyu+1tSAERABERABERABERABERABNKVQLy0sWLGviaKsnEWKWa9G9Yp9vlaI26svGEbzjSQdGWoeaUngUS7qllBYyNqrKihmImJmthr7Md/9TXGJz66xn4/nK9dJSlh01ViOl8EREAEREAEREAEREAEREAEUoRAopo2yaQN308UdRMTOOaqq2khsQdXPqA6CxRrS/AUuSk0TEPAmfJkf7f3f6uQaZWSVrw4iwzHC8v4qBqLursRaRI2ullFQAREQAREQAREQAREQAREIM0JxNe0sdPtTFHimMiJ7S4VX8fDPsTGIhBatyp2ypvuPqym+ZJoen1EID7KzLkrWqIINHtPxxcNthLHpkDFf+5Mm+qpqGm5XkWH++guUTciIAIiIAIiIAIiIAIiIAIi0I8EnA+nfNi0ssYpb/h7rI5HTNDEZE1rIWL7e+L6OLFaHhQ3PCht4iN8+nH66vo6JtCa2uS8n2OS0Qoa52u8cIzfAcqea79H9nNnP26ISkXYXMc3raYuAiIgAiIgAiIgAiIgAiJwfRGIj7SxD5xW1FwbjdAqbpzROLzOKXKcaVO2LftQK2lzfd1jXput8x5vlShtI8LipY0zesYWFo4XMM6aNU5R42yrpywkbHpKUNeLgAiIgAiIgAiIgAiIgAiIQIoQSCZPkhUntrVrnEInXvrYh1UrdOyDrURNitwU18kwnfdlfERMW5HTVuYkqkuTrFaNRelGdI0RP0qJuk7uTk1TBERABERABERABERABERABBwEOoq2sac6U6eulTWxFKj49CqBFgEvEkgsUpyCpjVNygiTqztCJRMxzvbckjRObhI2XryLNCYREAEREAEREAEREAEREAER6EMCySJsnNImcd2bljM6Va9GUTd9uKjXeVftCZTWaBsrZVphJYq+cRYUdrtOTXvLJGFznd/Emr4IiIAIiIAIiIAIiIAIiIAIkEB89IyTSkefxdfCaZ9orOCxDhHoDQK2kHB82/ECx1kw2HluogLC9vOOUqHcno+EjdtE1Z4IiIAIiIAIiIAIiIAIiIAIpCiBztS4ia9R44w4iL8+vhhrimLRsFOYQKJ7ML6eDaeXSOhYkZnss97GImHT24TVvgiIgAiIgAiIgAiIgAiIgAikIIH2omASRdw4o2zsdBVJk4ILn2ZDTpQalXjnqGuljRNFb9So6Qi1hE1HhPS5CIiACIiACIiACIiACIiACIjANWlMThkjWaMbxMsEOpI2HHt/RdG0x03Cxst3lcYmAiIgAiIgAiIgAiIgAiIgAh4h0J1ome5c45HpahhpQqC7kTHdvc5NbBI2btJUWyIgAiIgAiIgAiIgAiIgAiJwHRKQmLkOFz0NpuwFKdMeRgmbNLjJNAUREAEREAEREAEREAEREAEREAEREIH0IiBhk17rqdmIgAiIgAiIgAiIgAiIgAiIgAiIgAikAQEJmzRYRE1BBERABERABERABERABERABERABEQgvQhI2KTXemo2IiACIiACIiACIiACIiACIiACIiACaUBAwiYNFlFTEAEREAEREAEREAEREAEREAEREAERSC8CEjbptZ6ajQiIgAiIgAiIgAiIgAiIgAiIgAiIQBoQkLBJg0XUFERABERABERABERABERABERABERABNKLgIRNeq2nZiMCIiACIiACIiACIiACIiACIiACIpAGBCRs0mARNQUREAEREAEREAEREAEREAEREAEREIH0IiBhk17rqdmIgAiIgAiIgAiIgAiIgAiIgAiIgAikAQEJmzRYRE1BBERABERABERABERABERABERABEQgvQhI2KTXemo2IiACIiACIiACIiACIiACIiACIiACaUBAwiYNFlFTEAEREAEREAEREAEREAEREAEREAERSC8CEjbptZ6ajQiIgAiIgAiIgAiIgAiIgAiIgAiIQBoQkLBJg0XUFERABERABERABERABERABERABERABNKLgIRNeq2nZiMCIiACIiACIiACIiACIiACIiACIpAGBCRs0mARNQUREAEREAEREAEREAEREAEREAEREIH0IiBhk17rqdmIgAiIgAiIgAiIgAiIgAiIgAiIgAikAQEJmzRYRE1BBERABERABERABERABERABERABEQgvQhI2KTXemo2IiACIiACIiACIiACIiACIiACIiACaUBAwiYNFlFTEAEREAEREAEREAEREAEREAEREAERSC8CEjbptZ4ts7llxWK8/MpraTq73p/WJx/+c3znu9/v/Y7UgwiIgAiIgAiIgAiIgAiIgAiIgAgkICBhk6a3hc/nQ7T6V2k6u96d1tZtR/DfPvMYtmzd0bsdqXUREAEREAEREAEREAEREAEREAERSEJAwiZNbw0Jm+4vrIRN99npShEQAREQAREQAREQAREQAREQAXcISNi4w9FzrUjYdH9JJGy6z05XioAIiIAIiIAIiIAIiIAIiIAIuENAwsYdjp5rRcKm+0siYdN9drpSBERABERABERABERABERABETAHQISNu5w9FwrEjbdXxIJm+6z05UiIAIiIAIiIAIiIAIiIAIiIALuEJCwcYej51qRsOn+kkjYdJ+drhQBERABERABERABERABERABEXCHgISNOxw914qETfeXRMKm++x0pQiIgAiIgAiIgAiIgAiIgAiIgDsEJGzc4ei5ViRsur8kEjbdZ6crRUAEREAEREAEREAEREAEREAE3CEgYeMOR8+1ImHT/SWRsOk+O10pAiIgAiIgAiIgAiIgAiIgAiLgDgEJG3c4eq4VCZvuL4mETffZ6UoREAEREAEREAEREAEREAEREAF3CEjYuMPRc61I2HR/SSRsus9OV4qACIiACMQI3LJ0GV7e+Kpw9DKBT37iL/Cdf/teL/ei5kVABERABESgfwhI2PQP917vVcKm+4glbLrPTleKgAiIgAjECJj/HX59p3D0IoGt+/fiv/3vr2DLtm292IuaFgEREAEREIH+IyBh03/se7VnCZvu45Ww6T47XSkCIiACIiBh01f3gIRNX5FWPyIgAiIgAv1FQMKmv8j3cr8SNt0HLGHTfXa6UgREQAREQMKmr+4BCZu+Iq1+REAEREAE+ouAhE1/ke/lfiVsug9Ywqb77HSlCIiACIiAhE1f3QMSNn1FWv2IgAiIgAj0FwEJm/4i38v9Sth0H7CETffZ6UoREAEREAEJm766ByRs+oq0+hEBERABEegvAhI2/UW+l/uVsOk+YAmb7rPTlSIgAiIgAhI2fXUPSNj0FWn1IwIiIAIi0F8EJGz6i3wv9yth033AEjbdZ6crRUAEREAEJGz66h6QsOkr0upHBERABESgvwhI2PQX+V7uV8Km+4AlbLrPTleKgAiIgAhI2PTVPSBh01ek1Y8IiIAIiEB/EZCw6S/yvdwvhY0OERABERABEegKgRXLF+Gllzd15RKdm4SA+Q8nr+8Un14kIGHTi3DVtAiIgAiIgCcISNh4YhncH4QibNxnqhZFQAREIN0J+Ir+FNFoNN2n2Sfzk7DpfcwSNr3PWD2IgAiIgAj0LwEJm/7l32u9S9j0Glo1LAIiIAJpS0DCxr2llbBxj2WyliRsep+xehABERABEehfAhI2/cu/13qXsOk1tGpYBERABNKWgISNe0srYeMeSwmb3mepHkRABERABLxJQMLGm+vS41FJ2PQYoRroJwK1tQ24+71fwSsb95oRjBpZhtdf+DKGDinp9oi++s0nsffAafzs0Ye71MaHP/F/MHXScDz8/9xpxvQ/Pnk37lk9t0tt6GQRSCUCEjburZaEjXssJWx6n6V6EAEREAER8CYBCRtvrkuPRyVh02OEaqAfCFhZM3rkwBa58vt1W/DJz/64R9JGwqYfFlNdpiQBCRv3lk3Cxj2WEja9z1I9iIAIiIAIeJOAhI0316XHo5Kw6TFCNdAPBJLJGRvp8jd/dR/iI3DWPv7XJuqF1/7dl39pRr1j13Hk5mZhw9Nfwplzl3Dvg18z7z/0vuV4z5r5ePh//ggVl2px8+wb8Idf/i+89OrulnOWL5lq3svPz0ayCBv2ZduMP3/7rmPYufs4vvLF94Pj1SECqURAwsa91ZKwcY+lhE3vs1QPIiACIiAC3iQgYePNdenxqCRseoxQDfQDAQoSHu2lLvGc4yfLW0TLgx/9VhsxQ4Fzy9LpJoXJRuo4I2woW+w1c2aNw9ZtR7Dsrn/A4z/+9DXXJRI2w4aU4v4PPoIn/vOzmDRhWJt+nGOj8NEhAqlGQMLGvRWTsHGPpYRN77NUDyIgAiIgAt4kIGHjzXXp8agkbHqMUA30AwFnJE2i7m10ja0lY/9eveomTJ08ok3qlFPSxAsbZ4oVBc7Xv/uHlqgaZ5TP//riY9fUsNm7/xTWvbC9zfn2ekbudCSc+gGruhSBThOQsOk0qg5PlLDpEFGPT9AuUT1GqAZEQAREQAQ8TkDCxuML1N3hSdh0l5yu608CHUXYnD1XiQWrvoDvPvLRluK/VvJQ2DjFS3vCJv48p4BhxM3H/vLfsO43n0cyYcP3nYctjGzPVypUf95F6rsnBCRsekKv7bUSNu6xTNaShE3vM1YPIiACIiAC/UtAwqZ/+fda7xI2vYZWDfcigWQ1bChfeMTv1hQfYdMdYdOdCJtkO051FCHUi+jUtAi4QkDCxhWMphEJG/dYStj0Pkv1IAIiIAIi4E0CEjbeXJcej0rCpscI1UA/EEi2S5Sz5kx7NWy6I2x6UsOGNXCc42FKFLcBV4RNP9w86tIVAhI2rmBsETbutaaWREAEREAERCB1CKxYshQvvbohdQbs4ZFK2Hh4cXoyNAmbntDTtf1JIH4XKLvbE+UIj/Z2iUombOyuTnaXKOd5bLO9XZ8oYOIje5zn23SooUNKWnaVkrDpzztIffeEgIRNT+i1vVYRNu6xVEsiIAIiIAKpRcC3YCai0WhqDdqjo5Ww8ejC9HRYEjY9JajrRUAEROD6IyBh496aS9i4x1ItiYAIiIAIpBYBCRv31kvCxj2WnmpJwsZTy6HBiIAIiEBKEJCwcW+ZJGzcY6mWREAEREAEUouAhI176yVh4x5LT7UkYeOp5dBgREAERCAlCEjYuLdMEjbusVRLInD2YjkWfPyDOHHubBsYax/5Nu5ZugLcMWzZJz6Cuob6a2B95eH/jr/50EfN+79/9WXc+9lPtZzj/EyURUAE3CMgYeMiy6iSy9yj6aGWJGw8tBgaigiIgAikCAEJG/cWSsLGPZZqSQSssPnu//icETQ8rKR5/P/7ast7fP+rP/8x1m3eiD/863eRn5vbAo/vf++3v8TrP/xPDC0biNq6Otz9Pz+J0UOG4md//2VBFgERcJGAhI17MBVh4x5LT7UkYeOp5dBgREAERCAlCEjYuLdMEjbusVRLIpBI2CSTM4mEDa9f/Vf/L370hS9hzuSpLUCTvS/iIiACPSMgYdMzfs6rJWzcY+mpliRsPLUcGowIiIAIpAQBCRv3lknCxj2WakkEkgkbRtl87Mv/gHXf/J6JmkkmcZgK9fVf/Mc1UTc2ymb1wiUtaVOiLQIi0HMCEjY9Z2hbkLBxj6WnWpKw8dRyaDAiIAIikBIEJGzcWyYJG/dYqiUR6C1hQ7If/scvYOrYGyRsdJuJgIsEJGzcgylh4x5LT7UkYeOp5dBgREAERCAlCEjYuLdMEjbusVRLIpBM2DBy5pNf/5eWujQklSglKlmEjYSN7i0R6B0CEjbucZWwcY+lp1qSsPHUcmgwIiACIpASBCRs3FsmCRv3WKolEVANG90DIpBaBCRs3FsvCRv3WHqqJQkbTy2HBiMCIiACKUFAwsa9ZZKwcY+lWhIB7RKle0AEUouAhI176yVh4x5LT7UkYeOp5dBgREAERCAlCEjYuLdMEjbusVRLImCFzYlzZ9vAWPvIt9ts6c0Pk23rzc+YGnXvZz/V0sZXHv7vql2j20sEeoGAhI17UCVs3GPpqZYkbDy1HBqMCIiACKQEAQkb95ZJwsY9lmpJBERABEQgtQhI2Li3XhI27rH0VEsSNp5aDg1GBERABFKCgISNe8skYeMeS7UkAiIgAiKQWgQkbNxbLwkb91h6qiUJG08thwYjfmO6cQAAIABJREFUAiIgAilBQMLGvWWSsHGPpVoSAREQARFILQISNu6tl4SNeyw91ZKEjaeWQ4MRAREQgZQgIGHj3jJJ2LjHUi2JgAiIgAikFgEJG/fWS8LGPZaeaknCxlPLocGIgAiIQEoQkLBxb5kkbNxjqZZEQAREQARSi4CEjXvrJWHjHktPtSRh46nl0GBEQAREICUISNi4t0wSNu6xVEsiIAIiIAKpRUDCxr31krBxj6WnWpKw8dRyaDAiIAIikBIEJGzcWyYJG/dYqiUREAEREIHUIiBh4956Sdi4x9JTLUnYeGo5NBgREAERSAkCEjbuLZOEjXss1ZIIiIAIiEBqEZCwcW+9JGzcY+mpliRsPLUcGowIiIAIpAQBCRv3lknCxj2WakkEREAERCC1CEjYuLdeEjbusfRUSxI2nloODUYEREAEUoKAhI17yyRh4x5LtSQCIiACIpBaBCRs3FsvCRv3WHqqJQkbTy2HBiMCIiACKUFAwsa9ZZKwcY+lWhIBERABEUgtAhI27q2XhI17LD3VkoSNp5ZDgxEBERCBlCAgYePeMknYuMdSLYmACIiACKQWAQkb99ZLwsY9lp5qScLGU8uhwYiACIhAShCQsHFvmSRs3GOplkRABERABFKLgISNe+slYeMeS0+1JGHjqeXQYERABEQgJQhI2Li3TBI27rFUSyIgAiIgAqlFQMLGvfWSsHGPpadakrDx1HJoMCIgAiKQEgQkbNxbJgkb91iqJREQAREQgdQiIGHj3npJ2LjH0lMtSdh4ajk0GBEQARFICQISNu4tk4SNeyzVkgiIgAiIQGoRkLBxb70kbNxj6amWJGw8tRwajAiIgAikBAEJG/eWScLGPZZqSQREQAREILUISNi4t14SNu6x9FRLEjaeWg4NRgREQARSgoCEjXvLJGHjHku1JAIiIAIikFoEJGzcWy8JG/dYeqolCRtPLYcGIwIiIAIpQUDCxr1lkrBxj6VaEgEREAERSC0CEjburZeEjXssPdWShI2nlkODEQEREIGUICBh494ySdi4x1ItiYAIiIAIpBYBCRv31kvCxj2WnmpJwsZTy6HBiIAIiEBKEJCwcW+ZJGzcY6mWREAEREAEUouAhI176yVh4x5LT7UkYeOp5dBgREAERCAlCEjYuLdMEjbusVRLIiACIiACqUVAwsa99ZKwcY+lp1qSsPHUcmgwIiACIpASBCRs3FsmCRv3WKolERABERCB1CIgYePeeknYuMfSUy1J2HhqOTQYERABEUgJAhI27i2ThI17LNWSCIiACIhAahGQsHFvvSRs3GPpqZYkbDy1HBqMCIiACKQEAQkb95ZJwsY9lmpJBERABEQgtQhI2Li3XhI27rH0VEsSNp5aDg1GBERABFKCgISNe8skYeMeS7UkAiIgAiKQWgQkbNxbLwkb91h6qiUJG08thwYjAiIgAilBQMLGvWWSsHGPpVoSAREQARFILQISNu6tl4SNeyw91ZKEjaeWQ4MRAREQgZQgIGHj3jJJ2LjHUi2JgAiIgAikFgEJG/fWS8LGPZaeaknCxlPLocGIgAiIQEoQkLBxb5kkbNxjqZZEQAREQARSi4CEjXvrJWHjHktPtSRh46nl0GBEQAREICUISNi4t0wSNu6xVEsiIAIiIAKpRUDCxr31krBxj6WnWpKw8dRyaDAiIAIikBIEJGzcWyYJG/dYqiUREAEREIHUIiBh4956Sdi4x9JTLUnYeGo5NBgREAERSAkCEjbuLZOEjXss1ZIIiIAIiEBqEZCwcW+9JGzcY+mpliRsPLUcGowIiIAIpAQBCRv3lknCxj2Wask9ApFIBKFQyL0G1ZIrBILBIPx+vyttqRER8AIBCRv3VkHCxj2WnmrJi8KmZNSfoaq6zlOcNJjeIRAM+NF86fHeaTzFWtV9n2IL1oPhpsN9L2HTgxsg7tLeEDYlqxajqvaye4NUS31CIBgIoHnTtj7pq6NOim9dhOortR2dps/7mEDA70fDhi2guHH70L8bbhNNzfb6+t8hCRv37hMJG/dYeqolLwob8yBQ/StPcdJgeocA15qH1hvQfd8795gXW02H+17Cxr07qzeEjfl/gF/f6d4g1VKfEOC6mf9N9MDa6R7qkyXvcif2Hql/+U1kZ2d3+fr2LtCau4ozZRvr63+HJGzcu1UkbNxj6amWJGw8tRzX3WCspJCskLC5nm7+dLjvJWzcu2MlbNxjmeot2QdmLzw4e2EMqb6evTF+5z3itrTRmvfGiqVem33975CEjXv3iISNeyw91ZKEjaeW47objFPUXO/S5nqf//V086fDfS9h494dK2HjHstUb8n5wNzfD8/93X+qr2VvjT/+HnFT2mjNe2vVUqvdvv53SMLGvftDwsY9lp5qScLm/2fvXsDnq+p68S9EyxRvJzGx1Mo6Kqn/lDpiAuIJ60h6/hpikpYX1FSUTAVFhFBEJPByUEANzAsKoojlBU28cUm84C1FzSwvBXgwBUEOWB3Os0b21/2d38x3ZvZ8Zmat2a/f85zn4G/2/uy1X5+1h/abtfcU1Y7eDWY4pOhzaNHnc+/bxF+HeS+wiZu1Aps4y9orDd8wr/IGepXHrr2Pixz/qDkSFdro+SI7V0/tZX8PCWzi5obAJs6yqEoCm6La0bvBjAop+hpc9PW8ezfp0+jH32rrv8AmbuYKbOIsa6806oZ5VTfRqzpu7T1c9PjHzZGI0EbPF929Ouov+3tIYBM3LwQ2cZZFVRLYFNWO3g1m3E1qbTevEY3r4zlHuNVYYx3mvcAmbuYJbOIsa6807oZ5FTfSqzhm7f1bxvi3miPzhjZ6vowOln+MZX8PCWzi5oTAJs6yqEoCm6La0bvBbBVS9C3A6Nv59m6yt054Hea9wCZuBgts4ixrr7TVDfOyb6aXfbzae7es8U+aI/OENnq+rC6WfZxJcyz6V+wENnHzQWATZ1lUJYFNUe3o3WAmhRSTPl8nsD6d6zr1rcu5TOr1pM+7HDN6H4FNnKjAJs6y9kqTbpgnfR55/ss8VuS4173WpL7kz7uGNpNqr7ut8/uxwKR5MOnzWR0FNrOKjd9eYBNnWVSlGgKbd5/96fQ/H/UXG24vPeIP03P/7GErdbzos/+U9n/GSensdzw/XXLp9zf+eafb3yZ8XNHnf+ll308PfsRL0imvemra5d6/PPV42+f86c9+Pb3s1e9J73nb89IOO9x06hrDG05zYzrNNp0HUNCOzXl27c+sp9Lup3k7q958208zp6fZZr5RzLe3wGY+v/beywhs3n3eR9P/POjAn/x79IBnpuf+0RPiTqJDpYu+cnHa/6g/T2e/4sR0yXcv3/jnnW67Y4dqo3e59LuXp12f+Jj0rcsu3bTB3xx7fHro7numq6+5Jj3kOU9PH/vMp7cp8ID7/EZ6z3GvTjvc7GZpWX7T3AhNs00EYHOcbPjgP3taOuXQF6Zd7rZzROmRNdrzoc9zYBLwNP3vGtq0ez7qumlfE+PG2VxTz97vjwfX2Lg/Xfudr8WXnfamjWtzVP1ce4+nPD795s6/tmm7ZmyfuvhL6dzX/NVM8/mYN78+nf3x8ycet/lO+/SXvzRxnJN63Xy+7O+xaedY1Eobgc20M2HydgKbyUZVblF6YJPDikc94X+lc9/3wkG4cPXV16aH/MFL04P3+vWVhjaLvtltJtMizr9rILCqwCZblH7zGnHxLzuwiRjzuBrrPm/ntZt2Pk+73bzj6bK/wKaL2uh9Fh3Y5BucRx323I0blOam5cH3222loU3XG7ZZ5JsbnVc/+5CNm8fmZu70I4/ZdEOZ//7hz31mOuuYV266kcs3aiee+bZ04cmnphwkNH53vv1O6Y2HHzXLcCZuO82N0uDfibveK0XdLI0b1LIDm4k4HTeobQ5MOs1pe98ltBkObNrXzbTfG4sObCb55M+ba/k2t7hlev0LXrRxPee/f8KLD0/fv+oH21znk+qWENgs63tsljkW8T0ksJk0+6b/XGAzvVVVW5Yc2IwLZ4bDkvYKlAfstvNg1Uf+k4Od3Xa9W3rFie9N11xzXcorcy7+6r+mN532sXSnO942XXjOUekWO/zMyO2aFTz5WHvs/eeD/Zt9cu1d9zo0fevb3x383ete+eT03CPeMlhtk1cqtPdpxpNXoRzzinel5x3x1sHYbnazn94mhPrY+RcPPvub0w9OD33wb4wNp2Y5/zvfccfB+eY/f7zfA9IJx+0/ON98rGYMx7/27PS5v/9G+sIXvzkwyuf+2KecsLFf83dbBTbjtn/4Y44dHDvPs+w9vJJjlhvSWbat6iK8YbCjApu7/uodBv0a7uMbX3PAYK+2e+5v8/c5lGvP0WyfV4K1+1HzvH3/mc9Phx31tvT9K344mLf5mnng7vfYmNvt62jcvG2+I4avu7z9pHk77/yaZS7Psu2845plf4HNLFpbb7vIwGbcTdZwWNJeQdL8V/TBNfKcp6fd7nXv9IrTT03XXPt/0ksPeGa6+J+/nt70vnenO91+p0GIcYub3Xzkds0KniYgyfs3+wz+PXrDypf8d6973uHpuSe8crDaJoci7X3a/1U/3zQ974RX/vjfozf9mW1CqGalTLOCZtTNet531M3XqMBm3OqSRa06mfZGafDv1QWHNqMCm7ve6RcHvc5hVZ4Dg//bYu+HbgRXj33RoSP/vr1CoJkDeVVVDsia/xvBHJjuO2WWvs8a2mwV2DTXTb7+m6Byq++NZoXN8Oq0fG3+xt1/bdP1n79H8nzIq2La3xP5uyDvf8BxL0n/duWVgxUzT/v9P0gnvvNtg5UuzXfU8HXffL/t/uv3Sb9wu5/bCKbzdf8v//s76bzPfWZjxdio76dmhVcz9vxd86D/tmu64uqrBse96pofblq511wD7e/VZoXNrXe4Rfrrcz+y8d3XDn2bcbe/40ZdQ8v+Hpt1js0b2ghsprv2p9lKYDONUoXblBzYNDdOZ5160NhHd5pw5PTX/+nGDVu+uW2CidySHOB85LwvDh6ryuHDAU/6HxurdJp//udv/u9BoNDc1OZj3mGn2wxuel997BMGAUq+Of7mty8f1Pvq1y4Z+UhUPl77caO8z853/fm0891+IT39oNdvhBb57/OffIPdrpvH2awoyp/nG8eo82/q5vMaHmNzXk2wdOIpf7vhkQOr7HuH2/+XjXNuPxJ1wl++P519zuc2XNrbN/+c/Ub9mfVmdNbta7oktwps2vO46eMll31v47G0/PljnvyqdNhB+6Qm5Hn20x8ymLc5KMxB5YF/8uBB+Jh7mf++HWTUNm/bQVY7vGrm8fB11Dy+2J63BzznlI1rsL0iKP/lpHk777yadR7Puv2845tmf4HNNErTbbPIwGbcqpH2yNorTh64y3/buCE/4TmHDv558P1z3KvTRy765OCxqhzaHLDPowaf5VU6zT//8yX/OghwmhvxvFLlDrfdcXBj0/yX4Xwz8s3LLh3U++q3vjHykajB91HrEZy8z86/dJe08y/+cnr6y47eWOmS/37w79HDj0rtunmczYqi4eM35z1qdc8oq3GPX0y72mC6GfCTrWa5Ucp7zbr9LOPZKrBpz4nG+pLL//fGIyCDfycdcUg67Al/kpqQp7mBzzfN+ab/wEc+enCD3qx0avekz3NgUo9m7fksoc0sK2za10s7yGu+N3K/77Dj7TatWmsHpe3rP59z/p542j5/MAhXxl3P+ZG89jV5wHFHbXyftK/7XC8/mvSUh++bTj/n/RvhTp6T+z/04emw150wCGwmfT8187P5Xsx1Tz/yL9KjDjt48N2Xx9p2aI6bg+cc2OTvyxxQtb9Xm++r5rurHcbkv2se92pfQ8v+Husyx+YJbQQ2k6766T8X2ExvVdWWpQc2zY3WuHds5But9rtU8v/OwciH/vqw9MQDX7vx6NTwqpQmSGmHN82qmnEhy7j31rTfYTPtu12am+gmWGpurturivba814T340z7fm3H4MaFdgM/sXRWrWRQ6a2R/483/AP3/ie/vpnpkc94ZWbHlFr/PL4JwVOXW5Eu+xTw0W5VWDTPALY7mM7sGm/R2jc43rDAWiXR9xKmbdNYNO4NNfNpOuouT5PPv4p6bf//xdthLHt/XMwOWnezjufuszhLvvMO86t9hfYxOkuOrBp3qkw7r0gw6FE/t85GPnQq/4yPfHoIzbdmLRrNUFKO7xpVtWMC1nGvbem/Q6bad/90Nz4t28Q2++lyTdUf/zgh24KjKICm1ynOcfIdwHNeqO0yNBmq8CmuVltrzRqBzb5vT9bWefPhgOyUasTmncIjbva1nEOTPpm6TpHpnkR8aR32LRXUw2vUmu+R5pAY9Q7bNrfNeMC22aFXfN4Yp5X7aB23HHaIepev7nrILB5/aEvTM86/rh02ouOGQTJR77+tenYZzwr7fv85wwCm+HaW83BceFt+xoYDmza427m6vBjlO1HyNqBTfsaGrfCZt7gedz3WNc51jW0EdhMuuqn/1xgM71VVVuWHthMunHKN5DN6o5809rchL7jjc8aBDbNDdykwKbZbvDl1VoV037Zcf6seYxo8KU84qXD+fGj9niaydDcEDaPX+S/z4+w5BU/7VU87eNPE3hMe/6TApsmoBn1GFp7hca4wKZ9Xs25tQOecYFb15vQrvuVfHFuFdg083P4/UPtx+yaR9ea0HL4EbTha6D9v2ubt8OriJpHwJrVcMPX0fC8bQKb/Fhj+082nCYonXcedZ2/Xfebd7yj9hfYxKkuOrAZ9V6W9uiHb7yam4B3vORlg8CmufEavjkYDmzaN2jtwKb9suPBv0dveJSpfXPTDmzedPa7R77cc9QLgvMN5Euf9sxtQpnm+OMCmyaUat5LMypAyH+31QtOSwls8ji73GBNmsFbBTZNr4cfDWs/spZXYuUwa5R1490OANvzq89zYJq+XHfuti/JnrTfT+/xG+mHH74w3awVpg3vM26FzajVZ+1eN3Xy425N0NvMkfYjPnm75vGfdmCTQ9p2uLFVENhckycfckT67Wc8aWP13uDf+zesxmsCm7zS5XknvjI94oEPShd/458GK7vy90Wzgi8HNuO+n8751IWbvofa3wXNasPmvEd9pw0Hz+3Apv0YVlOjeYxz1DU0LrBZ1PdY1++Tufa7/vpJU9jnUwgIbKZAqnGTkgObce+wyTdn++3/v9Jpp/xpGl7RMrzCZtrAZvi/1Of/nR9jGvdLSONW24xbYTMcrEyzUmHU6p88x7qc/7SBTftGd5YVNu3Aq7kOpnkx823u9Lh0xZXXdLp0brz9jdK/f+/0TvuWuFOXwKY5j+EVIqNWpm0V2NQ2b4cDmy4rbB7x2JeN/KW0aebtvPNnHea9wGbeWfCT/RcZ2Ix7dCffAOx3+HMH/+V5+MZieIXNtIFNs+qifcz8GNO4X3QZt9pm3Aqb4WBpntUVpb7D5jZ73X/wnowuf268/fbp3y/4bJddR+7TJbDZ+HfSDb++1TwWM2qV13AAOM0Kmz7MgUkN/C8P2m3w0twuf7a/0Y3Sj87/TLrRjW40seftRxnzxsMv3552xcio1TFbPRI5aoVN+ztklhU2zaNJp7z7rMF1ledjfn9OO7AZ9/00auVh3nY4KNpqhU279vD31fD35fCKpPbKm+adP+2XDjc9Gf7lqoh3cS37e8gKmy5X8+h9BDZxlkVVKjmwyVDjfm0mv6cmP8Iz6R020wY2+VjNu2maVT3D77DJIUv73S6jVti034GTf9WqeVdNXsHSrLy56ur/M1hVs+duv7blO2zy/lHnP0tgM3yes7zDpjm3p+3/OwtfqVDSaoOIi3rWwOacj35h8G6afB3kwKJ5h82oeZvn3pGH/kF6xsGv3/Ry7PYcbq9mK33eDgc2TdDY9R027e+R9ruaFvFz5/POlVLmvcBm3k4uJ7AZ/Ht0zK9ENb9yNOkdNtMGNoN/j97wbppmVc/wuxfaN33tVTXD/9xeFdS8qya/x6a5OWle+rnnfX5j5nfYtM+3/bPD4973s8xfiZpnVnX9r9vjjjlrYJNXJDQvpM03m807bEbNgdzHI5/89PSMlx296UXT7Z95NwfmmQ1jbuYmvKi66zts8rtlmvfOtB+JyqNoApvm5eTt74mm3/nvtnqHzajAJn/XTHqHTQ5smtr5/88r6vKfJrDZ6vup2S+HJO132AwHNvn74UWnvHbwAvT8Z9zPeo8LbJoXG+cVNs0qoPzY1FbXUD5Oqd9jXb6HBDZx17rAJs6yqEqlBzZNaNN+NKn9azjDnw//StS0gU37V3iaX2kafCG2fiWq/ctOzSMYeZvhX9sZ9atVTZDR/LLUIc96WDr9zL/b9ItWw79W00yUdr38d13Ovx3YNDe7n/rM1we/VJV/Jar9zprm5rf5dalZfyWqGd+iVyqUcuMadUHPGtg0fWzmTdOn4Xnb/LpZ+11Lza+ZtVfi1DRvm1+Jaq/sGn7ssLmOp/2VqFHzXGAzfnYLbKKu/B//il7XZ/8n3Wxv/HvkvI9uWvrffhfF4N+jrc+HfyVq2sCm/ctBzfL+9o1F/vWX9i87Ncv8B/8eHfqVqFHjaf8yS3704pA/3n/TC0XzS5DH/UrUty67dBNVe3zNB1u9oHn4l26ax33iZsH8lbrcKG111FkDm+bFs00P2kajfomnHdI1qyraK3HMgfnnxHCFSXNk0q9EDYe/7R4N/2pc/t5ogo48J/K1/7IDn51ec9bbByFdE4jk/3/Sr0SNC2zyvqOu+/ZqrSYoagLq4cf42nOz/f00/L146OOelL74T/+YTj3i6HTCmadv/Fpd/vvzv/DZweqd/JLlSYFNDmPabvm7OP/JgXTzPrDha6j9K2vtnpb4PTZpjo2a1QKbuGtdYBNnWVSlGgKbRYINP0qxyGOpHSuwroFNrJJq6yZQyrwX2MTNrGUENnGj3bZSe+l+e8XKIo+p9rYCXW6UpglsWK+PwKQ5Munz9ZFwJosS6DKHBDZx3RDYxFkWVUlgc+3gJ75HvYOlqEYZzDYCpdy4RrVm3c4nykWdzQKlzBOBTdzMFNjEWfa5UpcbJYFNv2bMpDky6fN+aTnbLgJd5pDApov06H0ENnGWRVXqe2BTVDMMZiaBUm5cZxr0Fhuv2/lEuagjsKllDlx//fXphBNOSPvss0/aaaedph527YHN1Cdqw4UKdLlREtgstCXFFZ80RyZ9XtwJGVBxAl3mkMAmro0CmzjLoioJbIpqh8HMILBuAce6nc8MrbTpDAKlzBMrbLZt2g9+8IN0hzvcId3ylrdMD3/4w9OLX/zidJvb3GZidwU2E4lsMIVAlxslgc0UsGu0yaQ5MunzNaJwKgsS6DKHBDZxzRDYxFkWVUlgU1Q7DGYGgVJuXGcY8pabrtv5RLmos1mglHkisNl2Zn7/+99Pd7nLXdL3vve9dOKJJ6YXvOAF6fGPf3w66qij0k1vetOxU1lg4yqPEOhyoySwiZCvp8akOTLp83rO1EhXJdBlDgls4rolsImzLKqSwKaodhjMDAKl3LjOMGSBTRRWj+uUMu8FNttOwu9+97vp7ne/e7r88ss3Pnz5y1+eDj300PTsZz97sOJm1B+BTY8v6MBT73KjJLAJbEAFpSbNkUmfV3CKhrhigS5zSGAT1zSBTZxlUZUENkW1w2BmECjlxnWGIQtsorB6XKeUeS+w2XYSXnbZZene9753uvTSzT8hnbfMq2zyipsjjzxy8P+3/whsenxBB556lxslgU1gAyooNWmOTPq8glM0xBULdJlDApu4pgls4iyLqiSwKaodBjODQCk3rjMMWWAThdXjOqXM++HA5itf+Uo666yz0o1vfOO0/fbbb/y/9v/e6rO8z7TbznKMXHdZf/71X/813fe+903/8i//MvaQhx12WDr22GMHAU5edZP/CGyW1aH1Pk6XGyWBzXrPieGzmzRHJn3eLy1n20WgyxwS2HSRHr2PwCbOsqhKApui2mEwMwiUcuM6w5AFNlFYPa5TyrwfDmwuvvjidOqpp6b/+I//SP/5n/+58f/a/3urz/I+0247yzFy3SZAmiXo6RIeXXvttemTn/xkyitttvpz3XXXDR6TOvnkkwf/b999903XX/iF0Fnd5f9oDh2AYksXiO55dL2lgzjgNgKTejrpc6QEJgl0mUMCm0mq038usJneqqotBTZVtctgWwKl3LhGNWXdzifKRZ3NAqXMk5oeiWoCpFmCni7h0SWXXJLyO2u++c1vbjltv/Od7wzeZ/OmN70pveY1r0l/+Id/KLBxoc8t0OVGaauDRteb+wQVmFtgUk8nfT73ABRYe4Euc0hgEzctBDZxlkVVEtgU1Q6DmUGglBvXGYa85abrdj5RLuoIbGqZA1/72tfS7/3e76V/+Id/GDnkb3zjG4Og5j3vec/gPTZPf/rTB9t5JKqWDpc9zi43SgKbsnsaPbpJc2TS59HjUW/9BLrMIYFN3DwQ2MRZFlVJYFNUOwxmBoF1CzjW7XxmaKVNZxAoZZ7UtMJmBt65Ns3v8Xn4wx+evvzlL2+qk/8+BzUXXHDBIKjZf//9N30usJmL3c43CHS5URLY9Gv6TJojkz7vl5az7SLQZQ4JbLpIj95HYBNnWVQlgU1R7TCYGQRKuXGdYchbbrpu5xPlos5mgVLmicBm25n5xS9+Me23337p7//+7wcffu5znxsENV/60pcGQc2jH/3okdNZYOMqjxDocqMksImQr6fGpDky6fN6ztRIVyXQZQ4JbOK6JbCJsyyqksCmqHYYzAwCpdy4zjBkgU0UVo/rlDLvBTbbTsLPf/7z6bGPfWw66aSTBr8ClX81Kgc1++yzz9bX/nbbeYdNj6/pqFPvcqMksInSr6POpDky6fM6ztIoVynQZQ4JbOI6JrCJsyyqksCmqHYYzAwCpdy4zjBkgU0UVo/rlDLvBTbbTsJ0RmQ8AAAgAElEQVT8S1n5kaif/dmfHfwKVH6fzTR/rLCZRsk2kwS63CgJbCaprtfnk+bIpM/XS8PZLEKgyxwS2MR1QmATZ1lUJYFNUe0wmBkESrlxnWHIApsorB7XKWXeC2xGT8IvfOEL6V73utdMM1RgMxOXjccIdLlREtj0azpNmiOTPu+XlrPtItBlDglsukiP3kdgE2dZVCWBTVHtMJgZBEq5cZ1hyAKbKKwe1yll3gts4iahwCbOss+VutwoCWz6NWMmzZFJn/dLy9l2EegyhwQ2XaQFNnFqFVQS2FTQJEMcKVDKjWtUe9btfKJc1NksUMo8EdjEzUyBTZxlnyt1uVES2PRrxkyaI5M+75eWs+0i0GUOCWy6SAts4tQqqCSwqaBJhiiwMQcI3CAgsFm/qSCwWb+eruKMutwoCWxW0anVHXPSHJn0+epG7si1CHSZQwKbuO56JCrOsqhKApui2mEwMwiUcuM6w5C33HTdzifKRZ3NAqXMEyts4mamwCbOss+VutwoCWz6NWMmzZFJn/dLy9l2EegyhwQ2XaRH7yOwibMsqpLApqh2GMwMAqXcuM4wZIFNFFaP65Qy7wU2cZNQYBNn2edKXW6UBDb9mjGT5sikz/ul5Wy7CHSZQwKbLtICmzi1CioJbCpokiGOFCjlxjWqPet2PlEu6mwWKGWeCGziZqbAJs6yz5W63CgJbPo1YybNkUmf90vL2XYR6DKHBDZdpAU2cWoVVBLYVNAkQxTYmAMEbhAQ2KzfVBDYrF9PV3FGXW6UBDar6NTqjjlpjkz6fHUjd+RaBLrMIYFNXHc9EhVnWVQlgU1R7TCYGQRKuXGdYchbbrpu5xPlos5mgVLmiRU2cTNTYBNn2edKXW6UBDb9mjGT5sikz/ul5Wy7CHSZQwKbLtKj9xHYxFkWVUlgU1Q7DGYGgVJuXGcYssAmCqvHdUqZ9wKbuEkosImz7HOlLjdKApt+zZhJc2TS5/3ScrZdBLrMIYFNF2mBTZxaBZUENhU0yRBHCpRy4xrVnnU7nygXdTYLlDJPBDZxM1NgE2fZ50pdbpQENv2aMZPmyKTP+6XlbLsIdJlDApsu0gKbOLUKKglsKmiSIQpszAECNwgIbNZvKghs1q+nqzijLjdKAptVdGp1x5w0RyZ9vrqRO3ItAl3mkMAmrrseiYqzLKqSwKaodhjMDAKl3LjOMOQtN12384lyUWezQCnzxAqbuJkpsImz7HOlLjdKApt+zZhJc2TS5/3ScrZdBLrMIYFNF+nR+whs4iyLqiSwKaodBjODQCk3rjMMWWAThdXjOqXMe4FN3CQU2MRZ9rlSlxslgU2/ZsykOTLp835pOdsuAl3mkMCmi7TAJk6tgkoCmwqaZIgjBUq5cY1qz7qdT5SLOpsFSpknApu4mSmwibPsc6UuN0oCm37NmElzZNLn/dJytl0EuswhgU0XaYFNnFoFlQQ2FTTJEAU25gCBGwQENus3FQQ269fTVZxRlxslgc0qOrW6Y06aI5M+X93IHbkWgS5zSGAT112PRMVZFlVJYFNUOwxmBoFSblxnGPKWm67b+US5qLNZoJR5YoVN3MwU2MRZ9rlSlxslgU2/ZsykOTLp835pOdsuAl3mkMCmi/TofQQ2cZZFVRLYFNUOg5lBoJQb1xmGLLCJwupxnVLmvcAmbhIKbOIs+1ypy42SwKZfM2bSHJn0eb+0nG0XgS5zSGDTRVpgE6dWQSWBTQVNMsSRAqXcuEa1Z93OJ8pFnc0CpcwTgU3czBTYxFn2uVKXGyWBTb9mzKQ5Munzfmk52y4CXeaQwKaLtMAmTq2CSgKbCppkiAIbc4DADQICm/WbCgKb9evpKs6oy42SwGYVnVrdMSfNkUmfr27kjlyLQJc5JLCJ665HouIsi6oksCmqHQYzg0ApN64zDHnLTdftfKJc1NksUMo8scImbmYKbOIs+1ypy42SwKZfM2bSHJn0eb+0nG0XgS5zSGDTRXr0PgKbOMuiKglsimqHwcwgUMqN6wxDFthEYfW4TinzXmATNwkFNnGWfa7U5UZpUmBz3bmf7jPp2p37T+/xG+n6C78w9ryi59DaATqhiQJd5pDAZiLr1BsIbKamqmvDEgOb29zpcemKK6+pC9Joly5w61vdLH3/W29Y+nEXdUDzflGy61W3lHkvsImbV4sIbG6z1/3TFVdfFTdIlYoXuPUOt0jfP+eCsHH+lwftlr5/1Q/C6im0eoHb3OKW6XsfPH/sQHxvrL5HtY+gy/eQwCau6wKbOMuiKpUY2BQFZDAECBAgsI2AwCZuUiwisIkbnUoECBAgQGBxAgKbOFuBTZxlUZUENkW1w2AIECBQhYDAJq5NAps4S5UIECBAoC4BgU1cvwQ2cZZFVRLYFNUOgyFAgEAVAgKbuDYJbOIsVSJAgACBugQENnH9EtjEWRZVSWBTVDsMhgABAlUICGzi2iSwibNUiQABAgTqEhDYxPVLYBNnWVQlgU1R7TAYAgQIVCEgsIlrk8AmzlIlAgQIEKhLQGAT1y+BTZxlUZUENkW1w2AIECBQhYDAJq5NAps4S5UIECBAoC4BgU1cvwQ2cZZFVRLYFNUOgyFAgEAVAgKbuDYJbOIsVSJAgACBugQENnH9EtjEWRZVSWBTVDsMhgABAlUICGzi2iSwibNUiQABAgTqEhDYxPVLYBNnWVQlgU1R7TAYAgQIVCEgsIlrk8AmzlIlAgQIEKhLQGAT1y+BTZxlUZUENkW1w2AIECBQhYDAJq5NAps4S5UIECBAoC4BgU1cvwQ2cZZFVRLYFNUOgyFAgEAVAgKbuDYJbOIsVSJAgACBugQENnH9EtjEWRZVSWBTVDsMhgABAlUICGzi2iSwibNUiQABAgTqEhDYxPVLYBNnWVQlgU1R7TAYAgQIVCEgsIlrk8AmzlIlAgQIEKhLQGAT1y+BTZxlUZUENkW1w2AIECBQhYDAJq5NAps4S5UIECBAoC4BgU1cvwQ2cZZFVRLYFNUOgyFAgEAVAgKbuDYJbOIsVSJAgACBugQENnH9EtjEWRZVSWBTVDsMhgABAlUICGzi2iSwibNUiQABAgTqEhDYxPVLYBNnWVQlgU1R7TAYAgQIVCEgsIlrk8AmzlIlAgQIEKhLQGAT1y+BTZxlUZUENkW1w2AIECBQhYDAJq5NAps4S5UIECBAoC4BgU1cvwQ2cZZFVRLYFNUOgyFAgEAVAgKbuDYJbOIsVSJAgACBugQENnH9EtjEWRZVSWBTVDsMhgABAlUICGzi2iSwibNUiQABAgTqEhDYxPVLYBNnWVQlgU1R7TAYAgQIVCEgsIlrk8AmzlIlAgQIEKhLQGAT1y+BTZxlUZUENkW1w2AIECBQhYDAJq5NAps4S5UIECBAoC4BgU1cvwQ2cZZFVRLYFNUOgyFAgEAVAgKbuDYJbOIsVSJAgACBugQENnH9EtjEWRZVSWBTVDsMhgABAlUICGzi2iSwibNUiQABAgTqEhDYxPVLYBNnWVQlgU1R7TAYAgQIVCEgsIlrk8AmzlIlAgQIEKhLQGAT1y+BTZxlUZUENkW1w2AIECBQhYDAJq5NAps4S5UIECBAoC4BgU1cvwQ2cZZFVRLYFNUOgyFAgEAVAgKbuDYJbOIsVSJAgACBugQENnH9EtjEWRZVSWBTVDsMhgABAlUICGzi2iSwibNUiQABAgTqEhDYxPVLYBNnWVQlgU1R7TAYAgQIVCEgsIlrk8AmzlIlAgQIEKhLQGAT1y+BTZxlUZUENkW1w2AIECBQhYDAJq5NAps4S5UIECBAoC4BgU1cvwQ2cZZFVRLYFNUOgyFAgEAVAgKbuDYJbOIsVSJAgACBugQENnH9EtjEWRZVSWBTVDsMhgABAlUICGzi2iSwibNUiQABAgTqEhDYxPVLYBNnWVQlgU1R7TAYAgQIVCEgsIlrk8AmzlIlAgQIEKhLQGAT1y+BTZxlUZUENkW1w2AIECBQhYDAJq5NAps4S5UIECBAoC4BgU1cvwQ2cZZFVRLYFNUOgyFAgEAVAgKbuDYJbOIsVSJAgACBugQENnH9EtjEWRZVSWBTVDsMhgABAlUICGzi2iSwibNUiQABAgTqEhDYxPVLYBNnWVQlgU1R7TAYAgQIVCEgsIlrk8AmzlIlAgQIEKhLQGAT1y+BTZxlUZUENkW1w2AIECBQhYDAJq5NAps4S5UIECBAoC4BgU1cvwQ2cZZFVRLYFNUOgyFAgEAVAgKbuDYJbOIsVSJAgACBugQENnH9EtjEWRZVSWBTVDsMhgABAlUICGzi2iSwibNUiQABAgTqEhDYxPVLYBNnWVQlgU1R7TAYAgQIVCEgsIlrk8AmzlIlAgQIEKhLQGAT1y+BTZxlUZUENkW1w2AIECBQhYDAJq5NAps4S5UIECBAoC4BgU1cvwQ2cZZFVRLYFNUOgyFAgEAVAgKbuDYJbOIsVSJAgACBugQENnH9EtjEWRZVSWBTVDsMhgABAlUICGzi2iSwibNUiQABAgTqEhDYxPVLYBNnWVQlgU1R7TAYAgQIVCEgsIlrk8AmzlIlAgQIEKhLQGAT1y+BTZxlUZUENkW1w2AIECBQhYDAJq5NAps4S5UIECBAoC4BgU1cvwQ2cZZFVRLYFNUOgyFAgEAVAgKbuDYJbOIsVSJAgACBugQENnH9EtjEWRZVSWBTVDsMhgABAlUICGzi2iSwibNUiQABAgTqEhDYxPVLYBNnWVQlgU1R7TAYAgQIVCEgsIlrk8AmzlIlAgQIEKhLQGAT1y+BTZxlUZUENkW1w2AIECBQhYDAJq5NAps4S5UIECBAoC4BgU1cvwQ2cZZFVRLYFNUOgyFAgEAVAgKbuDYJbOIsVSJAgACBugQENnH9EtjEWRZVSWBTVDsMhgABAlUICGzi2iSwibNUiQABAgTqEhDYxPVLYBNnWVQlgU1R7TAYAgQIVCEgsIlrk8AmzlIlAgQIEKhLQGAT1y+BTZxlUZUENkW1w2AIECBQhYDAJq5NAps4S5UIECBAoC4BgU1cvwQ2cZZFVXrgnvdPH/3Y3xU1JoMhQIAAgbIF9nzAb6WPfPSCsgdZyegENpU0yjAJECBAIFxAYBNHKrCJs1SJAAECBAgQIDAQENiYCAQIECDQVwGBTVznBTZxlioRIECAAAECBAQ25gABAgQI9FpAYBPXfoFNnKVKBAgQIECAAAGBjTlAgAABAr0WENjEtV9gE2epEgECBAgQIEBAYGMOECBAgECvBQQ2ce0X2MRZqkSAAAECBAgQENiYAwQIECDQawGBTVz7BTZxlioRIECAAAECBAQ25gABAgQI9FpAYBPXfoFNnKVKBAgQIECAAAGBjTlAgAABAr0WENjEtV9gE2epEgECBAgQIEBAYGMOECBAgECvBQQ2ce0X2MRZqkSAAAECBAgQENiYAwQIECDQawGBTVz7BTZxlioRIECAAAECBAQ25gABAgQI9FpAYBPXfoFNnKVKBAgQIECAAIGBwAN33yN99PzzaBAgQIAAgd4J7Lnb7ukj553bu/NexAkLbBahqiYBAgQIECBAgAABAisReO9735tOOumk9J73vGclx3dQAgQIRAkIbKIk1SFAgAABAgQIECBAYOUCApuVt8AACBAIEhDYBEEqQ4AAAQIECBAgQIDA6gUENqvvgREQIBAjILCJcVSFAAECBAgQIECAAIECBAQ2BTTBEAgQCBEQ2IQwKkKAAAECBAgQIECAQAkCApsSumAMBAhECAhsIhTVIECAAAECBAgQIECgCAGBTRFtMAgCBAIEBDYBiEoQIECAAAECBAgQIFCGgMCmjD4YBQEC8wsIbOY3VIEAAQIECBAgQIAAgUIEBDaFNMIwCBCYW0BgMzehAgQIECBAgAABAgQIlCIgsCmlE8ZBgMC8AgKbeQXtT4AAAQIECBAgQIBAMQICm2JaYSAECMwpILCZE9DuBAgQIECAAAECBAiUIyCwKacXRkKAwHwCApv5/OxNgAABAgQIECBAgEBBAgKbgpphKAQIzCUgsJmLz84ECBAgQIAAAQIECJQkILApqRvGQoDAPAICm3n07EuAAAECBAgQIECAQFECApui2mEwBAjMISCwmQPPrgQIECBAgAABAgQIlCUgsCmrH0ZDgEB3AYFNdzt7EiBAgAABAgQIECBQmIDAprCGGA4BAp0FBDad6exIgAABAgQIECBAgEBpAgKb0jpiPAQIdBUQ2HSVsx8BAgQIECBAgAABAsUJCGyKa4kBESDQUUBg0xHObgQIECBAgAABAgQIlCcgsCmvJ0ZEgEA3AYFNNzd7ESBAgAABAgQIECBQoIDApsCmGBIBAp0EBDad2OxEgAABAgQIECBAgECJAgKbErtiTAQIdBEQ2HRRsw8BAgQIECBAgAABAkUKCGyKbItBESDQQUBg0wHNLgQIECBAgAABAgQIlCkgsCmzL0ZFgMDsAgKb2c3sQYAAAQIECBAgQIBAoQICm0IbY1gECMwsILCZmcwOBAgQIECAAAECBAiUKiCwKbUzxkWAwKwCAptZxWxPgAABAgQIECBAgECxAgKbYltjYAQIzCggsJkRzOYECBAgQIAAAQIECJQrILAptzdGRoDAbAICm9m8bE2AAAECBAgQIECAQMECApuCm2NoBAjMJCCwmYnLxgQIECBAgAABAgQIlCwgsCm5O8ZGgMAsAgKbWbRsS4AAAQIECBAgQIBA0QICm6LbY3AECMwgILCZAcumBAgQIECAAAECBAiULSCwKbs/RkeAwPQCApvprWxJgAABAgQIECBAgEDhAgKbwhtkeAQITC0gsJmayoYECBAgQIAAAQIECJQuILApvUPGR4DAtAICm2mlbEeAAAECBAgQIECAQPECApviW2SABAhMKSCwmRLKZgQIECBAgAABAgQIlC8gsCm/R0ZIgMB0AgKb6ZxsRYAAAQIECBAgQIBABQICmwqaZIgECEwlILCZislGBAgQIECAAAECBAjUICCwqaFLxkiAwDQCAptplGxDgAABAgQIECBAgEAVAgKbKtpkkAQITCEgsJkCySYECBAgQIAAAQIECNQhILCpo09GSYDAZAGBzWQjWxAgQIAAAQIECBAgUImAwKaSRhkmAQITBQQ2E4lsQIAAAQIECBAgQIBALQICm1o6ZZwECEwSENhMEvI5AQIECBAgQIAAAQLVCAhsqmmVgRIgMEFAYGOKECBAgAABAgQIECCwNgICm7VppRMh0HsBgU3vpwAAAgQIECBAgAABAusjILBZn146EwJ9FxDY9H0GOH8CBAgQIECAAAECayQgsFmjZjoVAj0XENj0fAI4fQIECBAgQIAAAQLrJCCwWaduOhcC/RYQ2PS7/86eAAECBAgQIECAwFoJCGzWqp1OhkCvBQQ2vW6/kydAgAABAgQIECCwXgICm/Xqp7Mh0GcBgU2fu+/cCRAgQIAAAQIECKyZgMBmzRrqdAj0WEBg0+PmO3UCBAgQIECAAAEC6yYgsFm3jjofAv0VENj0t/fOnAABAgQIECBAgMDaCQhs1q6lTohAbwUENr1tvRMnQIAAAQIECBAgsH4CApv166kzItBXAYFNXzvvvAkQIECAAAECBAisoYDAZg2b6pQI9FRAYNPTxjttAgQIECBAgAABAusoILBZx646JwL9FBDY9LPvzpoAAQIECBAgQIDAWgoIbNayrU6KQC8FBDa9bLuTJkCAAAECBAgQILCeAgKb9eyrsyLQRwGBTR+77pwJECBAgAABAgQIrKmAwGZNG+u0CPRQQGDTw6Y7ZQIECBAgQIAAAQLrKiCwWdfOOi8C/RMQ2PSv586YAAECBAgQIECAwNoKCGzWtrVOjEDvBAQ2vWu5EyZAgAABAgQIECCwvgICm/XtrTMj0DcBgU3fOu58CRAgQIAAAQIECKyxgMBmjZvr1Aj0TEBg07OGO10CBAgQIECAAAEC6ywgsFnn7jo3Av0SENj0q9/OlgABAgQIECBAgMBaCwhs1rq9To5ArwQENr1qt5MlQIAAAQIECBAgsN4CApv17q+zI9AnAYFNn7rtXAkQIECAAAECBAisuYDAZs0b7PQI9EhAYNOjZjtVAgQIECBAgAABAusuILBZ9w47PwL9ERDY9KfXzpQAAQIECBAgQIDA2gsIbNa+xU6QQG8EBDa9abUTJUCAAAECBAgQILD+AgKb9e+xMyTQFwGBTV867TwJECBAgAABAgQI9EBAYNODJjtFAj0RENj0pNFOkwABAgQIEFiewO573i+d/7ELl3fAnh7pKQc8KZ306tf19Oyd9jgBgY25QYDAuggIbNalk86DAAECBAgQKEZgu+22SxdecVwx41nHgXzlc/+SXvmsc9JnL/r7dTw95zSHgMBmDjy7EiBQlIDApqh2GAwBAgQIECCwDgICm8V3UWCzeONajyCwqbVzxk2AwLCAwMacIECAAAECBAgECwhsgkFHlBPYLN641iMIbGrtnHETICCwMQcIECBAgAABAgsWENgsGDilJLBZvHENR/jhD3+Y/uM//mPTUD/wgQ+kU045JZ1xxhnbnMIOO+yQtt9++xpOzRgJECCQrLAxCQgQIECAAAECwQICm2DQEeUENos3Lv0IX/va19JDHvKQ9J3vfGfTUP/v//2/Kf+/G9/4xpv+/j//8z/TQQcdlA4//PDST834CBAgMBAQ2JgIBAgQIECAAIFgAYFNMKjAZvGglR5h9913T0cffXTabbfdJp7BPe95z3Taaaele9zjHhO3tQEBAgRKEBDYlNAFYyBAgAABAgTWSkBgs/h2WmGzeOMajvChD31oENicc845Ww73zDPPHIQ173jHO2o4LWMkQIDAQEBgYyIQIECAAAECBIIFBDbBoCPKCWwWb1zLEaZZZWN1TS3dNE4CBNoCAhvzgQABAgQIECAQLCCwCQYV2CwetOIjTFplY3VNxc01dAI9FxDY9HwCOH0CBAgQIEAgXkBgE286XNEKm8Ub13SErVbZWF1TUyeNlQCBtoDAZk3nw6577Jk+cd7H1vTsFn9a+z/1gHTyia9e/IEcgQABAgTWUkBgs/i2CmwWb1zTEcatsrG6pqYuGisBAsMCAps1nRP5/1B8/md/uKZnt9jTuvTiz6ZPHvun6Yuf/fRiD6Q6AQIECKytgMBm8a0V2CzeuLYjjFplY3VNbV00XgIE2gICmzWdDwKb7o0V2HS3sycBAgQI/FhAYLP4mSCwWbxxbUcYXmVjdU1tHTReAgSGBQQ2azonBDbdGyuw6W5nTwIECBAQ2CxrDghsliVd13Haq2ysrqmrd0ZLgMC2AgKbNZ0VApvujRXYdLezJwECBAgIbJY1BwQ2y5Ku6zjNKpunPvWp6bTTTkvveMc76joBoyVAgEBLQGCzptNBYNO9sQKb7nb2JECAAAGBzbLmgMBmWdL1HSevsrnkkkvSX//1X6d73OMe9Z2AERMgQOAGAYHNmk4FgU33xgpsutvZkwABAgQENsuaAwKbZUnXd5zzzjsvvf/9709HHXVUfYM3YgIECLQEBDZrOh0ENt0bK7DpbmdPAgQIEBDYLGsOCGyWJe04BAgQILAqAYHNquQXfFyBTXdggU13O3sSIECAgMBmWXNAYLMsacchQIAAgVUJCGxWJb/g4wpsugMLbLrb2ZMAAQIEfhLYsCBAgAABAn0U2O0Bu6bzPvrxPp56+DkLbMJJyygosOneB4FNdzt7EiBAgMBPApsLrzgOBwECBAgQ6J3Arrd+Trr++ut7d96LOGGBzSJUC6gpsOneBIFNdzt7EiBAgIDAxhwgQIAAgX4LCGzi+i+wibMsqpLApns7BDbd7exJgAABAgIbc4AAAQIE+i0gsInrv8AmzrKoSgKb7u0Q2HS3sycBAgQICGzMAQJdBd78yg+nE45438buBxyxd/qjZ/73ruU27XfN1del5zzq9Wm/A/ZIuz/410JqKkKAwGgBgU3czBDYxFkWVUlg070dApvudvYkQIAAAYGNOUCgi0AOa8485e/SyR88MN329rdM373sB+mJDzo+7bP/b4WFNl3GZR8CBGYXENjMbjZuD4FNnGVRlQQ23dshsOluZ08CBAgQENiYAwS6CLzoqacNdjv8pP02ds8hzsfP+Wo67vQnpJvt8NMpb/O+0y4afN6svmlWzvzgimvSP37x0vT45/x2+vyF39jY57yzv5RedvBZ6VXveko6+k/fvrHCJv8s/FP2PjFde82P0n12u8um7Q/a768Gx2j/fZdzsg+BvgoIbOI6L7CJsyyqksCmezsENt3t7EmAAAECAhtzgEAXgRys5KBkXEjSDm++9Y+XD8KWI095dNpl918ZPOp0+zveehD25JU5f7bvyenQVz0y3e3XfyHl/f75q99Jzzn29zceibr7ve+4aZscBP3SXX8u/eae/zU99zFvSMec+rh0p1/ZcVPdLudkHwJ9FRDYxHVeYBNnWVQlgU33dghsutvZkwABAgQENuYAga4CzWqZz5z/9UGJJrzJ/5xDmfvtddeNx6OakGWfJ95/02dNjbxt81l+b00T7OR/zn9OO+HcjVU1zXiHV/TkEGnUdl3Pz34E+iIgsInrtMAmzrKoSgKb7u0Q2HS3sycBAgQICGzMAQJRAs1jUs3qmCbIaervvd8um1bONC8TblbVPPJPdk9HPeOM9Iq3P3HwSFXz0uFvfPU7mx61agc27Zce57/PK3ea9+pEnZc6BNZdQGAT12GBTZxlUZUENt3bIbDpbmdPAgQIEBDYmAMEZhXIq2KO+JO3picc9KDBY0zNn2aFS3706bD93zLyF55G/fpTfj9NDmoe/vj7pS9+6huDR6Xa2+X641bY5Men2u/RmfVcbE+AQEoCm7hZILCJsyyqUg5s/CFAgAABArMI3Hf3B6QLz/3oLLvYdoxA/vfwhVccx4cAgSkFhh9HagKW5t007c/zZ4drKOQAACAASURBVM0vSLUfe2pW2LQfrTr2tMcPfsa7HdjsuNOtNt5VkwOiZiVPXpHTvMOm+fvLvn3FNo9OTXlKNiPQWwGBTVzrBTZxlkVVssKmqHYYDAECBKoQeMm9b56uv/76KsZa+iAFNqV3yPhKFMihTPuRpPzIU3u1S/tXoprPRq2wyec2/DPhw9s1LznO2477lSiPQ5U4S4ypBgGBTVyXBDZxlkVVEtgU1Q6DIUCAQBUCApu4Ngls4ixVIkCAAIG6BAQ2cf0S2MRZFlVJYFNUOwyGAAECVQgIbOLaJLCJs1SJAAECBOoSENjE9UtgE2dZVCWBTVHtMJgFCnz8r16ePnL8YZuOcKdddk+PPP4d6adutsOmv//ax96X3vW8x6bHnPK3aaed773psx9dc3U648BHpG9ddN7g72+50x3T49740bTDjrdf4OiVJlCWgMAmrh8CmzhLlQgQIECgLgGBTVy/BDZxlkVVEtgU1Q6DWaBADmy+fsHfbgpo3n3Yk9KVl35709/lQOZvDt1/MJKfv9d90/0e/6yNUV19+WXpDY/dM+2y75M3/n6rcGeBp6M0gZUKCGzi+AU2cZYqESBAgEBdAgKbuH4JbOIsi6oksCmqHQazQIFRgU0TwPzuc1+efvUBew+Onn+u/YK/fGn6zUcfkD547MHpUa9+18bqmVzju//05fTQI/9y00jH/f0CT0dpAisVENjE8Qts4ixVIkCAAIG6BAQ2cf0S2MRZFlVJYFNUOwxmgQKjApt8uLzK5ra/fPeNFTN5u/wnr6zJn91tr4cPwpzmUaj7/tGBG+FOM9y8yuYDxzzLo1EL7J/SZQkIbOL6IbCJs1SJAAECBOoSENjE9UtgE2dZVCWBTVHtMJgFCkwT2DSPQ93/Sc8bvLsmBzFfOeeswYqarQKbvCrnvS986qbVOAs8FaUJrFxAYBPXAoFNnKVKBAgQIFCXgMAmrl8CmzjLoioJbIpqh8EsUGBUYNOEMHe5/+8MVtTk4OXU/X8n/fu112yMpHmp8E/dfIfBy4ZHrbAR2CywcUoXKSCwiWuLwCbOUiUCBAgQqEtAYBPXL4FNnGVRlQQ2RbXDYBYoMM07bPIjUPlP+x017UemvMNmgQ1SuioBgU1cuwQ2cZYqESBAgEBdAgKbuH4JbOIsi6oksCmqHQazQIFJvxL1ox9ePfgFqPYLiPNw2vs12/iVqAU2SukqBAQ2cW0S2MRZqkSAAAECdQkIbOL6JbCJsyyqksCmqHYYzAIFcvDykeMP23SEO+2y+8ZPeo97cXDzmNTDXvrGTS8f/tZF5w1qNY9M7bDj7Rc4eqUJlCUgsInrh8AmzlIlAgQIEKhLQGAT1y+BTZxlUZUENkW1w2AIECBQhYDAJq5NAps4S5UIECBAoC4BgU1cvwQ2cZZFVRLYFNUOgyFAgEAVAgKbuDYJbOIsVSJAgACBugQENnH9EtjEWRZVSWBTVDsMhgABAlUICGzi2iSwibNUiQABAgTqEhDYxPVLYBNnWVQlgU1R7TAYAgQIVCEgsIlrk8AmzlIlAgQIEKhLQGAT1y+BTZxlUZUENkW1w2AIECBQhYDAJq5NAps4S5UIECBAoC4BgU1cvwQ2cZZFVRLYFNUOgyFAgEAVAgKbuDYJbOIsVSJAgACBugQENnH9EtjEWRZVSWBTVDsMhgABAlUICGzi2iSwibNUiQABAgTqEhDYxPVLYBNnWVQlgU1R7TAYAgQIVCEgsIlrk8AmzlIlAgQIEKhLQGAT1y+BTZxlUZUENkW1w2AIECBQhYDAJq5NAps4S5UIECBAoC4BgU1cvwQ2cZZFVRLYFNUOgyFAgEAVAgKbuDYJbOIsVSJAgACBugQENnH9EtjEWRZVSWBTVDsMhgABAlUICGzi2iSwibNUiQABAgTqEhDYxPVLYBNnWVQlgU1R7TAYAgQIVCEgsIlrk8AmzlIlAgQIEKhLQGAT1y+BTZxlUZUENkW1w2AIECBQhYDAJq5NAps4S5UIECBAoC4BgU1cvwQ2cZZFVRLYFNUOgyFAgEAVAgKbuDYJbOIsVSJAgACBugQENnH9EtjEWRZVSWBTVDsMhgABAlUICGzi2iSwibNUiQABAgTqEhDYxPVLYBNnWVQlgU1R7TAYAgQIVCEgsIlrk8AmzlIlAgQIEKhLQGAT1y+BTZxlUZUENkW1w2AIECBQhYDAJq5NAps4S5UIECBAoC4BgU1cvwQ2cZZFVRLYFNUOgyFAgEAVAgKbuDYJbOIsVSJAgACBugQENnH9EtjEWRZVSWBTVDsMhgABAlUICGzi2iSwibNUiQABAgTqEhDYxPVLYBNnWVQlgU1R7TAYAgQIVCEgsIlrk8AmzlIlAgQIEKhLQGAT1y+BTZxlUZUENkW1w2AIECBQhYDAJq5NAps4S5UIECBAoC4BgU1cvwQ2cZZFVRLYFNUOgyFAgEAVAgKbuDYJbOIsVSJAgACBugQENnH9EtjEWRZVSWBTVDsMhgABAlUICGzi2iSwibNUiQABAgTqEhDYxPVLYBNnWVQlgU1R7TAYAgQIVCEgsIlrk8AmzlIlAgQIEKhLQGAT1y+BTZxlUZUENkW1w2AIECBQhYDAJq5NAps4S5UIECBAoC4BgU1cvwQ2cZZFVRLYFNUOgyFAgEAVAgKbuDYJbOIsVSJAgACBugQENnH9EtjEWRZVSWBTVDsMhgABAlUICGzi2iSwibNUiQABAgTqEhDYxPVLYBNnWVQlgU1R7TAYAgQIVCEgsIlrk8AmzlIlAgQIEKhLQGAT1y+BTZxlUZUENkW1w2AIECBQhYDAJq5NAps4S5UIECBAoC4BgU1cvwQ2cZZFVRLYFNUOgyFAgEAVAgKbuDYJbOIsVSJAgACBugQENnH9EtjEWRZVSWBTVDsMhgABAlUICGzi2iSwibNUiQABAgTqEhDYxPVLYBNnWVQlgU1R7TAYAgQIVCEgsIlrk8AmzlIlAgQIEKhLQGAT1y+BTZxlUZUENkW1w2AIECBQhYDAJq5NAps4S5UIECBAoC4BgU1cvwQ2cZZFVRLYFNUOgyFAgEAVAgKbuDYtIrDZ684vSFdfeW3cIFVaisD2298oXfBvf7GUY006iDk0SajMz0uaQ+OEzK0y5k4pc0VgEzcfBDZxlkVVEtgU1Q6DIUCAQBUCApu4Ni0isMn/B/CFVxwXN0iVliKQ+5b/lNA7c2gpLQ8/SElzaNzJmVvhbe9UsJS5IrDp1L6ROwls4iyLqiSwKaodBkOAAIEqBAQ2cW0S2MRZ1l6puZEt4Ya2hDHU3s9VjL+kOSSwWcUMmP6YpcwVgc30PZu0pcBmklClnwtsKm2cYRMgQGCFAgKbOHyBTZxl7ZXaIcmqA5NVH7/2Xq5q/CXNIYHNqmbBdMctZa4IbKbr1zRbCWymUapwG4FNhU0zZAIECKxYQGAT1wCBTZxl7ZWGQ5JVhiarPHbtfVzl+EuaQwKbVc6EyccuZa4IbCb3atotBDbTSlW2ncCmsoYZLgECBAoQENjENUFgE2dZe6VRIcmqgpNVHbf2Hq56/CXNIYHNqmfD1scvZa4IbOLmicAmzrKoSgKbotphMAQIEKhCQGAT1yaBTZxl7ZXGhSSrCE9Wccza+1fC+EuaQwKbEmbE+DGUMlcENnHzRGATZ1lUJYFNUe0wGAIECFQhILCJa5PAJs6y9kpbhSTLDlCWfbzae1fK+EuaQwKbUmbF6HGUMlcENnHzRGATZ1lUJYFNUe0wGAIECFQhILCJa5PAJs6y9kqTQpJJn0ee/zKPFTnuvtea1LdJny/Dr4QxLOM8Sz/GpD5M+jzq/AQ2UZIpCWziLIuqJLApqh0GQ4AAgSoEBDZxbVpGYHPe2V9KB+33VxuDPuCIvdMfPfO/x51Eh0pf+dy/pKOecUZ6xdufmL572Q82/vm2t79lh2rjd8m1n/ig49Nl375isNHt73jrdPIHD0xRx8m2p51wbjru9Cekm+3w03ONfZobpGm2mWsQN+zcHCf7/dm+J6dDX/XIdLdf/4WI0iNrtOdDVG+aA9U0B+YFnmZ+TLPNvOPYav/23Gpfm80+99ntLhOvp2uuvi4951GvT/sdsEfa/cG/NvZwXefVtNd1zXNrmnkwzTbzzhWBzbyCP9lfYBNnWVQlgU1R7TAYAgQIVCEgsIlr06IDm3zjcdj+b0mved/TBjfczY3O/fa660pDm643UrPINzdT++z/Wxvn+uZXfjidecrfhYY2s4xpmhvZSfWWdRN14RXHDcK0ZQQ2k8656+e1zYGu59nsN+3cmHa7ecczav/hwObZf/HwjdBl2u+nRQc205x37XNr2jkw7XbTmI2bD9dff33X3e3XEhDYrOl0WERg87I97pCuu+rKNRUr+7T+6wMfkh7x8rctfZCffOsJ6ZxjD176cR0wpe223z4d8ukfFEPh+l9dK5Z5/Qts4vq8yMBm3M3PcFjSXoHT/NftfIb5v2Dfa9dfTKefeF669pofpbwy55+/+p30vtMu2lipkleVjNquWcGTj/WUvU8c7N+sbsm1m/+ynv/uea94RDrhhe8brLbJqyva+7T/a3sOW0444n0D/Jve7Ke2CaE+c/7XB58de9rjBzeAuc5zH/OGdMypj9tYHdLcZDU3iaPGl8eQTY476Kx05feuSXf9/35+UPcxB+45qNt2/cW7/tymFTYveuppA5/2OJrth8c3PItmuTGaZdsus3XUCps7/cqOg17nnjXnuPd+u6TDT9pvcIj2ubf/vr0KoZkD+e9yb/Kf7bZL5kCXJo3YZ5Z5Mcu2QcMblNkqsMmf5+s8f88082qr76dmhc3wKsL8HXD3e99x0/dMXlmX593w99Hw9b7zfe6Yfn//+6V3nvLxwUqf5ruw9u+XUr9vrLCJu7oENnGWRVVaRGCT/w/553/2h0WdZx8Gc+qT/kf6zle+kH7urvdKjzn5/Us95XzsdH1a+nGXepKFHixfb/lPKdec6381E2XZ17/AJq7PiwxsRgUWwyNvAosjT3l02mX3X9m4IX/Osb8/+Of8J9+0XHTePw4eq8qhzT5PvP/gs7xKp/nnS775b4NVK82NeA5J8o1QDmaacCTf0OdHk3K9b/3j5SMficrHa6/oyPv80l1/LuVg5GUHn7WxMib/ff6Tb+radfM4mxVFTcCQb7SaEKd9/sPhzbg6eWVS+yayverk8kuv3Ahszjz5go0bzXYoduIL37sx1uEVT+3xzHoDPev2s8zarQKb9pxorNsO+fMj/uSt6QkHPSg1PWhurBvHR/7J7oMb5zzvmnCteUSuz3Nglh6N2nbWOTHr9vOOL+8/ywqb9ndYOzBsvp/yvNpxp1ttCmbzHPv4OV/d5nsmHzt/HzUr7ra63tuPRB130Ds3vrdq/n6ZJ7Bp9y1iDgx/71lhE6MqsIlxLK6KwKa4lnQeUBOapO3S0sMTgU3nts29YxOQlBKUlDKOuWErK7Ds619gEzdBFh3YNDfB494LMvyuhvy/czDyqnc9JR39p28fhDJ5tczwqpwmSGmHN82qmnEhy7j31rTfYfPlz357qnfCNDf+7Ru34dUvzXhG/df3vG1zrs07bdrjy+NoB0TtbdtjzDdw+R02OXjI4cXwOzWGQ6GtHuXocvPcZZ9pZu9WgU0zJ8YFV+13+Yx79G04TBy2n+a9QOs4B6bpzVbbdJkPXfaZZ5yT3mHTXp3VDl/yvGq+r8Zdb3lc7e+0ccFws5KvWYGXA8fh633UdT1q1WIt3y/zBjaLCm2ssJnnatq8r8AmzrKoSgKbotox12DaocmyA5RlH28uqDXbuR2QlBCWlDCGNWvxVKez7OtfYDNVW6baaNGBzfAjQcODGr4ham6cX/KGPx4ENk0AMSmwaQcV7cCm/bLjfOzmUab8z6NeOnz26Z/e+K/j7Rv/4ceK8v75xu5pf/57m1bx5L9vjj/qxcrtoCDfpI0bX3vFSB5HO5w447XnDVb95PrNzeEh/2vf9IyHvWZjNVHjPPxS0ubvR734ueuNc9f9prnxb5/38GqZ4ffbtB9Za85vOBRrjjk8n9r/u89zYKovjS026joXuu7XZbzjVtiMWhHYnlPNsfJjdU2g3HzvtB/Hy9s1j1K2A5vhEHarwHGr67rW75eIwGYRoY3ApstVNHofgU2cZVGVBDZFtWOuwQyHJssMUZZ5rLmQ1nDn4YBk1YHJqo+/hi2e6pSWff0LbKZqy1QbLTKwGfcOm3yjcvgT35JedPKj0/CKluEVNtMGNs2qi63e79IGGbfaZtwKm+FgaZrVFfkxqo/8zRc23oWRj99e4ZL/97iVHKN+JSbfqN3u52+d/unLlw0e98mPSk36L/6zvLR3rzu/IF195bVTzZvhjbbf/kbpgn/7i077jtppqxU2zZwYd25t4/y4yqhVXlsFNn2eA/M2sKQ5NO5ctnokavil4MPvs2lqDl/Ho1bHbPXo5agVNu3vgnHX9fD3W03fL8P9KGWuCGzmvep/sr/AJs6yqEoCm6LaMddgRoUmywpSlnWcuYDWdOdRAckqQ5NVHntNWzzVaS37+p81sDnppJPSqaeems4666x0u9vdbqpz6stGiwxssuG4X4nK/5U6v/9l0jtspg1s8rGaG6RmVc/wO2zaN2Ptx6CG/7m9Kqh5V01e0dK8lyLfNOV3UeT/ir7VO2yGjz/ssdX4RoUGzaMP7RchD7/rIh+jcW3OI6/Iaf99+90tUfM8eoXErIHNpz76Dxvv78n9ad5hM8o49/HJz//d9LLnvmvTi6bbK67MgaiZMX2d6DnUJbAZDpmHV900751pPxKVj9MENs1L0NvfR+13I231DptRgU3+Thv3Dps+fb8M9zJyrghspr9GJ20psJkkVOnnAptKGzdi2ONCk2WEKcs4xvp0KvZMxgUkqwpOVnXcWNX6qi37+p82sMlBzRFHHJH22Wef9LGPfSy97W1vS/e4xz3qA17giBcd2DQhRfvRn/Y7IoY/H/6VqGkDm/YvB7Vf8Nv+Fab2Lzs1jwrl4w//StSoX4VpQpr80uJ8rD/+s99O57zzc1v+ikuuPfxIUnsM+fNx4xu1wmbUz/i2t8v18suYh39NZvhxrlGPQ807xSJvoPJYZg1s2i94zvu3z3HUL3G1Q7pmtUN7JY45MO+MmH3/6DnUJbBpvo+al1k3q9ia76/mV8aaYCZ/PzUvS8/XXb6+D3zxQ9NZf/XxQRiY/+SQJv+Z9CtR4wKbcdd1n75fBDazX0+r2ENgswr1JRxTYLME5CUdYqvQZNGByqLrL4mwysNsFZCsIjxZxTGrbFzwoJd9/U8KbNpBTQ5s8qqae97znum0004T2Az1fhmBTfB021Ruq5foLvK4am8WiL7Zjq6nX+ULLKvnyzpO+eL1jjCyh1bYxM0DgU2cZVGVBDZFtWOuwUwKTSZ9Ps/BF1l7nnH1Yd9JAcmkz6ONln286PHXWm/SNTjp81nPe1xgMyqoaWoLbEYrC2xmnX22HyUQeQOV60fX07XyBZbV82Udp3zxekcY2UOBTdw8ENjEWRZVaRmBzdc+9r709mfuu3HeDzzwyHS/xz9rpQ6XXvzZ9N4XPjU96tXvSlddfunGP++w4+3DxnX15ZelNzx2z/SDS7+9qea+r3x7+tUH7L3p7350zdXpjAMfkW610x3TQ4/8y23GMI3hNDdk02zTBWBU3Xcf9qR05aXfTo88/h3pp262w6BsNjn96Q9Lv/fnJ6Wf/cVfHZzzff/owG082mNo92qr/uTtTt3/d9K/X3vNxu43uenN0mNO+du008733nRa2fNdz3vsyM+aXnzroh+/c+CWO90xPe6NH02Rc6OL8bh9pglIptkmakzNscbN/zvtsvumORF13Ihr+uN/9fL09Qv+dsvxLfu6ntZnmmt7mm2mPd5wYLNVUNPUFNiM1q09sJl2zthusQKRN1B5pNH1Fnv2qkcILKvnyzpOhIkaowUieyiwiZtlAps4y6IqLTqwGb4xbm6G73L/31lpaDNtCDBPs5obu9997ss3AokmVHjYS9+4KaTITp9484+fsX3Y0W/YFA7km8iL3v66jdBgXLgz7c3YtNvNcu7DNfN5fujlhwxK/Pazjt4ITBYd2Jz57EelfV52+sbxRgUz2e9vDt1/MLafv9d9N83Dpme77Pvkjb/fKtyZxWhR204bxky73bzjHA5s2vN/kdf/sgObZV3X0/Zj2ut62u0mHTf3+brrrkunnHLKxjtqmkefxu0rsBHYTJpXPu8uEHkDJbDp3oea94yeQ+MslnWcmntR+tgjeyiwieu2wCbOsqhKiwxsxt2cDYcl7dUjzX99z0h59cUd732/9MlTXz1YNZFX5nz3n76c/v49b91Y9fBTN99h5HbNCp72qotmpUSu3ax8yX+396GvSh8+/rDBapu8iqK9T3s1QA5OPnL8YYP+tVduDK/IaFbQjAps8r6j/it+Xo1yt70enr5yzlnptr98942woB1wtFeJjPr7WW7EZtl2mgk7XC+fY/Mn9yyvGmo7Zb8/OOFd6dwTj9xYYTNNr/JKl0sv/symFVuNd95/OLDJY8i2+U+zcilvd8FfvjT95qMPSB889uCNvje9acbbPu98PqP+fhqbRW8zSxAzy7Zdx71VYDPKeNT1n1dktf++uXab671ZldW+DnLtvGruoS98XXr7sx45WNnW7DduzuR9muPkOflLu/73dO1VVw5W2DTfQc1Kq1Vd19P2YZZrepZtxx0/9/mwww5L73znO9MZZ5yRdt5554lDvfOd75y+9a1vTdyujxtceMVxoacd+X9Mhw5MsYUJRPc8ut7CTlzhMIFl9XxZxwmDUWgbgcgeCmziJpjAJs6yqEqLDGzG3UC3AdorTu78m3tsPBb0u4e8YvDP+U++efrmp84d3KTn0GaXP3jy4LO8Sqf55ysu+cZgBUp+vKm5ab/FjjsNgpnmv4S3H9H5t298beQjUfl4zSM7OSDJ++QA5ba/fLf0gWOetbHKpR0CtOvmcTaP2gwfvznv4cAq33S+65DHDVbW5PHnMOF/HnXK4DGiZuVN+7GiXGdUGDbrTdis2281cdu1mhUs93/S81I2aM4th2HjVtjstPN9pu5VO5Rph1+5p6MCm2HDJkzKoV4TlOVH1BrTUY9o5Rrt/pd0Ec8awsy6/aznOssKm/Z3RPOIXH4sMF/n7euw6VlzvW8V2Aw/5tj+TsjX9PCcyY/R5RVvzfdP853zgaP/bOORvlVe19P6z3o9z7r98Dhyn6+99tqNFTb77rvvYKXNjjvuOHbIVtiMpvFI1LSz3HZbCUTeQOXjRNfTvfIFltXzZR2nfPF6RxjZQ4FN3DwQ2MRZFlVp0YFN856Yce//GL6Zbm6M//A1703ve9EBg1Am31gPhxxNkNIOb5pVNeNClnGPTLTfYZP/S3x+NGk4IBluWrPiogmWmhvIdpByz4f84aYQYlxgk885r6xpVqHkx3Vy2JFvLscFNrlWc57NeXe5Aeuyz6gJ3K7TrGBpQqd2KDIusMk124HItI+3tH2mCWzycYZ92/bj3qmzjEfoun4xdAlguuwz7fgmvcMmXxfNaqfh1WZNP/c+/IT0zoMePXjXUXtl2XCoNmqFzaT3UrXnTA5i2td781kOcHLwWsJ1Pa17l2u5yz7NeIbfYXPiiScOAputghuBjcBm2vlsu9kFIm+gBDaz+6/DHtFzaJzJso6zDj0p9RwieyiwieuywCbOsqhKiw5sRq14aAMM37A1N8a/f+xbBoFNc8M0KbBpr4poBzbtlx3n4zaPMuV/HvXS4fy41aiXjg4/9pT3zzeeeSVAexVPO0gZF9gMr9bI483Hbf9pXsy86MAmH3Oem7ZmzO0a7UfHms+bm/StAptpepWDv2Gv5rG1cYHNqBUV7RcTj3vcpt2PdQts8rktKrQZt8Jm1Iq7UXOl6UcOUpuXSA8/KjnLCput5sxFb3vdpuu9HRi99Sm/t7E6b5XX9bT/wuh6HXfdb9yvRG0V3AhsBDbTzmfbzS4QeQMlsJndfx32iJ5DApt1mBWjzyFyrghs4uaJwCbOsqhKiwxsxr3Dpv0I0PCKluEVNtMGNs1KnPYx82NM41bLjFvBMW6FzXCwNM8Km0mP8bTHlidL+9GQZvKMeofNJ996Qjrn2IM7z6//+sCHpEe8/G2d9m9u+vJjXcMBVnus+RGpUb8SlQ86Ta9yf9orcaZZYTP8+Fo+VvuXuNorlca9q6bkd9i8bI87pOuuurJT37bbfvt0yKd/0GnfcTtt9UjU8Au0p3Udd721Q6A8nlEh7FZzJnKFzaKu62mbs+zrf1xg04x3VHAjsBHYTDufbTe7QOQNlMBmdv912CN6Dgls1mFWCGxq6qLApqZuzTDWRQY2eRjjfiWq+fnqSe+wmTawycfKjzG1V1kMv0OmfbPYfgxq+J/bq4Kam/38Hptm5c2Pfnj1IJS48y67D278Z3mHzfCvRI16AfHwy4qn/ZWoGdq+zaZd/yt7U6jZP/dr+F0vw4+JjQpsht9hM65X7Zvv5gW0o3rfPEbTnn/j3inU7kHT25p+JWqevi9ilU3Xd9g074zKPwW/x9MOS397zLM3Xgg9/A6b5vsj//35rzt68PPs0wQ2w3Om6Xd+z9U877Ap9bqedm50uf4nBTajgpuPfOQjgxcU3+Me95h2aL3YzjtsetHmhZ9k9M12dL2FAzjA3ALL6vmyjjM3iAJjBSJ7aIVN3EQT2MRZFlVp0YFNE9q0H3dpv8Ni+PNxjz5MeiQq38A1jxU1v+aSa7d/eaj9y05NKJK3Gf6VqFG/WtPc2DW/PPNbj39OuvgD75jq12TyPu0/zfi2+onjdgg0/Is5uVbzyFTUZOpyw9Y+drN/7kP+017Bkv93E8A07ya69EsXbfkrUeN61eyff7knb5N/Mvwz7zh5cGPffoSmGVu7zrgXBw/fbA8/NQWcYwAAIABJREFU/tY8ojPuPUxRPVhFnWUHNs313ryYu3lPU/P90LZuPy7V/rW29jW9y6Oekr79mQsG77rJf5oVNvmfc6ia/2w1Z3JP29f7/Z94cLr8Hy8evPQ7/8nvNBr3K1E1XNfTzqku1/+0gU0zhrzi5i1veUs666yz0u1ud7tph9aL7QQ2vWjzwk8y8gYqDza63sIBHGBugWX1fFnHmRtEgbECkT0U2MRNNIFNnGVRlZYR2CzyhLf6ZZ9FHnfdane5YWsbzLv/unnWcj6LDGxqMTDObu+xmjWw4TxeQGBjdkQIRN5ACWwiOlJfjeg5NE5gWceprwP1jDiyhwKbuL4LbOIsi6oksCmqHSsbzLyBy7z7r+zEe35ggU3PJ8ANp9/l+hXYxM0dgU2cZZ8rRd5ACWz6OZOi55DAZn3nUeRcEdjEzROBTZxlUZVqD2yKwqx4MF1u2NqnO+/+FdNVPXSBTdXtCxt8l+tXYBPGnwQ2cZZ9rhR5AyWw6edMip5DApv1nUeRc0VgEzdPBDZxlkVVEtgU1Y6VDabLDZvAZmXtCjuwwCaMsupCXa5/gU1cywU2cZZ9rhR5AyWw6edMip5DApv1nUeRc0VgEzdPBDZxlkVVEtgU1Y6VDabLDZvAZmXtCjuwwCaMsupCXa5/gU1cywU2cZZ9rhR5AyWw6edMip5DApv1nUeRc0VgEzdPBDZxlkVVEtgU1Y6VDabLDZvAZmXtCjuwwCaMsupCXa5/gU1cywU2cZZ9rhR5AyWw6edMip5DApv1nUeRc0VgEzdPBDZxlkVVEtgU1Y6VDabLDZvAZmXtCjuwwCaMsupCXa5/gU1cywU2cZZ9rhR5AyWw6edMip5DApv1nUeRc0VgEzdPBDZxlkVVEtgU1Y6VDabLDZvAZmXtCjuwwCaMsupCXa5/gU1cywU2cZZ9rhR5AyWw6edMip5DApv1nUeRc0VgEzdPBDZxlkVVEtgU1Y6VDabLDZvAZmXtCjuwwCaMsupCXa5/gU1cywU2cZZ9rhR5AyWw6edMip5DApv1nUeRc0VgEzdPBDZxlkVVEtgU1Y6VDabLDZvAZmXtCjuwwCaMsupCXa5/gU1cywU2cZZ9rhR5AyWw6edMip5DApv1nUeRc0VgEzdPBDZxlkVVEtgU1Y6VDabLDZvAZmXtCjuwwCaMsupCXa5/gU1cywU2cZZ9rhR5AyWw6edMip5DApv1nUeRc0VgEzdPBDZxlkVVEtgU1Y6VDabLDZvAZmXtCjuwwCaMsupCXa5/gU1cywU2cZZ9rhR5AyWw6edMip5DApv1nUeRc0VgEzdPBDZxlkVVEtgU1Y6VDabLDZvAZmXtCjuwwCaMsupCXa5/gU1cywU2cZZ9rhR5AyWw6edMip5DApv1nUeRc0VgEzdPBDZxlkVVEtgU1Y6VDabLDZvAZmXtCjuwwCaMsupCXa5/gU1cywU2cZZ9rhR5AyWw6edMip5DApv1nUeRc0VgEzdPBDZxlkVVEtgU1Y6VDabLDZvAZmXtCjuwwCaMsupCXa5/gU1cywU2cZZ9rhR5AyWw6edMip5DApv1nUeRc0VgEzdPBDZxlkVVEtgU1Y6VDabLDZvAZmXtCjuwwCaMsupCXa5/gU1cywU2cZZ9rhR5AyWw6edMip5DApv1nUeRc0VgEzdPBDZxlkVVEtgU1Y6VDabLDZvAZmXtCjuwwCaMsupCXa5/gU1cywU2cZZ9rhR5AyWw6edMip5DApv1nUeRc0VgEzdPBDZxlkVVEtgU1Y6VDabLDZvAZmXtCjuwwCaMsupCXa5/gU1cywU2cZZ9rhR5AyWw6edMip5DApv1nUeRc0VgEzdPBDZxlkVVEtgU1Y6VDabLDZvAZmXtCjuwwCaMsupCXa5/gU1cywU2cZZ9rhR5AyWw6edMip5DApv1nUeRc0VgEzdPBDZxlkVVEtgU1Y6VDabLDZvAZmXtCjuwwCaMsupCXa5/gU1cywU2cZZ9rhR5AyWw6edMip5DApv1nUeRc0VgEzdPBDZxlkVVEtgU1Y6VDabLDZvAZmXtCjuwwCaMsupCXa5/gU1cywU2cZZ9rhR5AyWw6edMip5DApv1nUeRc0VgEzdPBDZxlkVVEtgU1Y6VDabLDZvAZmXtCjuwwCaMsupCXa5/gU1cywU2cZZ9rhR5AyWw6edMip5DApv1nUeRc0VgEzdPBDZxlkVVEtgU1Y6VDabLDZvAZmXtCjuwwCaMsupCXa5/gU1cywU2cZZ9rhR5AyWw6edMip5DApv1nUeRc0VgEzdPBDZxlkVVEtgU1Y6VDabLDZvAZmXtCjuwwCaMsupCXa5/gU1cywU2cZZ9rhR5AyWw6edMip5DApv1nUeRc0VgEzdPBDZxlkVVEtgU1Y6VDabLDZvAZmXtCjuwwCaMsupCXa5/gU1cywU2cZZ9rhR5AyWw6edMip5DApv1nUeRc0VgEzdPBDZxlkVVEtgU1Y6VDabLDZvAZmXtCjuwwCaMsupCXa5/gU1cywU2cZZ9rhR5AyWw6edMip5DApv1nUeRc0VgEzdPBDZxlkVVEtgU1Y6VDabLDZvAZmXtCjuwwCaMsupCXa5/gU1cyxcR2Ox15xekq6+8Nm6QKhUvsMOtbprO+eaLw8ZpDoVRVlMoeg6NO3Fzq5opMXagkXNFYBM3HwQ2cZZFVRLYFNWOlQ2myw2bwGZl7Qo7sMAmjLLqQl2uf4FNXMsXEdjEjU4lAgQIECCwOAGBTZytwCbOsqhKApui2rGywXS5YRPYrKxdYQcW2IRRVl2oy/UvsIlrucAmzlIlAgQIEKhLQGAT1y+BTZxlUZUENkW1Y2WD6XLDJrBZWbvCDiywCaOsulCX619gE9dygU2cpUoECBAgUJeAwCauXwKbOMuiKglsimrHygbT5YZNYLOydoUdWGATRll1oS7Xv8AmruUCmzhLlQgQIECgLgGBTVy/BDZxlkVVEtgU1Y6VDabLDZvAZmXtCjuwwCaMsupCXa5/gU1cywU2cZYqESBAgEBdAgKbuH4JbOIsi6oksCmqHSsbTJcbNoHNytoVdmCBTRhl1YW6XP8Cm7iWC2ziLFUiQIAAgboEBDZx/RLYxFkWVUlgU1Q7VjaYLjdsApuVtSvswAKbMMqqC3W5/gU2cS0X2MRZqkSAAAECdQkIbOL6JbCJsyyqksCmqHasbDBdbtgENitrV9iBBTZhlFUX6nL9C2ziWi6wibNUiQABAgTqEhDYxPVLYBNnWVQlgU1R7VjZYLrcsAlsVtausAMLbMIoqy7U5foX2MS1XGATZ6kSAQIECNQlILCJ65fAJs6yqEoCm6LasbLBdLlhE9isrF1hBxbYhFFWXajL9S+wiWu5wCbOUiUCBAgQqEtAYBPXL4FNnGVRlRYR2Lxsjzuk6666sqjzNJjJAns955j03x799Mkbjtjik289IZ1z7MGd9rXT6gR++ha3Ss8+95LQAbj+QzmXVmzW619gE9cagU2cpUoECBAgUJeAwCauXwKbOMuiKi0isCnqBA2GAAECBMIFBDZxpAKbOEuVCBAgQKAuAYFNXL8ENnGWRVUS2BTVDoMhQIBAFQICm7g2CWziLFUiQIAAgboEBDZx/RLYxFkWVUlgU1Q7DIYAAQJVCAhs4toksImzVIkAAQIE6hIQ2MT1S2ATZ1lUJYFNUe0wGAIECFQhILCJa5PAJs5SJQIECBCoS0BgE9cvgU2cZVGVBDZFtcNgCBAgUIWAwCauTQKbOEuVCBAgQKAuAYFNXL8ENnGWRVUS2BTVDoMhQIBAFQICm7g2CWziLFUiQIAAgboEBDZx/RLYxFkWVUlgU1Q7DIYAAQJVCAhs4toksImzVIkAAQIE6hIQ2MT1S2ATZ1lUJYFNUe0wGAIECFQhILCJa5PAJs5SJQIECBCoS0BgE9cvgU2cZVGVBDZFtcNgCBAgUIWAwCauTQKbOEuVCBAgQKAuAYFNXL8ENnGWRVUS2BTVDoMhQIBAFQICm7g2CWziLFUiQIAAgboEBDZx/RLYxFkWVUlgU1Q7DIYAAQJVCAhs4toksImzVIkAAQIE6hIQ2MT1S2ATZ1lUJYFNUe0wGAIECFQhILCJa5PAJs5SJQIECBCoS0BgE9cvgU2cZVGVBDZFtcNgCBAgUIWAwCauTQKbOEuVCBAgQKAuAYFNXL8ENnGWRVUS2BTVDoMhQIBAFQICm7g2CWziLFUiQIAAgboEBDZx/RLYxFkWVUlgU1Q7DIYAAQJVCAhs4toksImzVIkAAQIE6hIQ2MT1S2ATZ1lUJYFNUe0wGAIECFQhILCJa5PAJs5SJQIECBCoS0BgE9cvgU2cZVGVBDZFtcNgCBAgUIWAwCauTQKbOEuVCBAgQKAuAYFNXL8ENnGWRVUS2BTVDoMhQIBAFQICm7g2CWziLFUiQIAAgboEBDZx/RLYxFkWVUlgU1Q7DIYAAQJVCAhs4toksImzVIkAAQIE6hIQ2MT1S2ATZ1lUJYFNUe0wGAIECFQhILCJa5PAJs5SJQIECBCoS0BgE9cvgU2cZVGVBDZFtcNgCBAgUIWAwCauTQKbOEuVCBAgQKAuAYFNXL8ENnGWRVUS2BTVDoMhQIBAFQICm7g2CWziLFUiQIAAgboEBDZx/RLYxFkWVUlgU1Q7DIYAAQJVCAhs4toksImzVIkAAQIE6hIQ2MT1S2ATZ1lUJYFNUe0wGAIECFQhILCJa5PAJs5SJQIECBCoS0BgE9cvgU2cZVGVBDZFtcNgCBAgUIWAwCauTQKbOEuVCBAgQKAuAYFNXL8ENnGWRVUS2BTVDoMhQIBAFQICm7g2CWziLFUiQIAAgboEBDZx/RLYxFkWVUlgU1Q7DIYAAQJVCAhs4toksImzVIkAAQIE6hIQ2MT1S2ATZ1lUJYFNUe0wGAIECFQhILCJa5PAJs5SJQIECBCoS0BgE9cvgU2cZVGVBDZFtcNgCBAgUIWAwCauTQKbOEuVCBAgQKAuAYFNXL8ENnGWRVUS2BTVDoMhQIBAFQICm7g2CWziLFUiQIAAgboEBDZx/RLYxFkWVUlgU1Q7DIYAAQJVCAhs4toksImzVIkAAQIE6hIQ2MT1S2ATZ1lUJYFNUe0wGAIECFQhILCJa5PAJs5SJQIECBCoS0BgE9cvgU2cZVGVBDZFtcNgCBAgUIWAwCauTQKbOEuVCBAgQKAuAYFNXL8ENnGWRVUS2BTVDoMhQIBAFQICm7g2CWziLFUiQIAAgboEBDZx/RLYxFkWVUlgU1Q7DIYAAQJVCAhs4toksImzVIkAAQIE6hIQ2MT1S2ATZ1lUJYFNUe0wGAIECFQhILCJa5PAJs5SJQIECBCoS0BgE9cvgU2cZVGVBDZFtcNgCBAgUIWAwCauTQKbOEuVCBAgQKAuAYFNXL8ENnGWRVUS2BTVDoMhQIBAFQICm7g2CWziLFUiQIAAgboEBDZx/RLYxFkWVUlgU1Q7DIYAAQJVCAhs4toksImzVIkAAQIE6hIQ2MT1S2ATZ1lUJYFNUe0wGAIECFQhILCJa5PAJs5SJQIECBCoS0BgE9cvgU2cZVGVBDZFtcNgCBAgUIWAwCauTQKbOEuVCBAgQKAuAYFNXL8ENnGWRVUS2BTVDoMhQIBAFQICm7g2CWziLFUiQIAAgboEBDZx/RLYxFkWVUlgU1Q7DIYAAQJVCAhs4toksImzVIkAAQIE6hIQ2MT1S2ATZ1lUJYFNUe0wGAIECFQhILCJa9Pue94vnf+xC+MKqkSAAAECBCoR2O0Bu6bzPvrxSkZb9jAFNmX3p/PoBDad6exIgACB3goIbHrbeidOgAABAgQIFCggsCmwKRFDEthEKKpBgACBfgkIbPrVb2dLgAABAgQIlC0gsCm7P51HJ7DpTGdHAgQI9FZAYNPb1jtxAgQIECBAoEABgU2BTYkYksAmQlENAgQI9EtAYNOvfjtbAgQIECBAoGwBgU3Z/ek8OoFNZzo7EiBAoLcCApvett6JEyBAgAABAgUKCGwKbErEkAQ2EYpqECBAoF8CApt+9dvZEiBAgAABAmULCGzK7k/n0QlsOtPZkQABAr0VENj0tvVOnAABAgQIEChQQGBTYFMihiSwiVBUgwABAv0SENj0q9/OlgABAgQIEChbQGBTdn86j05g05nOjgQIEOitgMCmt6134gQIECBAgECBAgKbApsSMSSBTYSiGgQIEOiXgMCmX/12tgQIECBAgEDZAgKbsvvTeXS77rFn+sR5H+u8vx0JECBAoH8C9939AenCcz/avxN3xgQIECBAgACBAgUENgU2xZAIEFicwFve8pZ09tlnp1NPPXVxB1GZAAECBAgQIECAAAECcwoIbOYEtDsBAnUJCGzq6pfREiBAgAABAgQIEOirgMCmr5133gR6KiCw6WnjnTYBAgQIECBAgACBygQENpU1zHAJEJhPQGAzn5+9CRAgQIAAAQIECBBYjoDAZjnOjkKAQCECAptCGmEYBAgQIECAAAECBAhsKSCwMUEIEOiVgMCmV+12sgQIECBAgAABAgSqFRDYVNs6AydAoIuAwKaLmn0IECBAgAABAgQIEFi2gMBm2eKOR4DASgUENivld3ACBAgQIECAAAECBKYUENhMCWUzAgTWQ0Bgsx59dBYECBAgQIAAAQIE1l1AYLPuHXZ+BAhsEhDYmBAECBAgQIAAAQIECNQgILCpoUvGSIBAmIDAJoxSIQIECBAgQIAAAQIEFiggsFkgrtIECJQnILAprydGRIAAAQIECBAgQIDAtgICG7OCAIFeCQhsetVuJ0uAAAECBAgQIECgWgGBTbWtM3ACBLoICGy6qNmHAAECBAgQIECAAIFlCwhsli3ueAQIrFRAYLNSfgcnQIAAAQIECBAgQGBKAYHNlFA2I0BgPQQENuvRR2dBgAABAgQIECBAYN0FBDbr3mHnR4DAJgGBjQlBgAABAgQIECBAgEANAgKbGrpkjAQIhAkIbMIoFSJAgAABAgQIECBAYIECApsF4ipNgEB5AgKb8npiRAQIECBAgAABAgQIbCsgsDErCBDolYDAplftdrIECBAgQIAAAQIEqhUQ2FTbOgMnQKCLgMCmi5p9CBAgQIAAAQIECBBYtoDAZtnijkeAwEoFBDYr5XdwAgQIECBAgAABAgSmFBDYTAllMwIE1kNAYLMefXQWBAgQIECAAAECBNZdQGCz7h12fgQIbBIQ2JgQBAgQIECAAAECBAjUICCwqaFLxkiAQJiAwCaMUiECBAgQIECAAAECBBYoILBZIK7SBAiUJyCwKa8nRkSAAAECBAgQIECAwLYCAhuzggCBXgkIbHrVbidLgAABAgQIECBAoFoBgU21rTNwAgS6CAhsuqjZhwABAgQIECBAgACBZQsIbJYt7ngECKxUQGCzUn4HJ0CAAAECBAgQIEBgSgGBzZRQNiNAYD0EBDbr0UdnQYAAAQIECBAgQGDdBQQ2695h50eAwCYBgY0JQYAAAQIECBAgQIBADQICmxq6ZIwECIQJCGzCKBUiQIAAAQIECBAgQGCBAgKbBeIqTYBAeQICm/J6YkQECBAgQIAAAQIECGwrILAxKwgQ6JXAO9/5zvSJT3wiHXPMMb06bydLgAABAgQIECBAgEBdAgKbuvpltAQIzClw6qmnpg984APpzW9+85yV7E6AAAECBAgQIECAAIHFCQhsFmerMgECBQrkoOaDH/xgetOb3lTg6AyJAAECBAgQIECAAAECPxYQ2JgJBAj0SiAHNR/60IfSG9/4xl6dt5MlQIAAAQIECBAgQKAuAYFNXf0yWgIE5hTIj0Sdf/756TWvec2clexOgAABAgQIECBAgACBxQkIbBZnqzIBAgUKvP71r08XXHBBOuWUUwocnSERIECAAAECBAgQIEDgxwICGzOBAIFeCeSVNZ///OfTSSed1KvzdrIECBAgQIAAAQIECNQlILCpq19GS4DAnAKvetWr0te+9rV0/PHHz1nJ7gQIECBAgAABAgQIEFicgMBmcbYqEyBQoMDLX/7y9N3vfje95CUvKXB0hkSAAAECBAgQIECAAIEfCwhszAQCBHolcNRRR6Ub3ehG6ZBDDunVeTtZAgQIECBAgAABAgTqEhDY1NUvoyVAYE6BBz3oQenFL35xuu997ztnJbsTIECAAAECBAgQIEBgcQICm8XZqkyAQGEC5513XnrlK1+ZzjzzzMJGZjgECBAgQIAAAQIECBDYLCCwMSMIEOiNwNvf/vaU/98ZZ5zRm3N2ogQIECBAgAABAgQI1CkgsKmzb0ZNgEAHgde+9rXpS1/6kl+I6mBnFwIECBAgQIAAAQIElisgsFmut6MRILBCgVe84hXp29/+dsq/FOUPAQIECBAgQIAAAQIEShYQ2JTcHWMjQCBU4Oijj05XXXWVn/QOVVWMAAECBAgQIECAAIFFCAhsFqGqJgECRQocc8wxabvttksHH3xwkeMzKAIECBAgQIAAAQIECDQCAhtzgQCB3ggcfvjh6SY3uUk67LDDenPOTpQAAQIECBAgQIAAgToFBDZ19s2oCRDoIPCCF7wg/czP/Ew69NBDO+xtFwIECBAgQIAAAQIECCxPQGCzPGtHIkBgxQLPf/7z0y1ucYt0yCGHrHgkDk+AAAECBAgQIECAAIGtBQQ2ZggBAr0ROPbYY9PNb37z9LSnPa035+xECRAgQIAAAQIECBCoU0BgU2ffjJoAgQ4CeWXNrW51q/S85z2vw952IUCAAAECBAgQIECAwPIEBDbLs3YkAgRWLCCwWXEDHJ4AAQIECBAgQIAAgakFBDZTU9mQAIHaBQQ2tXfQ+AkQIECAAAECBAj0R0Bg059eO1MCvRcQ2PR+CgAgQIAAAQIECBAgUI2AwKaaVhkoAQLzCghs5hW0PwECBAgQIECAAAECyxIQ2CxL2nEIEFi5gMBm5S0wAAIECBAgQIAAAQIEphQQ2EwJZTMCBOoXENjU30NnQIAAAQIECBAgQKAvAgKbvnTaeRIgkAQ2JgEBAgQIECBAgAABArUICGxq6ZRxEiAwt4DAZm5CBQgQIECAAAECBAgQWJKAwGZJ0A5DgMDqBQQ2q++BERAgQIAAAQIECBAgMJ2AwGY6J1sRILAGAgKbNWiiUyBAgAABAgQIECDQEwGBTU8a7TQJEEjeYWMSECBAgAABAgQIECBQjYDApppWGSgBAvMKWGEzr6D9CRAgQIAAAQIECBBYloDAZlnSjkOAwMoFBDYrb4EBECBAgAABAgQIECAwpYDAZkoomxEgUL+AwKb+HjoDAgQIECBAgAABAn0RENj0pdPOkwAB77AxBwgQIECAAAECBAgQqEZAYFNNqwyUAIF5BaywmVfQ/gQIECBAgAABAgQILEtAYLMsacchQGDlAgKblbfAAAgQIECAAAECBAgQmFJAYDMllM0IEKhfQGBTfw+dAQECBAgQIECAAIG+CAhs+tJp50mAgHfYmAMECBAgQIAAAQIECFQjILCpplUGSoDAvAJW2MwraH8CBAgQIECAAAECBJYlILBZlrTjECCwcgGBzcpbYAAECBAgQIAAAQIECEwpILCZEspmBAjULyCwqb+HzoAAAQIECBAgQIBAXwQENn3ptPMkQMA7bMwBAgQIECBAgAABAgSqERDYVNMqAyVAYF4BK2zmFbQ/AQIECBAgQIAAAQLLEhDYLEvacQgQWLmAwGblLTAAAgQIECBAgAABAgSmFBDYTAllMwIE6hcQ2NTfQ2dAgAABAgQIECBAoC8CApu+dNp5EiDgHTbmAAECBAgQIECAAAEC1QgIbKpplYESIDCvgBU28wranwABAgQIECBAgACBZQkIbJYl7TgECKxcQGCz8hYYAAECBAgQIECAAAECUwoIbKaEshkBAvULCGzq76EzIECAAAECBAgQINAXAYFNXzrtPAkQ8A4bc4AAAQIECBAgQIAAgWoEBDbVtMpACRCYV8AKm3kF7U+AAAECBAgQIECAwLIEBDbLkl7ycR5w313TuZ/8xJKPuj6HO+AJ+6dXn3Ly+pyQMxkICGxMBAIECBAgQIAAAQIEahEQ2NTSqRnHud1226VLnvi8GfeyeRb4wncvS8//h0+li770RSBrJiCwWbOGOh0CBAgQIECAAAECaywgsFnT5gpsujdWYNPdrvQ9BTald8j4CBAgQIAAAQIECBBoBAQ2azoXBDbdGyuw6W5X+p4Cm9I7ZHwECBAgQIAAAQIECAhs1nwOCGy6N1hg092u9D0FNqV3yPgIECBAgAABAgQIEBDYrPkcENh0b7DAprtd6XsKbErvkPERIECAAAECBAgQICCwWfM5ILDp3mCBTXe7UvY8++yz09577z31cG5yk5ukD3/4w2m33Xabeh8bEiBAgAABAgQIECBAYJEC3mGzSN0V1hbYdMcX2HS3K2XP6667Lt3qVrdK11577cQhzbLtxGI2IECAAAECBAgQIECAQJCAwCYIsrQyApvuHRHYdLcrac9pH3+adruSzs1YCBAgQIAAAQIE/l97dx9rS1XeAXhIhUYhaCoNfhAxNtcaS8RqQEELqIFQpaQqkqYagtrWqG2IsalGGxv/wDRaJSa1RmMIoWoaFW0ptQaCCi0I3BRrc6tGUlM/0WhbRfwCE5q10zmduz37nll79ntmrbWf80+vnDVr3vW8a246vzt7NgEC7QsIbBrtscBm/cYKbNa3K+nIMU/OjBlT0prUQoAAAQIECBAgQIDA9ggIbBrttcBm/cYKbNa3K+3IvZ6e2ev3pa1HPQQIECBAgAABAgQIbI+AwKbRXgts1m+swGZ9u9KOPNITNJ6uKa1b6iFAgAABAgQIECBAYCggsGl0Pwhs1m+swGZ9uxKPXPUUjadrSuyWmggQIECAAAECBAgQ6AUENo3uBYHN+o0V2KxvV+KRuz1J4+maEjulJgIECBAgQIAAAQIEhgICm0a0/6xaAAAgAElEQVT3g8Bm/cYKbNa3K/XI5adpPF1TaqfURYAAAQIECBAgQIBALyCwaXQvCGzWb6zAZn27Uo8cPlHj6ZpSu6QuAgQIECBAgAABAgSGAgKbRveDwGb9xgps1rcr+cj+qZrvf//73UMf+tDu9a9/fcnlqo0AAQIECBAgQIAAgS0XENg0ugEENus3VmCzvl3JR6Yna44//vguXRs/+clPSi5VbQQIECBAgAABAgQIEOgENo1uAoHN+o0V2KxvV/qRb3vb27pjjz22e9WrXlV6qeojQIAAAQIECBAgQGDLBQQ2jW4Agc36jRXYrG/nSAIECBAgQIAAAQIECBDYjIDAZjOOxc2SAhs/BAgQIEAgR+Cs05/W3XT7bTmHGEuAAAECBAgQIBAkILAJgp17Wk/YzN0B5ydAgEB9Ao963593DzzwQH2Fq5gAAQIECBAg0KCAwKbBpqYlCWwabaxlESBAIFBAYBOIa2oCBAgQIECAQKaAwCYTrJbhAptaOqVOAgQIlCMgsCmnFyohQIAAAQIECAhsGt0DAptGG7uFy0ovgX7+dR/ofvyz+3dW/+AHHd197IIXd0864RHhItd/5a7uPYcOdlefd1F37NHHhJ/PCQjMKSCwmVPfuQkQIECAAAEChwsIbBrdEQKbRhu7hctKgc3Lbvhod+W5L9gJaFKI8spPXbtvoc0WslvylgoIbLa08ZZNgAABAgQIFCkgsCmyLdOLEthMNzRDGQK7BTapsstuum5R4DvPvmDxf9P//vBdhxZ/fuNp53SvPvXp3Q/vv6+75PqPdKefeFL33kMHF0/ppN996XvfXYx99HHHd9ddeEl34kOO6779o3u7C669uvvGvfcs5njRgVMWcw+fsHnDrdd399z30+7mb/znYq4zHvkYT96UsU1UsSEBgc2GIE1DgAABAgQIENiAgMBmA4glTiGwKbEralpHYFVgMwxSrvr8nd1VX7hzEb6k4CV9hOrdz7qwe8ajTl4ENuknfaTplm9+pbv0hmsWoc2lT3zK4nfPPulxh/05BT3Dc37rhz/Y+UhUCmxuvfurP3ee804+sM7SHEOgOAGBTXEtURABAgQIECCwxQICm0abL7BptLFbuKwxgU0KUh7/sBMWT9Wkn/7pm7eced5OKNMHMa+9+ePd+8+/ePFUTRo3PK7nTaHPSz7xoe7tZz23Ww5s0pj05E3/9M4rTjmtE9hs4cZsdMkCm0Yba1kECBAgQIBAlQICmyrbtnfRApu9jYyoQ2BVYPOuz93WffLrX148SZPeZ5OelOkDm/S79LGnPrDpQ5U016rAJj2xk56+6X/6FxsvBzZ9wCOwqWP/qDJPQGCT52U0AQIECBAgQCBSQGATqTvj3AKbGfGdeqMCY95hs/ykzPITNnsFNhcdOGXx/prLzzh38bTMkZ6wEdhstL0mK0xAYFNYQ5RDgAABAgQIbLWAwKbR9gtsGm3sFi5rzLdEpSdqjvQOm9zAJs33js/esvgWKk/YbOGm2+IlC2y2uPmWToAAAQIECBQnILApriWbKUhgsxlHs8wvkAKb9BLh9K1M/U//caUnnfCInf92pG+J2iuwSR+lSiHN5Qc/vZjvsief2d3x7a936bj0855DBxcvLR6+K8dHoubfGyrYvIDAZvOmZiRAgAABAgQIrCsgsFlXrvDjBDaFN0h5BAgQKFBAYFNgU5REgAABAgQIbK2AwKbR1gtsGm2sZREgQCBQQGATiGtqAgQIECBAgECmgMAmE6yW4QKbWjqlTgIECJQjILAppxcqIUCAAAECBAgIbBrdAwKbRhtrWQQIEAgUENgE4pqaAAECBAgQIJApILDJBKtluMCmlk6pkwABAuUICGzK6YVKCBAgQIAAAQICm0b3gMCm0cZaFgECBAIFBDaBuKYmQIAAAQIECGQKCGwywWoZLrCppVPqJECAQDkCAptyeqESAgQIECBAgIDAptE9ILBptLGWRYAAgUABgU0grqkJECBAgAABApkCAptMsFqGC2xq6ZQ6CRAgUI6AwKacXqiEAAECBAgQICCwaXQPCGwabaxlESBAIFBAYBOIa2oCBAgQIECAQKaAwCYTrJbhAptaOqVOAgQIlCMgsCmnFyohQIAAAQIECAhsGt0DAptGG2tZBAgQCBQQ2ATimpoAAQIECBAgkCkgsMkEq2W4wKaWTqmTAAEC5QgIbMrphUoIECBAgAABAgKbRveAwKbRxloWAQIEAgUENoG4piZAgAABAgQIZAoIbDLBahkusKmlU+okQIBAOQICm3J6oRICBAgQIECAgMCm0T0gsGm0sZZFgACBQAGBTSCuqQkQIECAAAECmQICm0ywWoYLbGrplDoJECBQjoDAppxeqIQAAQIECBAgILBpdA8IbBptrGURIEAgUEBgE4hragIECBAgQIBApoDAJhOsluECm1o6pU4CBAiUIyCwKacXKiFAgAABAgQICGwa3QMCm0Yba1kECBAIFBDYBOKamgABAgQIECCQKSCwyQSrZbjAppZOqZMAAQLlCAhsyumFSggQIECAAAECAptG94DAptHGWhYBAgQCBQQ2gbimJkCAAAECBAhkCghsMsFqGS6wqaVT6iRAgEA5AgKbcnqhEgIECBAgQICAwKbRPSCwabSxlkWAAIFAAYFNIK6pCRAgQIAAAQKZAgKbTLBahgtsaumUOgkQIFCOgMCmnF6ohAABAgQIECAgsGl0DwhsGm2sZREgQCBQQGATiGtqAgQIECBAgECmgMAmE6yW4QKbWjqlTgIECJQjILAppxcqIUCAAAECBAgIbBrdAwKbRhtrWQQIEAgUENgE4pqaAAECBAgQIJApILDJBKtluMCmlk6pkwABAuUICGzK6YVKCBAgQIAAAQICm0b3gMCm0cZaFgECBAIFBDaBuKYmQIAAAQIECGQKCGwywWoZLrCppVPqJECAQDkCAptyeqESAgQIECBAgIDAptE9ILBptLGWRYAAgUABgU0grqkJECBAgAABApkCAptMsFqGC2xq6ZQ6CRAgUI6AwKacXqiEAAECBAgQICCwaXQPCGwabaxlESBAIFBAYBOIa2oCBAgQIECAQKaAwCYTrJbhAptaOqVOAgQIlCMgsCmnFyohQIAAAQIECAhsGt0DAptGG2tZBAgQCBQQ2ATimpoAAQIECBAgkCkgsMkEq2W4wKaWTqmTAAEC5QgIbMrphUoIECBAgAABAgKbRveAwKbRxloWAQIEAgUENoG4piZAgAABAgQIZAoIbDLBahkusKmlU+okQIBAOQICm3J6oRICBAgQIECAgMCm0T0gsGm0sZZFgACBQAGBTSCuqQkQIECAAAECmQICm0ywWoYLbGrplDoJECBQjoDAppxeqIQAAQIECBAgILBpdA8IbBptrGURIEAgUEBgE4hragIECBAgQIBApoDAJhOsluECm1o6pU4CBAiUIyCwKacXKiFAgAABAgQICGwa3QMCm0Yba1kECBAIFBDYBOKamgABAgQIECCQKSCwyQSrZXhEYPOEq6/o7rnvp7UQVF3nLxx1VPe1l79u9jW879DB7k233Th7HdtSwPknH+iuPPeFRS7X9b9/bZnz+hfY7F+fnYkAAQIECBAgsJeAwGYvoUp/HxHYpP9H/pu/9/pKReoqO1mnn7m9X/gPH1zUcc3zfrcuwAqrTdb//l/f7n7t4ScW6e36379NNef1L7DZvz47EwECBAgQIEBgLwGBzV5Clf5eYFNp4/6v7P7meO6bZIHN/u2j3ro/Y2kh2dx7cf86Mf+Z5rz+BTbz918FBAgQIECAAIFeQGDT6F4Q2NTd2OHN8Zw3ygKb/dtHQ+sS3efch/vXhTLONOf1L7ApYw+oggABAgQIECCQBAQ2je4DgU3djV2+OZ7rZrnE4KDuzq6uftm6NPu59mCr/T7Suua8/gU227jjrJkAAQIECBAoVUBgU2pnJtYlsJkIOPPhu90cz3HDXFpoMHNbQk+/m3VJ/nPsv1Dwgief8/oX2BS8MZRGgAABAgQIbJ2AwKbRlgts6m7sqpvj/b5pLikwqLuje1e/yrqUHuz33ttbrN0Rc17/Apt295WVESBAgAABAvUJCGzq69moigU2o5iKHXSkm+P9vHEuJSwotlEbLOxI1iX0YT/33QZZq5xqzutfYFPlllE0AQIECBAg0KiAwKbVxh511Ma/EtoN2/5tlr2s9/r9piotISjY1FpKn2cv671+H72+/dpz0euoYf69rPf6/ZQ1Cmym6DmWAAECBAgQILBZAYHNZj2LmW0/nrC5/it3dZfecM3Omt942jndq099+qwG//bdb3Wvvfnj3fvPv7j79o/u3fnziQ85bta6ck8+5oZszJjc8y6PXxUSXHbTdd3X772nu/q8i7pjjz5mcVjyfsknPtS9/azndr/y0F/qLrn+I90rTjmtO+/kAyvLGParth5NtR1rPRw3Z2jT77fU5wuuvbr7xr33HLaEMx75mMP2w6Z8NnFNv+tzt3Wf/PqXQ+rb1DqH84y5tseMWac2gc06ao4hQIAAAQIECMQICGxiXGefNTqwSWHNKz91bfexC17cPemER3Q/vP++xQ36s0963KyhTSsBwNibsbHj1t2QuwUEyfjNt39yMeWfPe3Zi/4LbNYV/v/jxoYxY8dNr+jwGZYDm8vPOHcnjIu8/gU2qzsZcf0LbDZ95ZiPAAECBAgQILC+gMBmfbuij4wMbFbdnC2HJcMncPp/fU9oKdg5/cSTuvceOtj9+Gf3d+nJnC9977vdh+861D36uOO76y68pDvu6GN2Hdc/wZPO9fzrPrA4vj8mzd3/y3/6b2995vndW+749OJpm/T0xvCY4dMA6V/fLz/46UU/H/ygo38uhPrM3V9d/O6qc194xKdFNrkhcm7Ecsbm1rhbOJC8+p/Ut3eefcFOYJeskuEHz7+4e+u//NPOEzZj+pX6/rnv3H3YU1v7aZ5rs+nxOUFMzthN1XmkwCadI+2Lfj+k/73b9Z+exhr+9+XrvX8ia/i0VporPTV3xdnP6156wzWLJ3v64460X/rzpP141qMf291z308XT9j0fwfNcV2P7UXONZ0zdsz5BTZjlIwhQIAAAQIECOyPgMBmf5z3/SyRgU26+X7ZDR/trjz3BTtPVywvsL9Bf/ezLuye8aiTF+HLSccd373lzPMWf04/6ebplm9+ZXGDnkKbS5/4lJ2ndPo/f/UH31sEOOkGrj9nCl9SMNP/C//w4zn/8f3/3vUjUel8/cd10hMh6ZjHP+yE7sDDHt698TM3LM6R5k3/Pf2kEGI4b6pz+ERRdENzb8Jyx4+tfzkYSGHdH37677vX/PozFl6v+tS13V8968LFn1d9JOrUX37k6H4N91VtH2MZa7pqXG4Ikzt+an05T9gM/47oPx6Xrv83nHbOYddhH/711/uRApvljzkO/05I1/Rwv6S/B1KgO/z7p/875w23Xr/zcb79vq7H9iD3es4df6Q6BDZju2QcAQIECBAgQCBeQGATbzzLGaIDm/49MaveO5L+dfs9hw7uvDMi/e8UjHzoN3+n++N//sTOR6eWn8rpg5RheNM/VbMqZFn1kYnhO2zSv8QP61nVlP4pgT5Y6m8gIz/ysVst69yArXPMXptzORRI1ld89pbuL8/5rcW7a1JPnvfYX108ebQqsEnnGIZiYz/isryH9qq19t+vE8Csc8y6Tnu9w+ZFB05ZBJ3pZzls63v5F888v/uDG/928Z6j/qN0aXx/feUENst/9wz3Swpilv/+Sf87BTgpeJ3ruh5rv861vM4xq/7ueeCBB8aWahwBAgQIECBAgECggMAmEHfOqaMDm72esFm+Yetv0t/7nN9eBDb9DdNegc3wpbXDwGb4suPk3H+UKf15t5cOf+SuQ7u+dLS/Uew/HpGOTzee6UmA4VM86b/359+PFyuve/O17nGr9upyIDD8+Fh/TH+jfqTAZky/+iec0kfj+p+oF9nOeW2OtR5b436FNquesNntibvd9kn/Maa0T/qPMy5/VDI3sEnX5G775arP33nY9T4MjC7+x7/ZeTpvv6/rsT1d9zpe97hhXZ6wGdsl4wgQIECAAAEC8QICm3jjWc4QGdisetok3Yj1H5FZfqJl+QmbsYFN/xLj4TnTx5hWPS2z6umNVU/YLAdLpTxh84Srr1i8c2Odn1846qjuay9/3TqH/twxwzCg/3ag4ctmhyFNClx2+5aoNOmYfqUeDZ/E2bYnbN536GD3pttuXLtv5598oLvy3BeuffxeBx7pI1HpurnqC3fufLRw+X02q+Zedb0NQ6B07G4h7JH2S+1P2Mx5/Qts9roS/J4AAQIECBAgsH8CApv9s97XM0UGNmkhq74lKr2nIn0sYq932IwNbNK50rtu0jspVr3DZnizOPwY1PKfh08F9e+qSe+x6b/u997771s8VXPmIx8z+ztspmyWTfwre3/+YWDTh279+37SmGGQdtGBU3YNbJbfYbOqX8Mb8P6l033/+68On+LS8rH78ZTNuu+w6d8Zlb4G/k+e+hvdn956w86LwJffYdP//ZH++zs+e8viBeBjApvl/dJfyylc7N+h1e+lGt5hM2WvTr3+BTZT9B1LgAABAgQIENisgMBms57FzBYd2PShzfCjLsN3WCz/ftVHH/b6SFS6ges/8jD8xqDhtw4Nv9mpfwoknX/5W6J2+9aa/sau/+aZPzr1jO7vvvyFar5NZrcNN/WGbTjnMAgYvpB5OKYPYPr3E/3rd+4+4rdErepXf3z/TVPpK8P/+guf3bm5L+biKrCQuQOb3ULc3b4NKj2FNfy41PAjb8Nr+qVPfGp3x7e+tnjXzTCwSX9OoWr62Wu/DM9/2ZPP7L74P99ZvHsp/aQXn5f8LVFTttjU619gM0XfsQQIECBAgACBzQoIbDbrWcxs+xHYRC52+SWkkedqbe6pN2yrApvWnFpaz34GNi25tbiWqde/wKbFXWFNBAgQIECAQK0CAptaO7dH3QKbRhs7YllTb9gENiOQCxsisCmsITOWM/X6F9jM2DynJkCAAAECBAgsCQhsGt0StQc2jbZlX5Y19YZNYLMvbdroSQQ2G+WserKp17/Apur2K54AAQIECBBoTEBg01hD++UIbBpt7IhlTb1hE9iMQC5siMCmsIbMWM7U619gM2PznJoAAQIECBAgsCQgsGl0SwhsGm3siGVNvWET2IxALmyIwKawhsxYztTrX2AzY/OcmgABAgQIECAgsNmOPSCw2Y4+77bKqTdsApv69o7Apr6eRVU89foX2ER1xrwECBAgQIAAgXwBT9jkm1VxhMCmijaFFDn1hk1gE9KW0EkFNqG8VU0+9foX2FTVbsUSIECAAAECjQsIbBptsMCm0caOWNbUGzaBzQjkwoYIbApryIzlTL3+BTYzNs+pCRAgQIAAAQJLAgKbRreEwKbRxo5Y1tQbNoHNCOTChghsCmvIjOVMvf4FNjM2z6kJECBAgAABAgKb7dgDApvt6PNuq5x6wyawqW/vCGzq61lUxVOvf4FNVGfMS4AAAQIECBDIF/CETb5ZFUcIbKpoU0iRU2/YBDYhbQmdVGATylvV5FOvf4FNVe1WLAECBAgQINC4gMCm0QYLbBpt7IhlTb1hE9iMQC5siMCmsIbMWM7U619gM2PznJoAAQIECBAgsCQgsGl0SwhsGm3siGVNvWET2IxALmyIwKawhsxYztTrX2AzY/OcmgABAgQIECAgsNmOPSCw2Y4+77bKqTdsApv69o7Apr6eRVU89foX2ER1xrwECBAgQIAAgXwBT9jkm1VxhMCmijaFFDn1hk1gE9KW0EkFNqG8VU0+9foX2FTVbsUSIECAAAECjQsIbBptsMCm0caOWNbUGzaBzQjkwoYIbApryIzlTL3+BTYzNs+pCRAgQIAAAQJLAgKbRreEwKbRxo5Y1tQbNoHNCOTChghsCmvIjOVMvf4FNjM2z6kJECBAgAABAgKb7dgDApvt6PNuq5x6wyawqW/vCGzq61lUxVOvf4FNVGfMS4AAAQIECBDIF/CETb5ZFUcIbKpoU0iRU2/YBDYhbQmdVGATylvV5FOvf4FNVe1WLAECBAgQINC4gMCm0QYLbBpt7IhlTb1hE9iMQC5siMCmsIbMWM7U619gM2PznJoAAQIECBAgsCQgsGl0SwhsGm3siGVNvWET2IxALmyIwKawhsxYztTrX2AzY/OcmgABAgQIECAgsNmOPSCw2Y4+77bKqTdsApv69o7Apr6eRVU89foX2ER1xrwECBAgQIAAgXwBT9jkm1VxhMCmijaFFDn1hk1gE9KW0EkFNqG8VU0+9foX2FTVbsUSIECAAAECjQsIbBptsMCm0caOWNbUGzaBzQjkwoYIbApryIzlTL3+BTYzNs+pCRAgQIAAAQJLAgKbRreEwKbRxo5Y1tQbNoHNCOTChghsCmvIjOVMvf4FNjM2z6kJECBAgAABAgKb7dgDApvt6PNuq5x6wyawqW/vCGzq61lUxVOvf4FNVGfMS4AAAQIECBDIF/CETb5ZFUcIbKpoU0iRU2/YBDYhbQmdVGATylvV5FOvf4FNVe1WLAECBAgQINC4gMCm0QYLbBpt7IhlTb1hE9iMQC5siMCmsIbMWM7U619gM2PznJoAAQIECBAgsCQgsGl0SwhsGm3siGVNvWET2IxALmyIwKawhsxYztTrX2AzY/OcmgABAgQIECAgsNmOPSCw2Y4+77bKqTdsApv69o7Apr6eRVU89foX2ER1xrwECBAgQIAAgXwBT9jkm1VxhMCmijaFFDn1hk1gE9KW0EkFNqG8VU0+9foX2FTVbsUSIECAAAECjQsIbBptsMCm0caOWNbUGzaBzQjkwoYIbApryIzlTL3+BTYzNs+pCRAgQIAAAQJLAgKbRreEwKbRxo5Y1tQbNoHNCOTChghsCmvIjOVMvf4FNjM2z6kJECBAgAABAgKb7dgDApvt6PNuq5x6wyawqW/vCGzq61lUxVOvf4FNVGfMS4AAAQIECBDIF/CETb5ZFUcIbKpoU0iRU2/YBDYhbQmdVGATylvV5FOvf4FNVe1WLAECBAgQINC4gMCm0QYLbBpt7IhlTb1hE9iMQC5siMCmsIbMWM7U619gM2PznJoAAQIECBAgsCQgsGl0SwhsGm3siGVNvWET2IxALmyIwKawhsxYztTrX2AzY/OcmgABAgQIECAgsNmOPRAR2Dzh6iu6e+776XYAVrzK44/5xe6Ll7xmIyt436GD3Ztuu3Ejc5kkVuDNT39O9/unnBZ2Etd/GO1GJ556/QtsNtoOkxEgQIAAAQIEJgl4wmYSX7kHRwQ25a5WZQQIECCwCQGBzSYUzUGAAAECBAgQ2IyAwGYzjsXNIrApriUKIkCAQPECApviW6RAAgQIECBAYIsEBDaNNltg02hjLYsAAQKBAgKbQFxTEyBAgAABAgQyBQQ2mWC1DBfY1NIpdRIgQKAcAYFNOb1QCQECBAgQIEBAYNPoHhDYNNpYyyJAgECggMAmENfUBAgQIECAAIFMAYFNJlgtwwU2tXRKnQQIEChHQGBTTi9UQoAAAQIECBAQ2DS6BwQ2jTbWsggQIBAoILAJxDU1AQIECBAgQCBTQGCTCVbLcIFNLZ1SJwECBMoRENiU0wuVECBAgAABAgQENo3uAYFNo421LAIECAQKCGwCcU1NgAABAgQIEMgUENhkgtUyXGBTS6fUSYAAgXIEBDbl9EIlBAgQIECAAAGBTaN7QGDTaGMtiwABAoECAptAXFMTIECAAAECBDIFBDaZYLUMF9jU0il1EiBAoBwBgU05vVAJAQIECBAgQEBg0+geENg02ljLIkCAQKCAwCYQ19QECBAgQIAAgUwBgU0mWC3DBTa1dEqdBAgQKEdAYFNOL1RCgAABAgQIEBDYNLoHBDaNNtayCBAgECggsAnENTUBAgQIECBAIFNAYJMJVstwgU0tnVInAQIEyhEQ2JTTC5UQIECAAAECBAQ2je4BgU2jjbUsAgQIBAoIbAJxTU2AAAECBAgQyBQQ2GSC1TJcYFNLp9RJgACBcgQENuX0QiUECBAgQIAAAYFNo3tAYNNoYy2LAAECgQICm0BcUxMgQIAAAQIEMgUENplgtQwX2NTSKXUSIECgHAGBTTm9UAkBAgQIECBAQGDT6B4Q2DTaWMsiQIBAoIDAJhDX1AQIECBAgACBTAGBTSZYLcMFNrV0Sp0ECBAoR0BgU04vVEKAAAECBAgQENg0ugcENo021rIIECAQKCCwCcQ1NQECBAgQIEAgU0BgkwlWy3CBTS2dUicBAgTKERDYlNMLlRAgQIAAAQIEBDaN7gGBTaONtSwCBAgECghsAnFNTYAAAQIECBDIFBDYZILVMlxgU0un1EmAAIFyBAQ25fRCJQQIECBAgAABgU2je0Bg02hjLYsAAQKBAgKbQFxTEyBAgAABAgQyBQQ2mWC1DBfY1NIpdRIgQKAcAYFNOb1QCQECBAgQIEBAYNPoHhDYNNpYyyJAgECggMAmENfUBAgQIECAAIFMAYFNJlgtwwU2tXRKnQQIEChHQGBTTi9UQoAAAQIECBAQ2DS6BwQ2jTbWsggQIBAoILAJxDU1AQIECBAgQCBTQGCTCVbLcIFNLZ1SJwECBMoRENiU0wuVECBAgAABAgQENo3uAYFNo421LAIECAQKCGwCcU1NgAABAgQIEMgUENhkgtUyXGBTS6fUSYAAgXIEBDbl9EIlBAgQIECAAAGBTaN7QGDTaGMtiwABAoECAptAXFMTIECAAAECBDIFBDaZYLUMF9jU0il1EiBAoBwBgU05vVAJAQIECBAgQEBg0+geENg02ljLIkCAQKCAwCYQ19QECBAgQIAAgUwBgU0mWC3DBTa1dEqdBAgQKEdAYFNOL1RCgAABAgQIEBDYNLoHBDaNNm1/Y2IAAAnvSURBVNayCBAgECggsAnENTUBAgQIECBAIFNAYJMJVstwgU0tnVInAQIEyhEQ2JTTC5UQIECAAAECBAQ2je4BgU2jjbUsAgQIBAoIbAJxTU2AAAECBAgQyBQQ2GSC1TJcYFNLp9RJgACBcgQENuX0QiUECBAgQIAAAYFNo3tAYNNoYy2LAAECgQICm0BcUxMgQIAAAQIEMgUENplgtQwX2NTSKXUSIECgHAGBTTm9UAkBAgQIECBAQGDT6B4Q2DTaWMsiQIBAoIDAJhDX1AQIECBAgACBTAGBTSZYLcMFNrV0Sp0ECBAoR0BgU04vVEKAAAECBAgQENg0ugcENo021rIIECAQKCCwCcQ1NQECBAgQIEAgU0BgkwlWy3CBTS2dUicBAgTKERDYlNMLlRAgQIAAAQIEBDaN7gGBTaONtSwCBAgECghsAnFNTYAAAQIECBDIFBDYZILVMlxgU0un1EmAAIFyBAQ25fRCJQQIECBAgAABgU2je0Bg02hjLYsAAQKBAgKbQFxTEyBAgAABAgQyBQQ2mWC1DBfY1NIpdRIgQKAcAYFNOb1QCQECBAgQIEBAYNPoHhDYNNpYyyJAgECggMAmENfUBAgQIECAAIFMAYFNJlgtwwU2tXRKnQQIEChHQGBTTi9UQoAAAQIECBAQ2DS6B85+2tO7m++4vdHVWRYBAgQIRAicdfrTuptuvy1ianMSIECAAAECBAhkCghsMsEMJ0CAAAECBAgQIECAAAECBAhECwhsooXNT4AAAQIECBAgQIAAAQIECBDIFBDYZIIZToAAAQIECBAgQIAAAQIECBCIFhDYRAubnwABAgQIECBAgAABAgQIECCQKSCwyQQznAABAgQIECBAgAABAgQIECAQLSCwiRY2PwECBAgQIECAAAECBAgQIEAgU0BgkwlmOAECBAgQIECAAAECBAgQIEAgWkBgEy1sfgIECBAgQIAAAQIECBAgQIBApoDAJhPMcAIECBAgQIAAAQIECBAgQIBAtIDAJlrY/AQIECBAgAABAgQIECBAgACBTAGBTSaY4QQIECBAgAABAgQIECBAgACBaAGBTbSw+QkQIECAAAECBAgQIECAAAECmQICm0wwwwkQIECAAAECBAgQIECAAAEC0QICm2hh8xMgQIAAAQIECBAgQIAAAQIEMgUENplghhMgQIAAAQIECBAgQIAAAQIEogUENtHC5idAgAABAgQIECBAgAABAgQIZAoIbDLBDCdAgAABAgQIECBAgAABAgQIRAsIbKKFzU+AAAECBAgQIECAAAECBAgQyBQQ2GSCGU6AAAECBAgQIECAAAECBAgQiBYQ2EQLm58AAQIECBAgQIAAAQIECBAgkCkgsMkEM5wAAQIECBAgQIAAAQIECBAgEC0gsIkWNj8BAgQIECBAgAABAgQIECBAIFNAYJMJZjgBAgQIECBAgAABAgQIECBAIFpAYBMtbH4CBAgQIECAAAECBAgQIECAQKaAwCYTzHACBAgQIECAAAECBAgQIECAQLSAwCZa2PwECBAgQIAAAQIECBAgQIAAgUwBgU0mmOEECBAgQIAAAQIECBAgQIAAgWgBgU20sPkJECBAgAABAgQIECBAgAABApkCAptMMMMJECBAgAABAgQIECBAgAABAtECAptoYfMTIECAAAECBAgQIECAAAECBDIFBDaZYIYTIECAAAECBAgQIECAAAECBKIFBDbRwuYnQIAAAQIECBAgQIAAAQIECGQKCGwywQwnQIAAAQIECBAgQIAAAQIECEQLCGyihc1PgAABAgQIECBAgAABAgQIEMgUENhkghlOgAABAgQIECBAgAABAgQIEIgWENhEC5ufAAECBAgQIECAAAECBAgQIJApILDJBDOcAAECBAgQIECAAAECBAgQIBAtILCJFjY/AQIECBAgQIAAAQIECBAgQCBTQGCTCWY4AQIECBAgQIAAAQIECBAgQCBaQGATLWx+AgQIECBAgAABAgQIECBAgECmgMAmE8xwAgQIECBAgAABAgQIECBAgEC0gMAmWtj8BAgQIECAAAECBAgQIECAAIFMAYFNJpjhBAgQIECAAAECBAgQIECAAIFoAYFNtLD5CRAgQIAAAQIECBAgQIAAAQKZAgKbTDDDCRAgQIAAAQIECBAgQIAAAQLRAgKbaGHzEyBAgAABAgQIECBAgAABAgQyBQQ2mWCGEyBAgAABAgQIECBAgAABAgSiBQQ20cLmJ0CAAAECBAgQIECAAAECBAhkCghsMsEMJ0CAAAECBAgQIECAAAECBAhECwhsooXNT4AAAQIECBAgQIAAAQIECBDIFBDYZIIZToAAAQIECBAgQIAAAQIECBCIFhDYRAubnwABAgQIECBAgAABAgQIECCQKSCwyQQznAABAgQIECBAgAABAgQIECAQLSCwiRY2PwECBAgQIECAAAECBAgQIEAgU0BgkwlmOAECBAgQIECAAAECBAgQIEAgWkBgEy1sfgIECBAgQIAAAQIECBAgQIBApoDAJhPMcAIECBAgQIAAAQIECBAgQIBAtIDAJlrY/AQIECBAgAABAgQIECBAgACBTAGBTSaY4QQIECBAgAABAgQIECBAgACBaAGBTbSw+QkQIECAAAECBAgQIECAAAECmQICm0wwwwkQIECAAAECBAgQIECAAAEC0QICm2hh8xMgQIAAAQIECBAgQIAAAQIEMgUENplghhMgQIAAAQIECBAgQIAAAQIEogUENtHC5idAgAABAgQIECBAgAABAgQIZAoIbDLBDCdAgAABAgQIECBAgAABAgQIRAsIbKKFzU+AAAECBAgQIECAAAECBAgQyBQQ2GSCGU6AAAECBAgQIECAAAECBAgQiBYQ2EQLm58AAQIECBAgQIAAAQIECBAgkCkgsMkEM5wAAQIECBAgQIAAAQIECBAgEC0gsIkWNj8BAgQIECBAgAABAgQIECBAIFNAYJMJZjgBAgQIECBAgAABAgQIECBAIFpAYBMtbH4CBAgQIECAAAECBAgQIECAQKaAwCYTzHACBAgQIECAAAECBAgQIECAQLSAwCZa2PwECBAgQIAAAQIECBAgQIAAgUwBgU0mmOEECBAgQIAAAQIECBAgQIAAgWgBgU20sPkJECBAgAABAgQIECBAgAABApkCAptMMMMJECBAgAABAgQIECBAgAABAtECAptoYfMTIECAAAECBAgQIECAAAECBDIFBDaZYIYTIECAAAECBAgQIECAAAECBKIFBDbRwuYnQIAAAQIECBAgQIAAAQIECGQKCGwywQwnQIAAAQIECBAgQIAAAQIECEQLCGyihc1PgAABAgQIECBAgAABAgQIEMgUENhkghlOgAABAgQIECBAgAABAgQIEIgW+F+CBFZdFVSlgwAAAABJRU5ErkJggg==;" vertex="1" parent="1">
          <mxGeometry x="10" y="40" width="1132" height="943" as="geometry" />
        </mxCell>
      </root>
    </mxGraphModel>
  </diagram>
</mxfile>
